*
G04 Mass Parameters ***
*
G04 Image ***
*
%INC:\TRAVAIL\CARTE IO-I2C\LAYOUT\CARTEIOI2C-1.SST*%
%ICAS*%
%MOIN*%
%IPPOS*%
%ASAXBY*%
G74*%FSLAN2X34Y34*%
*
G04 Aperture Definitions ***
*
%ADD10R,0.0650X0.1000*%
%ADD11C,0.0700*%
%ADD12R,0.0700X0.0700*%
%ADD13C,0.1000*%
%ADD14C,0.2500*%
%ADD15O,0.0500X0.1000*%
%ADD16R,0.0500X0.1000*%
%ADD17R,0.0650X0.0650*%
%ADD18O,0.1000X0.0500*%
%ADD19R,0.1000X0.0500*%
%ADD20C,0.0200*%
%ADD21C,0.0300*%
%ADD22C,0.0750*%
%ADD23C,0.0100*%
%ADD24C,0.0750*%
%ADD25R,0.0700X0.1050*%
%ADD26C,0.0800*%
%ADD27R,0.0800X0.0800*%
%ADD28C,0.1100*%
%ADD29C,0.2600*%
%ADD30O,0.0600X0.1100*%
%ADD31R,0.0600X0.1100*%
%ADD32O,0.1100X0.0600*%
%ADD33R,0.1100X0.0600*%
%ADD34C,0.0850*%
*
G04 Plot Data ***
*
G54D20*
G01X0044000Y0003750D02*
Y0000750D01*
X0061000D01*
Y0003750D01*
X0044000D01*
X0014500D02*
Y0000750D01*
X0031500D01*
Y0003750D01*
X0014500D01*
X0000000Y0027250D02*
X0069000D01*
Y0000000D01*
X0003500D01*
Y0016000D01*
X-0000250D01*
Y0027250D01*
X0000000D01*
G54D23*
G01X0021011Y0008955D02*
Y0008689D01*
X0020922Y0008644D01*
X0020833D01*
X0020744Y0008689D01*
Y0008955D01*
X0020833Y0009000D01*
X0020922D01*
X0021278Y0008822D01*
X0021011Y0008400D02*
Y0008044D01*
X0021100Y0007800D02*
Y0007444D01*
X0020744Y0007622D01*
Y0007711D01*
X0021278D01*
X0021011Y0007067D02*
X0021278Y0007200D01*
X0021011Y0006844D02*
Y0007111D01*
X0020922Y0007200D01*
X0020833D01*
X0020744Y0007111D01*
Y0006844D01*
X0021278D01*
X0052294Y0026061D02*
X0052383Y0025972D01*
X0052561D01*
X0052650Y0026061D01*
Y0026150D01*
X0052472Y0026328D01*
X0052650Y0026505D01*
X0052294D01*
X0052050Y0026239D02*
X0051694D01*
X0051450Y0025972D02*
X0051094D01*
X0051450Y0026328D01*
Y0026417D01*
X0051405Y0026505D01*
X0051139D01*
X0051094Y0026417D01*
X0050850Y0026061D02*
X0050805Y0025972D01*
X0050539D01*
X0050494Y0026061D01*
Y0026417D01*
X0050539Y0026505D01*
X0050805D01*
X0050850Y0026417D01*
X0061639Y0012489D02*
X0061905D01*
X0061950Y0012400D01*
Y0012311D01*
X0061905Y0012222D01*
X0061639D01*
X0061594Y0012311D01*
Y0012400D01*
X0061772Y0012755D01*
X0061350Y0012489D02*
X0060994D01*
X0060394Y0012311D02*
X0060483Y0012222D01*
X0060661D01*
X0060750Y0012311D01*
Y0012400D01*
X0060572Y0012578D01*
X0060750Y0012755D01*
X0060394D01*
X0059972Y0012400D02*
X0060150Y0012222D01*
X0059794Y0012311D02*
X0059839Y0012222D01*
X0060017D01*
X0060061Y0012311D01*
X0060150Y0012400D01*
Y0012667D01*
X0060105Y0012755D01*
X0059839D01*
X0059794Y0012667D01*
Y0012311D01*
X0041450Y0012222D02*
X0041094D01*
X0041450Y0012578D01*
Y0012667D01*
X0041405Y0012755D01*
X0041139D01*
X0041094Y0012667D01*
X0040850Y0012489D02*
X0040494D01*
X0040250Y0012222D02*
X0039894D01*
X0040250Y0012578D01*
Y0012667D01*
X0040205Y0012755D01*
X0039939D01*
X0039894Y0012667D01*
X0039472Y0012400D02*
X0039650Y0012222D01*
X0039294Y0012311D02*
X0039339Y0012222D01*
X0039517D01*
X0039561Y0012311D01*
X0039650Y0012400D01*
Y0012667D01*
X0039605Y0012755D01*
X0039339D01*
X0039294Y0012667D01*
Y0012311D01*
X0031100Y0009511D02*
Y0009155D01*
X0030744Y0009333D01*
Y0009422D01*
X0031278D01*
Y0008911D02*
Y0008733D01*
Y0008822D02*
X0030744D01*
X0030833Y0008733D01*
X0031011Y0008400D02*
Y0008044D01*
X0031100Y0007800D02*
Y0007444D01*
X0030744Y0007622D01*
Y0007711D01*
X0031278D01*
X0031011Y0007067D02*
X0031278Y0007200D01*
X0031011Y0006844D02*
Y0007111D01*
X0030922Y0007200D01*
X0030833D01*
X0030744Y0007111D01*
Y0006844D01*
X0031278D01*
X0007278Y0009000D02*
Y0008644D01*
X0006922Y0009000D01*
X0006833D01*
X0006744Y0008955D01*
Y0008689D01*
X0006833Y0008644D01*
X0007011Y0008400D02*
Y0008044D01*
X0007100Y0007800D02*
Y0007444D01*
X0006744Y0007622D01*
Y0007711D01*
X0007278D01*
X0007011Y0007067D02*
X0007278Y0007200D01*
X0007011Y0006844D02*
Y0007111D01*
X0006922Y0007200D01*
X0006833D01*
X0006744Y0007111D01*
Y0006844D01*
X0007278D01*
X0015278Y0012750D02*
Y0012394D01*
X0014922Y0012750D01*
X0014833D01*
X0014744Y0012705D01*
Y0012439D01*
X0014833Y0012394D01*
X0015278Y0012150D02*
Y0011794D01*
X0014922Y0012150D01*
X0014833D01*
X0014744Y0012105D01*
Y0011839D01*
X0014833Y0011794D01*
X0015011Y0011550D02*
Y0011194D01*
X0015100Y0010950D02*
Y0010594D01*
X0014744Y0010772D01*
Y0010861D01*
X0015278D01*
X0015011Y0010217D02*
X0015278Y0010350D01*
X0015011Y0009994D02*
Y0010261D01*
X0014922Y0010350D01*
X0014833D01*
X0014744Y0010261D01*
Y0009994D01*
X0015278D01*
X0021189Y0012394D02*
X0021278Y0012439D01*
Y0012705D01*
X0021189Y0012750D01*
X0021011D01*
X0020922Y0012661D01*
Y0012394D01*
X0020744D01*
Y0012750D01*
X0021278Y0012150D02*
Y0011794D01*
X0020922Y0012150D01*
X0020833D01*
X0020744Y0012105D01*
Y0011839D01*
X0020833Y0011794D01*
X0021011Y0011550D02*
Y0011194D01*
X0021100Y0010950D02*
Y0010594D01*
X0020744Y0010772D01*
Y0010861D01*
X0021278D01*
X0021011Y0010217D02*
X0021278Y0010350D01*
X0021011Y0009994D02*
Y0010261D01*
X0020922Y0010350D01*
X0020833D01*
X0020744Y0010261D01*
Y0009994D01*
X0021278D01*
X0061594Y0009311D02*
X0061639Y0009222D01*
X0061905D01*
X0061950Y0009311D01*
Y0009489D01*
X0061861Y0009578D01*
X0061594D01*
Y0009755D01*
X0061950D01*
X0061350Y0009489D02*
X0060994D01*
X0060394Y0009311D02*
X0060483Y0009222D01*
X0060661D01*
X0060750Y0009311D01*
Y0009400D01*
X0060572Y0009578D01*
X0060750Y0009755D01*
X0060394D01*
X0059972Y0009400D02*
X0060150Y0009222D01*
X0059794Y0009311D02*
X0059839Y0009222D01*
X0060017D01*
X0060061Y0009311D01*
X0060150Y0009400D01*
Y0009667D01*
X0060105Y0009755D01*
X0059839D01*
X0059794Y0009667D01*
Y0009311D01*
X0065155Y0012489D02*
X0065200Y0012578D01*
Y0012667D01*
X0065155Y0012755D01*
X0064889D01*
X0064844Y0012667D01*
Y0012578D01*
X0064889Y0012489D01*
X0065155D01*
X0065200Y0012400D01*
Y0012311D01*
X0065155Y0012222D01*
X0064889D01*
X0064844Y0012311D01*
Y0012400D01*
X0064889Y0012489D01*
X0064600D02*
X0064244D01*
X0063644Y0012311D02*
X0063733Y0012222D01*
X0063911D01*
X0064000Y0012311D01*
Y0012400D01*
X0063822Y0012578D01*
X0064000Y0012755D01*
X0063644D01*
X0063222Y0012400D02*
X0063400Y0012222D01*
X0063044Y0012311D02*
X0063089Y0012222D01*
X0063267D01*
X0063311Y0012311D01*
X0063400Y0012400D01*
Y0012667D01*
X0063355Y0012755D01*
X0063089D01*
X0063044Y0012667D01*
Y0012311D01*
X0045200Y0012400D02*
X0044844D01*
X0045022Y0012755D01*
X0045111D01*
Y0012222D01*
X0044600Y0012489D02*
X0044244D01*
X0044000Y0012222D02*
X0043644D01*
X0044000Y0012578D01*
Y0012667D01*
X0043955Y0012755D01*
X0043689D01*
X0043644Y0012667D01*
X0043222Y0012400D02*
X0043400Y0012222D01*
X0043044Y0012311D02*
X0043089Y0012222D01*
X0043267D01*
X0043311Y0012311D01*
X0043400Y0012400D01*
Y0012667D01*
X0043355Y0012755D01*
X0043089D01*
X0043044Y0012667D01*
Y0012311D01*
X0004028Y0022472D02*
Y0022294D01*
Y0022383D02*
X0003494D01*
X0003583Y0022294D01*
X0003761Y0021961D02*
Y0021605D01*
X0004028Y0021361D02*
Y0021183D01*
Y0021272D02*
X0003494D01*
X0003583Y0021183D01*
X0003761Y0020717D02*
X0004028Y0020850D01*
X0003761Y0020494D02*
Y0020761D01*
X0003672Y0020850D01*
X0003583D01*
X0003494Y0020761D01*
Y0020494D01*
X0004028D01*
X0031278Y0012528D02*
X0031189Y0012439D01*
X0031100Y0012394D01*
X0030922D01*
X0030833Y0012439D01*
X0030744Y0012528D01*
Y0012617D01*
X0030833Y0012705D01*
X0030922Y0012750D01*
X0031100D01*
X0031189Y0012705D01*
X0031278Y0012617D01*
Y0012528D01*
X0031189Y0011794D02*
X0031278Y0011883D01*
Y0012061D01*
X0031189Y0012150D01*
X0031100D01*
X0030922Y0011972D01*
X0030744Y0012150D01*
Y0011794D01*
X0031011Y0011550D02*
Y0011194D01*
X0031100Y0010950D02*
Y0010594D01*
X0030744Y0010772D01*
Y0010861D01*
X0031278D01*
X0031011Y0010217D02*
X0031278Y0010350D01*
X0031011Y0009994D02*
Y0010261D01*
X0030922Y0010350D01*
X0030833D01*
X0030744Y0010261D01*
Y0009994D01*
X0031278D01*
X0007011Y0012616D02*
X0006922Y0012661D01*
X0006833D01*
X0006744Y0012616D01*
Y0012350D01*
X0006833Y0012305D01*
X0006922D01*
X0007011Y0012350D01*
Y0012616D01*
X0007100Y0012661D01*
X0007189D01*
X0007278Y0012616D01*
Y0012350D01*
X0007189Y0012305D01*
X0007100D01*
X0007011Y0012350D01*
X0007278Y0012061D02*
Y0011883D01*
Y0011972D02*
X0006744D01*
X0006833Y0011883D01*
X0007011Y0011550D02*
Y0011194D01*
X0007100Y0010950D02*
Y0010594D01*
X0006744Y0010772D01*
Y0010861D01*
X0007278D01*
X0007011Y0010217D02*
X0007278Y0010350D01*
X0007011Y0009994D02*
Y0010261D01*
X0006922Y0010350D01*
X0006833D01*
X0006744Y0010261D01*
Y0009994D01*
X0007278D01*
X0048389Y0012489D02*
X0048655D01*
X0048700Y0012400D01*
Y0012311D01*
X0048655Y0012222D01*
X0048389D01*
X0048344Y0012311D01*
Y0012400D01*
X0048522Y0012755D01*
X0048100Y0012489D02*
X0047744D01*
X0047500Y0012222D02*
X0047144D01*
X0047500Y0012578D01*
Y0012667D01*
X0047455Y0012755D01*
X0047189D01*
X0047144Y0012667D01*
X0046722Y0012400D02*
X0046900Y0012222D01*
X0046544Y0012311D02*
X0046589Y0012222D01*
X0046767D01*
X0046811Y0012311D01*
X0046900Y0012400D01*
Y0012667D01*
X0046855Y0012755D01*
X0046589D01*
X0046544Y0012667D01*
Y0012311D01*
X0035011Y0009200D02*
Y0009466D01*
X0035100Y0009511D01*
X0035189D01*
X0035278Y0009466D01*
Y0009200D01*
X0035189Y0009155D01*
X0035100D01*
X0034744Y0009333D01*
X0035278Y0008911D02*
Y0008733D01*
Y0008822D02*
X0034744D01*
X0034833Y0008733D01*
X0035011Y0008400D02*
Y0008044D01*
X0035100Y0007800D02*
Y0007444D01*
X0034744Y0007622D01*
Y0007711D01*
X0035278D01*
X0035011Y0007067D02*
X0035278Y0007200D01*
X0035011Y0006844D02*
Y0007111D01*
X0034922Y0007200D01*
X0034833D01*
X0034744Y0007111D01*
Y0006844D01*
X0035278D01*
X0066050Y0021000D02*
X0065694D01*
X0065872Y0021355D01*
X0065961D01*
Y0020822D01*
X0065450Y0021089D02*
X0065094D01*
X0064850Y0020822D02*
X0064494D01*
X0064850Y0021178D01*
Y0021267D01*
X0064805Y0021355D01*
X0064539D01*
X0064494Y0021267D01*
X0064117Y0021089D02*
X0064250Y0020822D01*
X0063894Y0021089D02*
X0064161D01*
X0064250Y0021178D01*
Y0021267D01*
X0064161Y0021355D01*
X0063894D01*
Y0020822D01*
X0060650Y0017222D02*
X0060294D01*
X0060650Y0017578D01*
Y0017667D01*
X0060605Y0017755D01*
X0060339D01*
X0060294Y0017667D01*
X0060050Y0017489D02*
X0059694D01*
X0059094Y0017311D02*
X0059183Y0017222D01*
X0059361D01*
X0059450Y0017311D01*
Y0017400D01*
X0059272Y0017578D01*
X0059450Y0017755D01*
X0059094D01*
X0058717Y0017489D02*
X0058850Y0017222D01*
X0058494Y0017489D02*
X0058761D01*
X0058850Y0017578D01*
Y0017667D01*
X0058761Y0017755D01*
X0058494D01*
Y0017222D01*
X0065739Y0018589D02*
X0066005D01*
X0066050Y0018500D01*
Y0018411D01*
X0066005Y0018322D01*
X0065739D01*
X0065694Y0018411D01*
Y0018500D01*
X0065872Y0018855D01*
X0065450Y0018589D02*
X0065094D01*
X0064850Y0018322D02*
X0064494D01*
X0064850Y0018678D01*
Y0018767D01*
X0064805Y0018855D01*
X0064539D01*
X0064494Y0018767D01*
X0064117Y0018589D02*
X0064250Y0018322D01*
X0063894Y0018589D02*
X0064161D01*
X0064250Y0018678D01*
Y0018767D01*
X0064161Y0018855D01*
X0063894D01*
Y0018322D01*
X0035278Y0012750D02*
Y0012394D01*
X0034922Y0012750D01*
X0034833D01*
X0034744Y0012705D01*
Y0012439D01*
X0034833Y0012394D01*
X0035189Y0011794D02*
X0035278Y0011883D01*
Y0012061D01*
X0035189Y0012150D01*
X0035100D01*
X0034922Y0011972D01*
X0034744Y0012150D01*
Y0011794D01*
X0035011Y0011550D02*
Y0011194D01*
X0035100Y0010950D02*
Y0010594D01*
X0034744Y0010772D01*
Y0010861D01*
X0035278D01*
X0035011Y0010217D02*
X0035278Y0010350D01*
X0035011Y0009994D02*
Y0010261D01*
X0034922Y0010350D01*
X0034833D01*
X0034744Y0010261D01*
Y0009994D01*
X0035278D01*
X0066005Y0016089D02*
X0066050Y0016178D01*
Y0016267D01*
X0066005Y0016355D01*
X0065739D01*
X0065694Y0016267D01*
Y0016178D01*
X0065739Y0016089D01*
X0066005D01*
X0066050Y0016000D01*
Y0015911D01*
X0066005Y0015822D01*
X0065739D01*
X0065694Y0015911D01*
Y0016000D01*
X0065739Y0016089D01*
X0065450D02*
X0065094D01*
X0064850Y0015822D02*
X0064494D01*
X0064850Y0016178D01*
Y0016267D01*
X0064805Y0016355D01*
X0064539D01*
X0064494Y0016267D01*
X0064117Y0016089D02*
X0064250Y0015822D01*
X0063894Y0016089D02*
X0064161D01*
X0064250Y0016178D01*
Y0016267D01*
X0064161Y0016355D01*
X0063894D01*
Y0015822D01*
X0046217Y0004167D02*
X0046300Y0004083D01*
X0046467D01*
X0046550Y0004167D01*
Y0004250D01*
X0046383Y0004417D01*
X0046550Y0004583D01*
X0046217D01*
X0045975Y0004333D02*
X0045642D01*
X0045400Y0004083D02*
X0045233D01*
X0045317D02*
Y0004583D01*
X0045233Y0004500D01*
X0044575Y0004333D02*
X0044825D01*
X0044908Y0004417D01*
Y0004500D01*
X0044825Y0004583D01*
X0044575D01*
Y0004083D01*
X0044042Y0004250D02*
Y0004167D01*
X0044083Y0004083D01*
X0044250D01*
X0044292Y0004167D01*
Y0004583D01*
X0044333D02*
X0044167D01*
X0060650Y0019900D02*
X0060294D01*
X0060472Y0020255D01*
X0060561D01*
Y0019722D01*
X0060050Y0019989D02*
X0059694D01*
X0059094Y0019811D02*
X0059183Y0019722D01*
X0059361D01*
X0059450Y0019811D01*
Y0019900D01*
X0059272Y0020078D01*
X0059450Y0020255D01*
X0059094D01*
X0058717Y0019989D02*
X0058850Y0019722D01*
X0058494Y0019989D02*
X0058761D01*
X0058850Y0020078D01*
Y0020167D01*
X0058761Y0020255D01*
X0058494D01*
Y0019722D01*
X0025278Y0009422D02*
Y0009244D01*
Y0009333D02*
X0024744D01*
X0024833Y0009244D01*
X0025278Y0008911D02*
Y0008733D01*
Y0008822D02*
X0024744D01*
X0024833Y0008733D01*
X0025011Y0008400D02*
Y0008044D01*
X0025100Y0007800D02*
Y0007444D01*
X0024744Y0007622D01*
Y0007711D01*
X0025278D01*
X0025011Y0007067D02*
X0025278Y0007200D01*
X0025011Y0006844D02*
Y0007111D01*
X0024922Y0007200D01*
X0024833D01*
X0024744Y0007111D01*
Y0006844D01*
X0025278D01*
X0013189Y0008644D02*
X0013278Y0008689D01*
Y0008955D01*
X0013189Y0009000D01*
X0013011D01*
X0012922Y0008911D01*
Y0008644D01*
X0012744D01*
Y0009000D01*
X0013011Y0008400D02*
Y0008044D01*
X0013100Y0007800D02*
Y0007444D01*
X0012744Y0007622D01*
Y0007711D01*
X0013278D01*
X0013011Y0007067D02*
X0013278Y0007200D01*
X0013011Y0006844D02*
Y0007111D01*
X0012922Y0007200D01*
X0012833D01*
X0012744Y0007111D01*
Y0006844D01*
X0013278D01*
X0011050Y0003083D02*
X0010717D01*
X0011050Y0003417D01*
Y0003500D01*
X0011008Y0003583D01*
X0010758D01*
X0010717Y0003500D01*
X0010475Y0003333D02*
X0010142D01*
X0009900Y0003083D02*
X0009733D01*
X0009817D02*
Y0003583D01*
X0009733Y0003500D01*
X0009075Y0003333D02*
X0009325D01*
X0009408Y0003417D01*
Y0003500D01*
X0009325Y0003583D01*
X0009075D01*
Y0003083D01*
X0008542Y0003250D02*
Y0003167D01*
X0008583Y0003083D01*
X0008750D01*
X0008792Y0003167D01*
Y0003583D01*
X0008833D02*
X0008667D01*
X0025278Y0012483D02*
X0024744Y0012750D01*
Y0012394D01*
X0025278Y0012150D02*
Y0011794D01*
X0024922Y0012150D01*
X0024833D01*
X0024744Y0012105D01*
Y0011839D01*
X0024833Y0011794D01*
X0025011Y0011550D02*
Y0011194D01*
X0025100Y0010950D02*
Y0010594D01*
X0024744Y0010772D01*
Y0010861D01*
X0025278D01*
X0025011Y0010217D02*
X0025278Y0010350D01*
X0025011Y0009994D02*
Y0010261D01*
X0024922Y0010350D01*
X0024833D01*
X0024744Y0010261D01*
Y0009994D01*
X0025278D01*
X0060339Y0022489D02*
X0060605D01*
X0060650Y0022400D01*
Y0022311D01*
X0060605Y0022222D01*
X0060339D01*
X0060294Y0022311D01*
Y0022400D01*
X0060472Y0022755D01*
X0060050Y0022489D02*
X0059694D01*
X0059094Y0022311D02*
X0059183Y0022222D01*
X0059361D01*
X0059450Y0022311D01*
Y0022400D01*
X0059272Y0022578D01*
X0059450Y0022755D01*
X0059094D01*
X0058717Y0022489D02*
X0058850Y0022222D01*
X0058494Y0022489D02*
X0058761D01*
X0058850Y0022578D01*
Y0022667D01*
X0058761Y0022755D01*
X0058494D01*
Y0022222D01*
X0013278Y0012661D02*
Y0012483D01*
Y0012572D02*
X0012744D01*
X0012833Y0012483D01*
X0013278Y0012150D02*
Y0011794D01*
X0012922Y0012150D01*
X0012833D01*
X0012744Y0012105D01*
Y0011839D01*
X0012833Y0011794D01*
X0013011Y0011550D02*
Y0011194D01*
X0013100Y0010950D02*
Y0010594D01*
X0012744Y0010772D01*
Y0010861D01*
X0013278D01*
X0013011Y0010217D02*
X0013278Y0010350D01*
X0013011Y0009994D02*
Y0010261D01*
X0012922Y0010350D01*
X0012833D01*
X0012744Y0010261D01*
Y0009994D01*
X0013278D01*
X0019011Y0008955D02*
X0018922Y0009000D01*
X0018833D01*
X0018744Y0008955D01*
Y0008689D01*
X0018833Y0008644D01*
X0018922D01*
X0019011Y0008689D01*
Y0008955D01*
X0019100Y0009000D01*
X0019189D01*
X0019278Y0008955D01*
Y0008689D01*
X0019189Y0008644D01*
X0019100D01*
X0019011Y0008689D01*
Y0008400D02*
Y0008044D01*
X0019100Y0007800D02*
Y0007444D01*
X0018744Y0007622D01*
Y0007711D01*
X0019278D01*
X0019011Y0007067D02*
X0019278Y0007200D01*
X0019011Y0006844D02*
Y0007111D01*
X0018922Y0007200D01*
X0018833D01*
X0018744Y0007111D01*
Y0006844D01*
X0019278D01*
X0033900Y0018889D02*
Y0019245D01*
X0034255Y0019067D01*
Y0018978D01*
X0033722D01*
X0033989Y0019489D02*
Y0019845D01*
X0033722Y0020089D02*
Y0020267D01*
Y0020178D02*
X0034255D01*
X0034167Y0020267D01*
X0034255Y0020600D02*
X0033811D01*
X0033722Y0020644D01*
Y0020911D01*
X0033811Y0020956D01*
X0034255D01*
X0040561Y0025972D02*
X0040383D01*
X0040472D02*
Y0026505D01*
X0040383Y0026417D01*
X0040050Y0026239D02*
X0039694D01*
X0039450Y0025972D02*
X0039094D01*
X0039450Y0026328D01*
Y0026417D01*
X0039405Y0026505D01*
X0039139D01*
X0039094Y0026417D01*
X0038850Y0026061D02*
X0038805Y0025972D01*
X0038539D01*
X0038494Y0026061D01*
Y0026417D01*
X0038539Y0026505D01*
X0038805D01*
X0038850Y0026417D01*
X0004028Y0019061D02*
Y0018705D01*
X0003672Y0019061D01*
X0003583D01*
X0003494Y0019016D01*
Y0018750D01*
X0003583Y0018705D01*
X0003761Y0018461D02*
Y0018105D01*
X0004028Y0017861D02*
Y0017683D01*
Y0017772D02*
X0003494D01*
X0003583Y0017683D01*
X0003761Y0017217D02*
X0004028Y0017350D01*
X0003761Y0016994D02*
Y0017261D01*
X0003672Y0017350D01*
X0003583D01*
X0003494Y0017261D01*
Y0016994D01*
X0004028D01*
X0058344Y0009311D02*
X0058433Y0009222D01*
X0058611D01*
X0058700Y0009311D01*
Y0009400D01*
X0058522Y0009578D01*
X0058700Y0009755D01*
X0058344D01*
X0058100Y0009489D02*
X0057744D01*
X0057144Y0009311D02*
X0057233Y0009222D01*
X0057411D01*
X0057500Y0009311D01*
Y0009400D01*
X0057322Y0009578D01*
X0057500Y0009755D01*
X0057144D01*
X0056722Y0009400D02*
X0056900Y0009222D01*
X0056544Y0009311D02*
X0056589Y0009222D01*
X0056767D01*
X0056811Y0009311D01*
X0056900Y0009400D01*
Y0009667D01*
X0056855Y0009755D01*
X0056589D01*
X0056544Y0009667D01*
Y0009311D01*
X0060605Y0024989D02*
X0060650Y0025078D01*
Y0025167D01*
X0060605Y0025255D01*
X0060339D01*
X0060294Y0025167D01*
Y0025078D01*
X0060339Y0024989D01*
X0060605D01*
X0060650Y0024900D01*
Y0024811D01*
X0060605Y0024722D01*
X0060339D01*
X0060294Y0024811D01*
Y0024900D01*
X0060339Y0024989D01*
X0060050D02*
X0059694D01*
X0059094Y0024811D02*
X0059183Y0024722D01*
X0059361D01*
X0059450Y0024811D01*
Y0024900D01*
X0059272Y0025078D01*
X0059450Y0025255D01*
X0059094D01*
X0058717Y0024989D02*
X0058850Y0024722D01*
X0058494Y0024989D02*
X0058761D01*
X0058850Y0025078D01*
Y0025167D01*
X0058761Y0025255D01*
X0058494D01*
Y0024722D01*
X0019100Y0012750D02*
Y0012394D01*
X0018744Y0012572D01*
Y0012661D01*
X0019278D01*
Y0012150D02*
Y0011794D01*
X0018922Y0012150D01*
X0018833D01*
X0018744Y0012105D01*
Y0011839D01*
X0018833Y0011794D01*
X0019011Y0011550D02*
Y0011194D01*
X0019100Y0010950D02*
Y0010594D01*
X0018744Y0010772D01*
Y0010861D01*
X0019278D01*
X0019011Y0010217D02*
X0019278Y0010350D01*
X0019011Y0009994D02*
Y0010261D01*
X0018922Y0010350D01*
X0018833D01*
X0018744Y0010261D01*
Y0009994D01*
X0019278D01*
X0029189Y0009155D02*
X0029278Y0009244D01*
Y0009422D01*
X0029189Y0009511D01*
X0029100D01*
X0028922Y0009333D01*
X0028744Y0009511D01*
Y0009155D01*
X0029278Y0008911D02*
Y0008733D01*
Y0008822D02*
X0028744D01*
X0028833Y0008733D01*
X0029011Y0008400D02*
Y0008044D01*
X0029100Y0007800D02*
Y0007444D01*
X0028744Y0007622D01*
Y0007711D01*
X0029278D01*
X0029011Y0007067D02*
X0029278Y0007200D01*
X0029011Y0006844D02*
Y0007111D01*
X0028922Y0007200D01*
X0028833D01*
X0028744Y0007111D01*
Y0006844D01*
X0029278D01*
X0060383Y0023472D02*
X0060650Y0024005D01*
X0060294D01*
X0060050Y0023739D02*
X0059694D01*
X0059094Y0023561D02*
X0059183Y0023472D01*
X0059361D01*
X0059450Y0023561D01*
Y0023650D01*
X0059272Y0023828D01*
X0059450Y0024005D01*
X0059094D01*
X0058717Y0023739D02*
X0058850Y0023472D01*
X0058494Y0023739D02*
X0058761D01*
X0058850Y0023828D01*
Y0023917D01*
X0058761Y0024005D01*
X0058494D01*
Y0023472D01*
X0005278Y0008911D02*
Y0008733D01*
Y0008822D02*
X0004744D01*
X0004833Y0008733D01*
X0005011Y0008400D02*
Y0008044D01*
X0005100Y0007800D02*
Y0007444D01*
X0004744Y0007622D01*
Y0007711D01*
X0005278D01*
X0005011Y0007067D02*
X0005278Y0007200D01*
X0005011Y0006844D02*
Y0007111D01*
X0004922Y0007200D01*
X0004833D01*
X0004744Y0007111D01*
Y0006844D01*
X0005278D01*
X0051905Y0012489D02*
X0051950Y0012578D01*
Y0012667D01*
X0051905Y0012755D01*
X0051639D01*
X0051594Y0012667D01*
Y0012578D01*
X0051639Y0012489D01*
X0051905D01*
X0051950Y0012400D01*
Y0012311D01*
X0051905Y0012222D01*
X0051639D01*
X0051594Y0012311D01*
Y0012400D01*
X0051639Y0012489D01*
X0051350D02*
X0050994D01*
X0050750Y0012222D02*
X0050394D01*
X0050750Y0012578D01*
Y0012667D01*
X0050705Y0012755D01*
X0050439D01*
X0050394Y0012667D01*
X0049972Y0012400D02*
X0050150Y0012222D01*
X0049794Y0012311D02*
X0049839Y0012222D01*
X0050017D01*
X0050061Y0012311D01*
X0050150Y0012400D01*
Y0012667D01*
X0050105Y0012755D01*
X0049839D01*
X0049794Y0012667D01*
Y0012311D01*
X0029011Y0012705D02*
Y0012439D01*
X0028922Y0012394D01*
X0028833D01*
X0028744Y0012439D01*
Y0012705D01*
X0028833Y0012750D01*
X0028922D01*
X0029278Y0012572D01*
Y0012150D02*
Y0011794D01*
X0028922Y0012150D01*
X0028833D01*
X0028744Y0012105D01*
Y0011839D01*
X0028833Y0011794D01*
X0029011Y0011550D02*
Y0011194D01*
X0029100Y0010950D02*
Y0010594D01*
X0028744Y0010772D01*
Y0010861D01*
X0029278D01*
X0029011Y0010217D02*
X0029278Y0010350D01*
X0029011Y0009994D02*
Y0010261D01*
X0028922Y0010350D01*
X0028833D01*
X0028744Y0010261D01*
Y0009994D01*
X0029278D01*
X0011100Y0009000D02*
Y0008644D01*
X0010744Y0008822D01*
Y0008911D01*
X0011278D01*
X0011011Y0008400D02*
Y0008044D01*
X0011100Y0007800D02*
Y0007444D01*
X0010744Y0007622D01*
Y0007711D01*
X0011278D01*
X0011011Y0007067D02*
X0011278Y0007200D01*
X0011011Y0006844D02*
Y0007111D01*
X0010922Y0007200D01*
X0010833D01*
X0010744Y0007111D01*
Y0006844D01*
X0011278D01*
X0065783Y0017072D02*
X0066050Y0017605D01*
X0065694D01*
X0065450Y0017339D02*
X0065094D01*
X0064850Y0017072D02*
X0064494D01*
X0064850Y0017428D01*
Y0017517D01*
X0064805Y0017605D01*
X0064539D01*
X0064494Y0017517D01*
X0064117Y0017339D02*
X0064250Y0017072D01*
X0063894Y0017339D02*
X0064161D01*
X0064250Y0017428D01*
Y0017517D01*
X0064161Y0017605D01*
X0063894D01*
Y0017072D01*
X0051683Y0009222D02*
X0051950Y0009755D01*
X0051594D01*
X0051350Y0009489D02*
X0050994D01*
X0050750Y0009222D02*
X0050394D01*
X0050750Y0009578D01*
Y0009667D01*
X0050705Y0009755D01*
X0050439D01*
X0050394Y0009667D01*
X0049972Y0009400D02*
X0050150Y0009222D01*
X0049794Y0009311D02*
X0049839Y0009222D01*
X0050017D01*
X0050061Y0009311D01*
X0050150Y0009400D01*
Y0009667D01*
X0050105Y0009755D01*
X0049839D01*
X0049794Y0009667D01*
Y0009311D01*
X0005278Y0012394D02*
X0004744Y0012661D01*
Y0012305D01*
X0005278Y0012061D02*
Y0011883D01*
Y0011972D02*
X0004744D01*
X0004833Y0011883D01*
X0005011Y0011550D02*
Y0011194D01*
X0005100Y0010950D02*
Y0010594D01*
X0004744Y0010772D01*
Y0010861D01*
X0005278D01*
X0005011Y0010217D02*
X0005278Y0010350D01*
X0005011Y0009994D02*
Y0010261D01*
X0004922Y0010350D01*
X0004833D01*
X0004744Y0010261D01*
Y0009994D01*
X0005278D01*
X0055361Y0009222D02*
X0055183D01*
X0055272D02*
Y0009755D01*
X0055183Y0009667D01*
X0054850Y0009489D02*
X0054494D01*
X0053894Y0009311D02*
X0053983Y0009222D01*
X0054161D01*
X0054250Y0009311D01*
Y0009400D01*
X0054072Y0009578D01*
X0054250Y0009755D01*
X0053894D01*
X0053472Y0009400D02*
X0053650Y0009222D01*
X0053294Y0009311D02*
X0053339Y0009222D01*
X0053517D01*
X0053561Y0009311D01*
X0053650Y0009400D01*
Y0009667D01*
X0053605Y0009755D01*
X0053339D01*
X0053294Y0009667D01*
Y0009311D01*
X0060294Y0021061D02*
X0060339Y0020972D01*
X0060605D01*
X0060650Y0021061D01*
Y0021239D01*
X0060561Y0021328D01*
X0060294D01*
Y0021505D01*
X0060650D01*
X0060050Y0021239D02*
X0059694D01*
X0059094Y0021061D02*
X0059183Y0020972D01*
X0059361D01*
X0059450Y0021061D01*
Y0021150D01*
X0059272Y0021328D01*
X0059450Y0021505D01*
X0059094D01*
X0058717Y0021239D02*
X0058850Y0020972D01*
X0058494Y0021239D02*
X0058761D01*
X0058850Y0021328D01*
Y0021417D01*
X0058761Y0021505D01*
X0058494D01*
Y0020972D01*
X0033189Y0009155D02*
X0033278Y0009200D01*
Y0009466D01*
X0033189Y0009511D01*
X0033011D01*
X0032922Y0009422D01*
Y0009155D01*
X0032744D01*
Y0009511D01*
X0033278Y0008911D02*
Y0008733D01*
Y0008822D02*
X0032744D01*
X0032833Y0008733D01*
X0033011Y0008400D02*
Y0008044D01*
X0033100Y0007800D02*
Y0007444D01*
X0032744Y0007622D01*
Y0007711D01*
X0033278D01*
X0033011Y0007067D02*
X0033278Y0007200D01*
X0033011Y0006844D02*
Y0007111D01*
X0032922Y0007200D01*
X0032833D01*
X0032744Y0007111D01*
Y0006844D01*
X0033278D01*
X0048344Y0009311D02*
X0048389Y0009222D01*
X0048655D01*
X0048700Y0009311D01*
Y0009489D01*
X0048611Y0009578D01*
X0048344D01*
Y0009755D01*
X0048700D01*
X0048100Y0009489D02*
X0047744D01*
X0047500Y0009222D02*
X0047144D01*
X0047500Y0009578D01*
Y0009667D01*
X0047455Y0009755D01*
X0047189D01*
X0047144Y0009667D01*
X0046722Y0009400D02*
X0046900Y0009222D01*
X0046544Y0009311D02*
X0046589Y0009222D01*
X0046767D01*
X0046811Y0009311D01*
X0046900Y0009400D01*
Y0009667D01*
X0046855Y0009755D01*
X0046589D01*
X0046544Y0009667D01*
Y0009311D01*
X0017050Y0004250D02*
X0016717D01*
X0016883Y0004583D01*
X0016967D01*
Y0004083D01*
X0016475Y0004333D02*
X0016142D01*
X0015900Y0004083D02*
X0015733D01*
X0015817D02*
Y0004583D01*
X0015733Y0004500D01*
X0015075Y0004333D02*
X0015325D01*
X0015408Y0004417D01*
Y0004500D01*
X0015325Y0004583D01*
X0015075D01*
Y0004083D01*
X0014542Y0004250D02*
Y0004167D01*
X0014583Y0004083D01*
X0014750D01*
X0014792Y0004167D01*
Y0004583D01*
X0014833D02*
X0014667D01*
X0011278Y0012528D02*
X0011189Y0012439D01*
X0011100Y0012394D01*
X0010922D01*
X0010833Y0012439D01*
X0010744Y0012528D01*
Y0012617D01*
X0010833Y0012705D01*
X0010922Y0012750D01*
X0011100D01*
X0011189Y0012705D01*
X0011278Y0012617D01*
Y0012528D01*
Y0012150D02*
Y0011794D01*
X0010922Y0012150D01*
X0010833D01*
X0010744Y0012105D01*
Y0011839D01*
X0010833Y0011794D01*
X0011011Y0011550D02*
Y0011194D01*
X0011100Y0010950D02*
Y0010594D01*
X0010744Y0010772D01*
Y0010861D01*
X0011278D01*
X0011011Y0010217D02*
X0011278Y0010350D01*
X0011011Y0009994D02*
Y0010261D01*
X0010922Y0010350D01*
X0010833D01*
X0010744Y0010261D01*
Y0009994D01*
X0011278D01*
X0023278Y0009289D02*
X0023189Y0009200D01*
X0023100Y0009155D01*
X0022922D01*
X0022833Y0009200D01*
X0022744Y0009289D01*
Y0009378D01*
X0022833Y0009466D01*
X0022922Y0009511D01*
X0023100D01*
X0023189Y0009466D01*
X0023278Y0009378D01*
Y0009289D01*
Y0008911D02*
Y0008733D01*
Y0008822D02*
X0022744D01*
X0022833Y0008733D01*
X0023011Y0008400D02*
Y0008044D01*
X0023100Y0007800D02*
Y0007444D01*
X0022744Y0007622D01*
Y0007711D01*
X0023278D01*
X0023011Y0007067D02*
X0023278Y0007200D01*
X0023011Y0006844D02*
Y0007111D01*
X0022922Y0007200D01*
X0022833D01*
X0022744Y0007111D01*
Y0006844D01*
X0023278D01*
X0044844Y0009311D02*
X0044933Y0009222D01*
X0045111D01*
X0045200Y0009311D01*
Y0009400D01*
X0045022Y0009578D01*
X0045200Y0009755D01*
X0044844D01*
X0044600Y0009489D02*
X0044244D01*
X0044000Y0009222D02*
X0043644D01*
X0044000Y0009578D01*
Y0009667D01*
X0043955Y0009755D01*
X0043689D01*
X0043644Y0009667D01*
X0043222Y0009400D02*
X0043400Y0009222D01*
X0043044Y0009311D02*
X0043089Y0009222D01*
X0043267D01*
X0043311Y0009311D01*
X0043400Y0009400D01*
Y0009667D01*
X0043355Y0009755D01*
X0043089D01*
X0043044Y0009667D01*
Y0009311D01*
X0060294Y0018561D02*
X0060383Y0018472D01*
X0060561D01*
X0060650Y0018561D01*
Y0018650D01*
X0060472Y0018828D01*
X0060650Y0019005D01*
X0060294D01*
X0060050Y0018739D02*
X0059694D01*
X0059094Y0018561D02*
X0059183Y0018472D01*
X0059361D01*
X0059450Y0018561D01*
Y0018650D01*
X0059272Y0018828D01*
X0059450Y0019005D01*
X0059094D01*
X0058717Y0018739D02*
X0058850Y0018472D01*
X0058494Y0018739D02*
X0058761D01*
X0058850Y0018828D01*
Y0018917D01*
X0058761Y0019005D01*
X0058494D01*
Y0018472D01*
X0033278Y0012661D02*
Y0012483D01*
Y0012572D02*
X0032744D01*
X0032833Y0012483D01*
X0033189Y0011794D02*
X0033278Y0011883D01*
Y0012061D01*
X0033189Y0012150D01*
X0033100D01*
X0032922Y0011972D01*
X0032744Y0012150D01*
Y0011794D01*
X0033011Y0011550D02*
Y0011194D01*
X0033100Y0010950D02*
Y0010594D01*
X0032744Y0010772D01*
Y0010861D01*
X0033278D01*
X0033011Y0010217D02*
X0033278Y0010350D01*
X0033011Y0009994D02*
Y0010261D01*
X0032922Y0010350D01*
X0032833D01*
X0032744Y0010261D01*
Y0009994D01*
X0033278D01*
X0026811Y0019245D02*
X0026722Y0019156D01*
Y0018978D01*
X0026811Y0018889D01*
X0026900D01*
X0027078Y0019067D01*
X0027255Y0018889D01*
Y0019245D01*
X0026989Y0019489D02*
Y0019845D01*
X0026722Y0020089D02*
Y0020267D01*
Y0020178D02*
X0027255D01*
X0027167Y0020267D01*
X0027255Y0020600D02*
X0026811D01*
X0026722Y0020644D01*
Y0020911D01*
X0026811Y0020956D01*
X0027255D01*
X0017278Y0008733D02*
X0016744Y0009000D01*
Y0008644D01*
X0017011Y0008400D02*
Y0008044D01*
X0017100Y0007800D02*
Y0007444D01*
X0016744Y0007622D01*
Y0007711D01*
X0017278D01*
X0017011Y0007067D02*
X0017278Y0007200D01*
X0017011Y0006844D02*
Y0007111D01*
X0016922Y0007200D01*
X0016833D01*
X0016744Y0007111D01*
Y0006844D01*
X0017278D01*
X0053722Y0018889D02*
Y0019067D01*
Y0018978D02*
X0054255D01*
X0054167Y0019067D01*
X0053989Y0019400D02*
Y0019756D01*
X0053811Y0020356D02*
X0053722Y0020267D01*
Y0020089D01*
X0053811Y0020000D01*
X0053900D01*
X0054078Y0020178D01*
X0054255Y0020000D01*
Y0020356D01*
Y0020600D02*
X0053811D01*
X0053722Y0020644D01*
Y0020911D01*
X0053811Y0020956D01*
X0054255D01*
X0023011Y0012439D02*
Y0012705D01*
X0023100Y0012750D01*
X0023189D01*
X0023278Y0012705D01*
Y0012439D01*
X0023189Y0012394D01*
X0023100D01*
X0022744Y0012572D01*
X0023278Y0012150D02*
Y0011794D01*
X0022922Y0012150D01*
X0022833D01*
X0022744Y0012105D01*
Y0011839D01*
X0022833Y0011794D01*
X0023011Y0011550D02*
Y0011194D01*
X0023100Y0010950D02*
Y0010594D01*
X0022744Y0010772D01*
Y0010861D01*
X0023278D01*
X0023011Y0010217D02*
X0023278Y0010350D01*
X0023011Y0009994D02*
Y0010261D01*
X0022922Y0010350D01*
X0022833D01*
X0022744Y0010261D01*
Y0009994D01*
X0023278D01*
X0041361Y0009222D02*
X0041183D01*
X0041272D02*
Y0009755D01*
X0041183Y0009667D01*
X0040850Y0009489D02*
X0040494D01*
X0040250Y0009222D02*
X0039894D01*
X0040250Y0009578D01*
Y0009667D01*
X0040205Y0009755D01*
X0039939D01*
X0039894Y0009667D01*
X0039472Y0009400D02*
X0039650Y0009222D01*
X0039294Y0009311D02*
X0039339Y0009222D01*
X0039517D01*
X0039561Y0009311D01*
X0039650Y0009400D01*
Y0009667D01*
X0039605Y0009755D01*
X0039339D01*
X0039294Y0009667D01*
Y0009311D01*
X0017189Y0012394D02*
X0017278Y0012483D01*
Y0012661D01*
X0017189Y0012750D01*
X0017100D01*
X0016922Y0012572D01*
X0016744Y0012750D01*
Y0012394D01*
X0017278Y0012150D02*
Y0011794D01*
X0016922Y0012150D01*
X0016833D01*
X0016744Y0012105D01*
Y0011839D01*
X0016833Y0011794D01*
X0017011Y0011550D02*
Y0011194D01*
X0017100Y0010950D02*
Y0010594D01*
X0016744Y0010772D01*
Y0010861D01*
X0017278D01*
X0017011Y0010217D02*
X0017278Y0010350D01*
X0017011Y0009994D02*
Y0010261D01*
X0016922Y0010350D01*
X0016833D01*
X0016744Y0010261D01*
Y0009994D01*
X0017278D01*
X0032311Y0026400D02*
X0031955D01*
X0032133Y0026755D01*
X0032222D01*
Y0026222D01*
X0031711Y0026489D02*
X0031355D01*
X0031111Y0026222D02*
X0030933D01*
X0031022D02*
Y0026755D01*
X0030933Y0026667D01*
X0030600Y0026311D02*
X0030555Y0026222D01*
X0030289D01*
X0030244Y0026311D01*
Y0026667D01*
X0030289Y0026755D01*
X0030555D01*
X0030600Y0026667D01*
X0046650Y0025972D02*
X0046294D01*
X0046650Y0026328D01*
Y0026417D01*
X0046605Y0026505D01*
X0046339D01*
X0046294Y0026417D01*
X0046050Y0026239D02*
X0045694D01*
X0045450Y0025972D02*
X0045094D01*
X0045450Y0026328D01*
Y0026417D01*
X0045405Y0026505D01*
X0045139D01*
X0045094Y0026417D01*
X0044850Y0026061D02*
X0044805Y0025972D01*
X0044539D01*
X0044494Y0026061D01*
Y0026417D01*
X0044539Y0026505D01*
X0044805D01*
X0044850Y0026417D01*
X0018311Y0026222D02*
X0017955D01*
X0018311Y0026578D01*
Y0026667D01*
X0018266Y0026755D01*
X0018000D01*
X0017955Y0026667D01*
X0017711Y0026489D02*
X0017355D01*
X0017111Y0026222D02*
X0016933D01*
X0017022D02*
Y0026755D01*
X0016933Y0026667D01*
X0016600Y0026311D02*
X0016555Y0026222D01*
X0016289D01*
X0016244Y0026311D01*
Y0026667D01*
X0016289Y0026755D01*
X0016555D01*
X0016600Y0026667D01*
X0066100Y0023372D02*
X0065744D01*
X0066100Y0023728D01*
Y0023817D01*
X0066055Y0023905D01*
X0065789D01*
X0065744Y0023817D01*
X0065500Y0023639D02*
X0065144D01*
X0064900Y0023372D02*
X0064544D01*
X0064900Y0023728D01*
Y0023817D01*
X0064855Y0023905D01*
X0064589D01*
X0064544Y0023817D01*
X0064167Y0023639D02*
X0064300Y0023372D01*
X0063944Y0023639D02*
X0064211D01*
X0064300Y0023728D01*
Y0023817D01*
X0064211Y0023905D01*
X0063944D01*
Y0023372D01*
X0009189Y0008644D02*
X0009278Y0008733D01*
Y0008911D01*
X0009189Y0009000D01*
X0009100D01*
X0008922Y0008822D01*
X0008744Y0009000D01*
Y0008644D01*
X0009011Y0008400D02*
Y0008044D01*
X0009100Y0007800D02*
Y0007444D01*
X0008744Y0007622D01*
Y0007711D01*
X0009278D01*
X0009011Y0007067D02*
X0009278Y0007200D01*
X0009011Y0006844D02*
Y0007111D01*
X0008922Y0007200D01*
X0008833D01*
X0008744Y0007111D01*
Y0006844D01*
X0009278D01*
X0019722Y0018889D02*
Y0019245D01*
X0020078Y0018889D01*
X0020167D01*
X0020255Y0018933D01*
Y0019200D01*
X0020167Y0019245D01*
X0019989Y0019489D02*
Y0019845D01*
X0019722Y0020089D02*
Y0020267D01*
Y0020178D02*
X0020255D01*
X0020167Y0020267D01*
X0020255Y0020600D02*
X0019811D01*
X0019722Y0020644D01*
Y0020911D01*
X0019811Y0020956D01*
X0020255D01*
X0064933Y0009222D02*
X0065200Y0009755D01*
X0064844D01*
X0064600Y0009489D02*
X0064244D01*
X0063644Y0009311D02*
X0063733Y0009222D01*
X0063911D01*
X0064000Y0009311D01*
Y0009400D01*
X0063822Y0009578D01*
X0064000Y0009755D01*
X0063644D01*
X0063222Y0009400D02*
X0063400Y0009222D01*
X0063044Y0009311D02*
X0063089Y0009222D01*
X0063267D01*
X0063311Y0009311D01*
X0063400Y0009400D01*
Y0009667D01*
X0063355Y0009755D01*
X0063089D01*
X0063044Y0009667D01*
Y0009311D01*
X0024955Y0026311D02*
X0025044Y0026222D01*
X0025222D01*
X0025311Y0026311D01*
Y0026400D01*
X0025133Y0026578D01*
X0025311Y0026755D01*
X0024955D01*
X0024711Y0026489D02*
X0024355D01*
X0024111Y0026222D02*
X0023933D01*
X0024022D02*
Y0026755D01*
X0023933Y0026667D01*
X0023600Y0026311D02*
X0023555Y0026222D01*
X0023289D01*
X0023244Y0026311D01*
Y0026667D01*
X0023289Y0026755D01*
X0023555D01*
X0023600Y0026667D01*
X0055450Y0012222D02*
X0055094D01*
X0055450Y0012578D01*
Y0012667D01*
X0055405Y0012755D01*
X0055139D01*
X0055094Y0012667D01*
X0054850Y0012489D02*
X0054494D01*
X0053894Y0012311D02*
X0053983Y0012222D01*
X0054161D01*
X0054250Y0012311D01*
Y0012400D01*
X0054072Y0012578D01*
X0054250Y0012755D01*
X0053894D01*
X0053472Y0012400D02*
X0053650Y0012222D01*
X0053294Y0012311D02*
X0053339Y0012222D01*
X0053517D01*
X0053561Y0012311D01*
X0053650Y0012400D01*
Y0012667D01*
X0053605Y0012755D01*
X0053339D01*
X0053294Y0012667D01*
Y0012311D01*
X0027278Y0009511D02*
Y0009155D01*
X0026922Y0009511D01*
X0026833D01*
X0026744Y0009466D01*
Y0009200D01*
X0026833Y0009155D01*
X0027278Y0008911D02*
Y0008733D01*
Y0008822D02*
X0026744D01*
X0026833Y0008733D01*
X0027011Y0008400D02*
Y0008044D01*
X0027100Y0007800D02*
Y0007444D01*
X0026744Y0007622D01*
Y0007711D01*
X0027278D01*
X0027011Y0007067D02*
X0027278Y0007200D01*
X0027011Y0006844D02*
Y0007111D01*
X0026922Y0007200D01*
X0026833D01*
X0026744Y0007111D01*
Y0006844D01*
X0027278D01*
X0009011Y0012616D02*
Y0012350D01*
X0008922Y0012305D01*
X0008833D01*
X0008744Y0012350D01*
Y0012616D01*
X0008833Y0012661D01*
X0008922D01*
X0009278Y0012483D01*
Y0012061D02*
Y0011883D01*
Y0011972D02*
X0008744D01*
X0008833Y0011883D01*
X0009011Y0011550D02*
Y0011194D01*
X0009100Y0010950D02*
Y0010594D01*
X0008744Y0010772D01*
Y0010861D01*
X0009278D01*
X0009011Y0010217D02*
X0009278Y0010350D01*
X0009011Y0009994D02*
Y0010261D01*
X0008922Y0010350D01*
X0008833D01*
X0008744Y0010261D01*
Y0009994D01*
X0009278D01*
X0048222Y0018550D02*
Y0018906D01*
X0048578Y0018550D01*
X0048667D01*
X0048755Y0018594D01*
Y0018861D01*
X0048667Y0018906D01*
X0048489Y0019150D02*
Y0019506D01*
X0048222Y0019750D02*
Y0020106D01*
X0048578Y0019750D01*
X0048667D01*
X0048755Y0019794D01*
Y0020061D01*
X0048667Y0020106D01*
X0048755Y0020350D02*
X0048311D01*
X0048222Y0020394D01*
Y0020661D01*
X0048311Y0020706D01*
X0048755D01*
X0065694Y0019661D02*
X0065739Y0019572D01*
X0066005D01*
X0066050Y0019661D01*
Y0019839D01*
X0065961Y0019928D01*
X0065694D01*
Y0020105D01*
X0066050D01*
X0065450Y0019839D02*
X0065094D01*
X0064850Y0019572D02*
X0064494D01*
X0064850Y0019928D01*
Y0020017D01*
X0064805Y0020105D01*
X0064539D01*
X0064494Y0020017D01*
X0064117Y0019839D02*
X0064250Y0019572D01*
X0063894Y0019839D02*
X0064161D01*
X0064250Y0019928D01*
Y0020017D01*
X0064161Y0020105D01*
X0063894D01*
Y0019572D01*
X0065694Y0022161D02*
X0065783Y0022072D01*
X0065961D01*
X0066050Y0022161D01*
Y0022250D01*
X0065872Y0022428D01*
X0066050Y0022605D01*
X0065694D01*
X0065450Y0022339D02*
X0065094D01*
X0064850Y0022072D02*
X0064494D01*
X0064850Y0022428D01*
Y0022517D01*
X0064805Y0022605D01*
X0064539D01*
X0064494Y0022517D01*
X0064117Y0022339D02*
X0064250Y0022072D01*
X0063894Y0022339D02*
X0064161D01*
X0064250Y0022428D01*
Y0022517D01*
X0064161Y0022605D01*
X0063894D01*
Y0022072D01*
X0065961Y0024572D02*
X0065783D01*
X0065872D02*
Y0025105D01*
X0065783Y0025017D01*
X0065450Y0024839D02*
X0065094D01*
X0064850Y0024572D02*
X0064494D01*
X0064850Y0024928D01*
Y0025017D01*
X0064805Y0025105D01*
X0064539D01*
X0064494Y0025017D01*
X0064117Y0024839D02*
X0064250Y0024572D01*
X0063894Y0024839D02*
X0064161D01*
X0064250Y0024928D01*
Y0025017D01*
X0064161Y0025105D01*
X0063894D01*
Y0024572D01*
X0011222Y0026222D02*
X0011044D01*
X0011133D02*
Y0026755D01*
X0011044Y0026667D01*
X0010711Y0026489D02*
X0010355D01*
X0010111Y0026222D02*
X0009933D01*
X0010022D02*
Y0026755D01*
X0009933Y0026667D01*
X0009600Y0026311D02*
X0009555Y0026222D01*
X0009289D01*
X0009244Y0026311D01*
Y0026667D01*
X0009289Y0026755D01*
X0009555D01*
X0009600Y0026667D01*
X0060561Y0015972D02*
X0060383D01*
X0060472D02*
Y0016505D01*
X0060383Y0016417D01*
X0060050Y0016239D02*
X0059694D01*
X0059094Y0016061D02*
X0059183Y0015972D01*
X0059361D01*
X0059450Y0016061D01*
Y0016150D01*
X0059272Y0016328D01*
X0059450Y0016505D01*
X0059094D01*
X0058717Y0016239D02*
X0058850Y0015972D01*
X0058494Y0016239D02*
X0058761D01*
X0058850Y0016328D01*
Y0016417D01*
X0058761Y0016505D01*
X0058494D01*
Y0015972D01*
X0058700Y0012400D02*
X0058344D01*
X0058522Y0012755D01*
X0058611D01*
Y0012222D01*
X0058100Y0012489D02*
X0057744D01*
X0057144Y0012311D02*
X0057233Y0012222D01*
X0057411D01*
X0057500Y0012311D01*
Y0012400D01*
X0057322Y0012578D01*
X0057500Y0012755D01*
X0057144D01*
X0056722Y0012400D02*
X0056900Y0012222D01*
X0056544Y0012311D02*
X0056589Y0012222D01*
X0056767D01*
X0056811Y0012311D01*
X0056900Y0012400D01*
Y0012667D01*
X0056855Y0012755D01*
X0056589D01*
X0056544Y0012667D01*
Y0012311D01*
X0027011Y0012705D02*
X0026922Y0012750D01*
X0026833D01*
X0026744Y0012705D01*
Y0012439D01*
X0026833Y0012394D01*
X0026922D01*
X0027011Y0012439D01*
Y0012705D01*
X0027100Y0012750D01*
X0027189D01*
X0027278Y0012705D01*
Y0012439D01*
X0027189Y0012394D01*
X0027100D01*
X0027011Y0012439D01*
X0027278Y0012150D02*
Y0011794D01*
X0026922Y0012150D01*
X0026833D01*
X0026744Y0012105D01*
Y0011839D01*
X0026833Y0011794D01*
X0027011Y0011550D02*
Y0011194D01*
X0027100Y0010950D02*
Y0010594D01*
X0026744Y0010772D01*
Y0010861D01*
X0027278D01*
X0027011Y0010217D02*
X0027278Y0010350D01*
X0027011Y0009994D02*
Y0010261D01*
X0026922Y0010350D01*
X0026833D01*
X0026744Y0010261D01*
Y0009994D01*
X0027278D01*
X0002972Y0024422D02*
Y0024600D01*
Y0024511D02*
X0003505D01*
X0003417Y0024600D01*
X0003239Y0024933D02*
Y0025289D01*
X0002972Y0025533D02*
Y0025711D01*
Y0025622D02*
X0003505D01*
X0003417Y0025711D01*
X0003239Y0026400D02*
Y0026133D01*
X0003328Y0026044D01*
X0003417D01*
X0003505Y0026133D01*
Y0026400D01*
X0002972D01*
X0003150Y0026956D02*
X0003061D01*
X0002972Y0026911D01*
Y0026733D01*
X0003061Y0026689D01*
X0003505D01*
Y0026644D02*
Y0026822D01*
X0042222Y0018639D02*
Y0018817D01*
Y0018728D02*
X0042755D01*
X0042667Y0018817D01*
X0042489Y0019150D02*
Y0019506D01*
X0042222Y0019750D02*
Y0020106D01*
X0042578Y0019750D01*
X0042667D01*
X0042755Y0019794D01*
Y0020061D01*
X0042667Y0020106D01*
X0042755Y0020350D02*
X0042311D01*
X0042222Y0020394D01*
Y0020661D01*
X0042311Y0020706D01*
X0042755D01*
X0015011Y0008689D02*
Y0008955D01*
X0015100Y0009000D01*
X0015189D01*
X0015278Y0008955D01*
Y0008689D01*
X0015189Y0008644D01*
X0015100D01*
X0014744Y0008822D01*
X0015011Y0008400D02*
Y0008044D01*
X0015100Y0007800D02*
Y0007444D01*
X0014744Y0007622D01*
Y0007711D01*
X0015278D01*
X0015011Y0007067D02*
X0015278Y0007200D01*
X0015011Y0006844D02*
Y0007111D01*
X0014922Y0007200D01*
X0014833D01*
X0014744Y0007111D01*
Y0006844D01*
X0015278D01*
X0012722Y0018978D02*
Y0019156D01*
Y0019067D02*
X0013255D01*
X0013167Y0019156D01*
X0012989Y0019489D02*
Y0019845D01*
X0012722Y0020089D02*
Y0020267D01*
Y0020178D02*
X0013255D01*
X0013167Y0020267D01*
X0013255Y0020600D02*
X0012811D01*
X0012722Y0020644D01*
Y0020911D01*
X0012811Y0020956D01*
X0013255D01*
X0059500Y0007000D02*
X0062500D01*
X0062750Y0010000D02*
X0065750D01*
X0043000D02*
X0046000D01*
X0005200Y0020300D02*
Y0022600D01*
X0004300D01*
Y0020300D01*
X0005200D01*
X0032450Y0010050D02*
Y0012350D01*
X0031550D01*
Y0010050D01*
X0032450D01*
X0008450D02*
Y0012350D01*
X0007550D01*
Y0010050D01*
X0008450D01*
X0046500Y0010000D02*
X0049500D01*
X0035550Y0009200D02*
Y0006900D01*
X0036450D01*
Y0009200D01*
X0035550D01*
X0061200Y0020650D02*
X0063500D01*
Y0021550D01*
X0061200D01*
Y0020650D01*
X0058100Y0017950D02*
X0055800D01*
Y0017050D01*
X0058100D01*
Y0017950D01*
X0061200Y0018150D02*
X0063500D01*
Y0019050D01*
X0061200D01*
Y0018150D01*
X0036450Y0010050D02*
Y0012350D01*
X0035550D01*
Y0010050D01*
X0036450D01*
X0061200Y0015650D02*
X0063500D01*
Y0016550D01*
X0061200D01*
Y0015650D01*
X0058100Y0020450D02*
X0055800D01*
Y0019550D01*
X0058100D01*
Y0020450D01*
X0025550Y0009200D02*
Y0006900D01*
X0026450D01*
Y0009200D01*
X0025550D01*
X0013550D02*
Y0006900D01*
X0014450D01*
Y0009200D01*
X0013550D01*
X0008750Y0002750D02*
Y0000750D01*
X0012750D01*
Y0002750D01*
X0008750D01*
X0026450Y0010050D02*
Y0012350D01*
X0025550D01*
Y0010050D01*
X0026450D01*
X0058100Y0022950D02*
X0055800D01*
Y0022050D01*
X0058100D01*
Y0022950D01*
X0014450Y0010050D02*
Y0012350D01*
X0013550D01*
Y0010050D01*
X0014450D01*
X0019550Y0009200D02*
Y0006900D01*
X0020450D01*
Y0009200D01*
X0019550D01*
X0030250Y0023500D02*
Y0015500D01*
X0032250D01*
Y0023500D01*
X0031500D01*
Y0023000D01*
X0031000D01*
Y0023500D01*
X0030250D01*
X0038550Y0024100D02*
X0040850D01*
Y0025400D01*
X0038550D01*
Y0024100D01*
X0005200Y0016800D02*
Y0019100D01*
X0004300D01*
Y0016800D01*
X0005200D01*
X0056250Y0007000D02*
X0059250D01*
X0058100Y0025450D02*
X0055800D01*
Y0024550D01*
X0058100D01*
Y0025450D01*
X0020450Y0010050D02*
Y0012350D01*
X0019550D01*
Y0010050D01*
X0020450D01*
X0029550Y0009200D02*
Y0006900D01*
X0030450D01*
Y0009200D01*
X0029550D01*
X0058100Y0024200D02*
X0055800D01*
Y0023300D01*
X0058100D01*
Y0024200D01*
X0005550Y0009200D02*
Y0006900D01*
X0006450D01*
Y0009200D01*
X0005550D01*
X0049750Y0010000D02*
X0052750D01*
X0030450Y0010050D02*
Y0012350D01*
X0029550D01*
Y0010050D01*
X0030450D01*
X0011550Y0009200D02*
Y0006900D01*
X0012450D01*
Y0009200D01*
X0011550D01*
X0061200Y0016900D02*
X0063500D01*
Y0017800D01*
X0061200D01*
Y0016900D01*
X0049750Y0007000D02*
X0052750D01*
X0006450Y0010050D02*
Y0012350D01*
X0005550D01*
Y0010050D01*
X0006450D01*
X0053000Y0007000D02*
X0056000D01*
X0058100Y0021700D02*
X0055800D01*
Y0020800D01*
X0058100D01*
Y0021700D01*
X0033550Y0009200D02*
Y0006900D01*
X0034450D01*
Y0009200D01*
X0033550D01*
X0046500Y0007000D02*
X0049500D01*
X0012450Y0010050D02*
Y0012350D01*
X0011550D01*
Y0010050D01*
X0012450D01*
X0023550Y0009200D02*
Y0006900D01*
X0024450D01*
Y0009200D01*
X0023550D01*
X0043000Y0007000D02*
X0046000D01*
X0058100Y0019200D02*
X0055800D01*
Y0018300D01*
X0058100D01*
Y0019200D01*
X0034450Y0010050D02*
Y0012350D01*
X0033550D01*
Y0010050D01*
X0034450D01*
X0023250Y0023500D02*
Y0015500D01*
X0025250D01*
Y0023500D01*
X0024500D01*
Y0023000D01*
X0024000D01*
Y0023500D01*
X0023250D01*
X0017550Y0009200D02*
Y0006900D01*
X0018450D01*
Y0009200D01*
X0017550D01*
X0050500Y0023250D02*
Y0016250D01*
X0052500D01*
Y0023250D01*
X0051750D01*
Y0022750D01*
X0051250D01*
Y0023250D01*
X0050500D01*
X0024450Y0010050D02*
Y0012350D01*
X0023550D01*
Y0010050D01*
X0024450D01*
X0039250Y0007000D02*
X0042250D01*
X0018450Y0010050D02*
Y0012350D01*
X0017550D01*
Y0010050D01*
X0018450D01*
X0030300Y0024350D02*
X0032600D01*
Y0025650D01*
X0030300D01*
Y0024350D01*
X0044550Y0024100D02*
X0046850D01*
Y0025400D01*
X0044550D01*
Y0024100D01*
X0016300Y0024350D02*
X0018600D01*
Y0025650D01*
X0016300D01*
Y0024350D01*
X0061250Y0023200D02*
X0063550D01*
Y0024100D01*
X0061250D01*
Y0023200D01*
X0009550Y0009200D02*
Y0006900D01*
X0010450D01*
Y0009200D01*
X0009550D01*
X0016250Y0023500D02*
Y0015500D01*
X0018250D01*
Y0023500D01*
X0017500D01*
Y0023000D01*
X0017000D01*
Y0023500D01*
X0016250D01*
X0062750Y0007000D02*
X0065750D01*
X0023300Y0024350D02*
X0025600D01*
Y0025650D01*
X0023300D01*
Y0024350D01*
X0053000Y0010000D02*
X0056000D01*
X0027550Y0009200D02*
Y0006900D01*
X0028450D01*
Y0009200D01*
X0027550D01*
X0010450Y0010050D02*
Y0012350D01*
X0009550D01*
Y0010050D01*
X0010450D01*
X0044500Y0023250D02*
Y0016250D01*
X0046500D01*
Y0023250D01*
X0045750D01*
Y0022750D01*
X0045250D01*
Y0023250D01*
X0044500D01*
X0061200Y0019400D02*
X0063500D01*
Y0020300D01*
X0061200D01*
Y0019400D01*
Y0021900D02*
X0063500D01*
Y0022800D01*
X0061200D01*
Y0021900D01*
Y0024400D02*
X0063500D01*
Y0025300D01*
X0061200D01*
Y0024400D01*
X0009300Y0024350D02*
X0011600D01*
Y0025650D01*
X0009300D01*
Y0024350D01*
X0058100Y0016700D02*
X0055800D01*
Y0015800D01*
X0058100D01*
Y0016700D01*
X0056250Y0010000D02*
X0059250D01*
X0028450Y0010050D02*
Y0012350D01*
X0027550D01*
Y0010050D01*
X0028450D01*
X0000750Y0026750D02*
X0002750D01*
Y0016750D01*
X0000750D01*
Y0026750D01*
X0038500Y0023250D02*
Y0016250D01*
X0040500D01*
Y0023250D01*
X0039750D01*
Y0022750D01*
X0039250D01*
Y0023250D01*
X0038500D01*
X0015550Y0009200D02*
Y0006900D01*
X0016450D01*
Y0009200D01*
X0015550D01*
X0009250Y0023500D02*
Y0015500D01*
X0011250D01*
Y0023500D01*
X0010500D01*
Y0023000D01*
X0010000D01*
Y0023500D01*
X0009250D01*
X0021550Y0009200D02*
Y0006900D01*
X0022450D01*
Y0009200D01*
X0021550D01*
X0050550Y0024100D02*
X0052850D01*
Y0025400D01*
X0050550D01*
Y0024100D01*
X0059500Y0010000D02*
X0062500D01*
X0039250D02*
X0042250D01*
X0031550Y0009200D02*
Y0006900D01*
X0032450D01*
Y0009200D01*
X0031550D01*
X0007550D02*
Y0006900D01*
X0008450D01*
Y0009200D01*
X0007550D01*
X0016450Y0010050D02*
Y0012350D01*
X0015550D01*
Y0010050D01*
X0016450D01*
X0022450D02*
Y0012350D01*
X0021550D01*
Y0010050D01*
X0022450D01*
G01X0059449Y0007393D02*
G03X0059500Y0007000I0001551J0000000D01*
G01X0061000Y0008944D02*
G03X0059449Y0007393I0000000J0001551D01*
G01X0062551D02*
G03X0061000Y0008944I0001551J0000000D01*
G01X0062500Y0007000D02*
G03X0062551Y0007393I0001500J0000393D01*
G01X0062699Y0010393D02*
G03X0062750Y0010000I0001551J0000000D01*
G01X0064250Y0011944D02*
G03X0062699Y0010393I0000000J0001551D01*
G01X0065801D02*
G03X0064250Y0011944I0001551J0000000D01*
G01X0065750Y0010000D02*
G03X0065801Y0010393I0001500J0000393D01*
G01X0042949D02*
G03X0043000Y0010000I0001551J0000000D01*
G01X0044500Y0011944D02*
G03X0042949Y0010393I0000000J0001551D01*
G01X0046051D02*
G03X0044500Y0011944I0001551J0000000D01*
G01X0046000Y0010000D02*
G03X0046051Y0010393I0001500J0000393D01*
G01X0046449D02*
G03X0046500Y0010000I0001551J0000000D01*
G01X0048000Y0011944D02*
G03X0046449Y0010393I0000000J0001551D01*
G01X0049551D02*
G03X0048000Y0011944I0001551J0000000D01*
G01X0049500Y0010000D02*
G03X0049551Y0010393I0001500J0000393D01*
G01X0056199Y0007393D02*
G03X0056250Y0007000I0001551J0000000D01*
G01X0057750Y0008944D02*
G03X0056199Y0007393I0000000J0001551D01*
G01X0059301D02*
G03X0057750Y0008944I0001551J0000000D01*
G01X0059250Y0007000D02*
G03X0059301Y0007393I0001500J0000393D01*
G01X0049699Y0010393D02*
G03X0049750Y0010000I0001551J0000000D01*
G01X0051250Y0011944D02*
G03X0049699Y0010393I0000000J0001551D01*
G01X0052801D02*
G03X0051250Y0011944I0001551J0000000D01*
G01X0052750Y0010000D02*
G03X0052801Y0010393I0001500J0000393D01*
G01X0049699Y0007393D02*
G03X0049750Y0007000I0001551J0000000D01*
G01X0051250Y0008944D02*
G03X0049699Y0007393I0000000J0001551D01*
G01X0052801D02*
G03X0051250Y0008944I0001551J0000000D01*
G01X0052750Y0007000D02*
G03X0052801Y0007393I0001500J0000393D01*
G01X0052949D02*
G03X0053000Y0007000I0001551J0000000D01*
G01X0054500Y0008944D02*
G03X0052949Y0007393I0000000J0001551D01*
G01X0056051D02*
G03X0054500Y0008944I0001551J0000000D01*
G01X0056000Y0007000D02*
G03X0056051Y0007393I0001500J0000393D01*
G01X0046449D02*
G03X0046500Y0007000I0001551J0000000D01*
G01X0048000Y0008944D02*
G03X0046449Y0007393I0000000J0001551D01*
G01X0049551D02*
G03X0048000Y0008944I0001551J0000000D01*
G01X0049500Y0007000D02*
G03X0049551Y0007393I0001500J0000393D01*
G01X0042949D02*
G03X0043000Y0007000I0001551J0000000D01*
G01X0044500Y0008944D02*
G03X0042949Y0007393I0000000J0001551D01*
G01X0046051D02*
G03X0044500Y0008944I0001551J0000000D01*
G01X0046000Y0007000D02*
G03X0046051Y0007393I0001500J0000393D01*
G01X0039199D02*
G03X0039250Y0007000I0001551J0000000D01*
G01X0040750Y0008944D02*
G03X0039199Y0007393I0000000J0001551D01*
G01X0042301D02*
G03X0040750Y0008944I0001551J0000000D01*
G01X0042250Y0007000D02*
G03X0042301Y0007393I0001500J0000393D01*
G01X0062699D02*
G03X0062750Y0007000I0001551J0000000D01*
G01X0064250Y0008944D02*
G03X0062699Y0007393I0000000J0001551D01*
G01X0065801D02*
G03X0064250Y0008944I0001551J0000000D01*
G01X0065750Y0007000D02*
G03X0065801Y0007393I0001500J0000393D01*
G01X0052949Y0010393D02*
G03X0053000Y0010000I0001551J0000000D01*
G01X0054500Y0011944D02*
G03X0052949Y0010393I0000000J0001551D01*
G01X0056051D02*
G03X0054500Y0011944I0001551J0000000D01*
G01X0056000Y0010000D02*
G03X0056051Y0010393I0001500J0000393D01*
G01X0056199D02*
G03X0056250Y0010000I0001551J0000000D01*
G01X0057750Y0011944D02*
G03X0056199Y0010393I0000000J0001551D01*
G01X0059301D02*
G03X0057750Y0011944I0001551J0000000D01*
G01X0059250Y0010000D02*
G03X0059301Y0010393I0001500J0000393D01*
G01X0059449D02*
G03X0059500Y0010000I0001551J0000000D01*
G01X0061000Y0011944D02*
G03X0059449Y0010393I0000000J0001551D01*
G01X0062551D02*
G03X0061000Y0011944I0001551J0000000D01*
G01X0062500Y0010000D02*
G03X0062551Y0010393I0001500J0000393D01*
G01X0039199D02*
G03X0039250Y0010000I0001551J0000000D01*
G01X0040750Y0011944D02*
G03X0039199Y0010393I0000000J0001551D01*
G01X0042301D02*
G03X0040750Y0011944I0001551J0000000D01*
G01X0042250Y0010000D02*
G03X0042301Y0010393I0001500J0000393D01*
M02*
