*
G04 Mass Parameters ***
*
G04 Image ***
*
%INC:\TRAVAIL\CARTE IO-I2C\LAYOUT\CARTEIOI2C-1.SMB*%
%ICAS*%
%MOIN*%
%IPPOS*%
%ASAXBY*%
G74*%FSLAN2X34Y34*%
*
G04 Aperture Definitions ***
*
%ADD10R,0.0650X0.1000*%
%ADD11C,0.0700*%
%ADD12R,0.0700X0.0700*%
%ADD13C,0.1000*%
%ADD14C,0.2500*%
%ADD15O,0.0500X0.1000*%
%ADD16R,0.0500X0.1000*%
%ADD17R,0.0650X0.0650*%
%ADD18O,0.1000X0.0500*%
%ADD19R,0.1000X0.0500*%
%ADD20C,0.0200*%
%ADD21C,0.0300*%
%ADD22C,0.0750*%
%ADD23C,0.0100*%
%ADD24C,0.0750*%
%ADD25R,0.0700X0.1050*%
%ADD26C,0.0800*%
%ADD27R,0.0800X0.0800*%
%ADD28C,0.1100*%
%ADD29C,0.2600*%
%ADD30O,0.0600X0.1100*%
%ADD31R,0.0600X0.1100*%
%ADD32O,0.1100X0.0600*%
%ADD33R,0.1100X0.0600*%
%ADD34C,0.0850*%
*
G04 Plot Data ***
*
G54D26*
X0002250Y0026250D03*
X0001250Y0025250D03*
X0002250D03*
X0001250Y0024250D03*
X0002250D03*
X0001250Y0023250D03*
X0002250D03*
X0001250Y0022250D03*
X0002250D03*
X0001250Y0021250D03*
Y0020250D03*
X0002250D03*
X0001250Y0019250D03*
Y0018250D03*
X0002250D03*
X0001250Y0017250D03*
X0002250D03*
G54D27*
X0001250Y0026250D03*
G54D28*
X0015500Y0002750D03*
X0016500Y0001750D03*
X0017500Y0002750D03*
X0018500Y0001750D03*
X0019500Y0002750D03*
X0020500Y0001750D03*
X0021500Y0002750D03*
X0022500Y0001750D03*
X0023500Y0002750D03*
X0024500Y0001750D03*
X0025500Y0002750D03*
X0026500Y0001750D03*
X0027500Y0002750D03*
X0028500Y0001750D03*
X0029500Y0002750D03*
X0030500Y0001750D03*
X0045000Y0002750D03*
X0046000Y0001750D03*
X0047000Y0002750D03*
X0048000Y0001750D03*
X0049000Y0002750D03*
X0050000Y0001750D03*
X0051000Y0002750D03*
X0052000Y0001750D03*
X0053000Y0002750D03*
X0054000Y0001750D03*
X0055000Y0002750D03*
X0056000Y0001750D03*
X0057000Y0002750D03*
X0058000Y0001750D03*
X0059000Y0002750D03*
X0060000Y0001750D03*
X0009750D03*
X0011750D03*
G54D29*
X0067000Y0025250D03*
Y0002000D03*
X0005500Y0025250D03*
Y0002000D03*
G54D30*
X0064250Y0010500D03*
X0065250D03*
X0064250Y0007500D03*
X0065250D03*
X0061000Y0010500D03*
X0062000D03*
X0061000Y0007500D03*
X0062000D03*
X0057750Y0010500D03*
X0058750D03*
X0057750Y0007500D03*
X0058750D03*
X0054500Y0010500D03*
X0055500D03*
X0054500Y0007500D03*
X0055500D03*
X0051250Y0010500D03*
X0052250D03*
X0051250Y0007500D03*
X0052250D03*
X0048000Y0010500D03*
X0049000D03*
X0048000Y0007500D03*
X0049000D03*
X0044500Y0010500D03*
X0045500D03*
X0044500Y0007500D03*
X0045500D03*
X0040750Y0010500D03*
X0041750D03*
X0040750Y0007500D03*
X0041750D03*
G54D31*
X0063250Y0010500D03*
Y0007500D03*
X0060000Y0010500D03*
Y0007500D03*
X0056750Y0010500D03*
Y0007500D03*
X0053500Y0010500D03*
Y0007500D03*
X0050250Y0010500D03*
Y0007500D03*
X0047000Y0010500D03*
Y0007500D03*
X0043500Y0010500D03*
Y0007500D03*
X0039750Y0010500D03*
Y0007500D03*
G54D32*
X0050000Y0021750D03*
Y0020750D03*
Y0019750D03*
Y0018750D03*
Y0017750D03*
Y0016750D03*
X0053000D03*
Y0017750D03*
Y0018750D03*
Y0019750D03*
Y0020750D03*
Y0021750D03*
Y0022750D03*
X0044000Y0021750D03*
Y0020750D03*
Y0019750D03*
Y0018750D03*
Y0017750D03*
Y0016750D03*
X0047000D03*
Y0017750D03*
Y0018750D03*
Y0019750D03*
Y0020750D03*
Y0021750D03*
Y0022750D03*
X0038000Y0021750D03*
Y0020750D03*
Y0019750D03*
Y0018750D03*
Y0017750D03*
Y0016750D03*
X0041000D03*
Y0017750D03*
Y0018750D03*
Y0019750D03*
Y0020750D03*
Y0021750D03*
Y0022750D03*
X0029750Y0022000D03*
Y0021000D03*
Y0020000D03*
Y0019000D03*
Y0018000D03*
Y0017000D03*
Y0016000D03*
X0032750D03*
Y0017000D03*
Y0018000D03*
Y0019000D03*
Y0020000D03*
Y0021000D03*
Y0022000D03*
Y0023000D03*
X0022750Y0022000D03*
Y0021000D03*
Y0020000D03*
Y0019000D03*
Y0018000D03*
Y0017000D03*
Y0016000D03*
X0025750D03*
Y0017000D03*
Y0018000D03*
Y0019000D03*
Y0020000D03*
Y0021000D03*
Y0022000D03*
Y0023000D03*
X0015750Y0022000D03*
Y0021000D03*
Y0020000D03*
Y0019000D03*
Y0018000D03*
Y0017000D03*
Y0016000D03*
X0018750D03*
Y0017000D03*
Y0018000D03*
Y0019000D03*
Y0020000D03*
Y0021000D03*
Y0022000D03*
Y0023000D03*
X0008750Y0022000D03*
Y0021000D03*
Y0020000D03*
Y0019000D03*
Y0018000D03*
Y0017000D03*
Y0016000D03*
X0011750D03*
Y0017000D03*
Y0018000D03*
Y0019000D03*
Y0020000D03*
Y0021000D03*
Y0022000D03*
Y0023000D03*
G54D33*
X0050000Y0022750D03*
X0044000D03*
X0038000D03*
X0029750Y0023000D03*
X0022750D03*
X0015750D03*
X0008750D03*
G54D34*
X0030000Y0012750D03*
X0003500Y0018250D03*
X0011750Y0013500D03*
X0025000Y0010500D03*
X0003500Y0023250D03*
X0055000Y0025250D03*
X0027500Y0018750D03*
X0014500Y0019500D03*
X0026000Y0012750D03*
X0035750Y0013750D03*
X0032000Y0012750D03*
X0014750Y0014750D03*
X0012750Y0015750D03*
X0048000Y0025500D03*
X0040500Y0026000D03*
X0044500Y0015000D03*
X0064500Y0023500D03*
X0060000Y0024000D03*
X0058500Y0025500D03*
X0043250D03*
X0045500Y0021000D03*
X0060500D03*
X0038000Y0025500D03*
X0062250Y0026000D03*
X0021250Y0014750D03*
X0059250Y0023500D03*
X0020750Y0013250D03*
Y0011250D03*
X0021000Y0010000D03*
X0036500Y0025250D03*
X0059000Y0022000D03*
X0055250Y0018750D03*
X0038000Y0024000D03*
X0020750Y0018000D03*
X0055250Y0020750D03*
X0044500Y0013000D03*
X0036000Y0023750D03*
X0059500Y0009250D03*
X0052000Y0015250D03*
X0034500Y0016500D03*
X0050500Y0014500D03*
X0053500Y0014250D03*
X0056250Y0015000D03*
X0045500Y0019250D03*
X0058500Y0015250D03*
X0052500Y0016000D03*
X0064000Y0024250D03*
X0047500Y0024750D03*
X0060000Y0005500D03*
X0059250Y0018000D03*
X0023750Y0015000D03*
X0035500Y0022750D03*
X0035250Y0008000D03*
X0044750Y0008750D03*
X0045250Y0022500D03*
X0016750Y0008000D03*
Y0016000D03*
X0035500Y0020750D03*
X0034750Y0020250D03*
X0039750Y0021750D03*
X0031250Y0022500D03*
X0034000Y0013250D03*
X0048000D03*
X0043000Y0013750D03*
X0038250Y0013250D03*
X0040750Y0013750D03*
M02*
