*
G04 Mass Parameters ***
*
G04 Image ***
*
%INC:\TRAVAIL\CARTE IO-I2C\LAYOUT\CARTEIOI2C-1.BOT*%
%ICAS*%
%MOIN*%
%IPPOS*%
%ASAXBY*%
G74*%FSLAN2X34Y34*%
*
G04 Aperture Definitions ***
*
%ADD10R,0.0650X0.1000*%
%ADD11C,0.0700*%
%ADD12R,0.0700X0.0700*%
%ADD13C,0.1000*%
%ADD14C,0.2500*%
%ADD15O,0.0500X0.1000*%
%ADD16R,0.0500X0.1000*%
%ADD17R,0.0650X0.0650*%
%ADD18O,0.1000X0.0500*%
%ADD19R,0.1000X0.0500*%
%ADD20C,0.0200*%
%ADD21C,0.0300*%
%ADD22C,0.0750*%
%ADD23C,0.0100*%
%ADD24C,0.0750*%
*
G04 Plot Data ***
*
G54D20*
G01X0018750Y0023000D02*
X0015750D01*
X0011750D01*
X0029750D02*
X0025750D01*
X0029750D02*
X0030500Y0023750D01*
X0031750D01*
X0032500Y0023000D01*
X0032750D01*
X0025750D02*
X0025000D01*
X0024500Y0023500D01*
X0022000D01*
X0021500Y0023000D01*
X0018750D01*
X0053000Y0022750D02*
X0051250D01*
X0050750Y0023250D01*
X0049250D01*
X0048750Y0022750D01*
X0047000D01*
X0046000D01*
X0045500Y0023250D01*
X0042250D01*
X0041750Y0022750D01*
X0041000D01*
X0015750Y0022000D02*
X0014000D01*
X0013500Y0021500D01*
X0010500D01*
X0010000Y0022000D01*
X0008750D01*
X0044500Y0015000D02*
X0045075D01*
X0045325Y0015250D01*
X0052000D01*
X0064500Y0023500D02*
X0060500D01*
X0060000Y0024000D01*
X0058500Y0025500D02*
X0057750Y0026250D01*
X0044000D01*
X0043250Y0025500D01*
X0041000Y0018750D02*
X0042500D01*
X0043000Y0019250D01*
X0045500D01*
Y0021000D02*
X0046075D01*
X0046325Y0021250D01*
X0053500D01*
X0054250Y0022000D01*
X0055750D01*
X0056750Y0021000D01*
X0060500D01*
X0038000Y0025500D02*
X0039250Y0026750D01*
X0061500D01*
X0062250Y0026000D01*
X0018750Y0017000D02*
X0020750D01*
X0021250Y0016500D01*
Y0014750D01*
X0059250Y0023500D02*
X0064250Y0018500D01*
Y0010500D01*
X0020750Y0013250D02*
Y0011250D01*
X0021000Y0010000D02*
X0017500Y0013500D01*
Y0019500D01*
X0017000Y0020000D01*
X0015750D01*
X0036500Y0025250D02*
X0037000Y0024750D01*
X0038250D01*
X0038750Y0024250D01*
X0046750D01*
X0047000Y0024000D01*
X0048250D01*
X0048500Y0024250D01*
X0053750D01*
X0054250Y0023750D01*
X0057250D01*
X0059000Y0022000D01*
X0050000Y0017750D02*
X0051000D01*
X0051500Y0018250D01*
X0054750D01*
X0055250Y0018750D01*
X0061000Y0010500D02*
Y0019500D01*
X0060500Y0020000D01*
X0057000D01*
X0055500Y0021500D01*
X0055000D01*
X0054250Y0020750D01*
X0053000D01*
X0022750Y0020000D02*
X0021250D01*
X0020750Y0020500D01*
X0007750D01*
X0007250Y0021000D01*
Y0023250D01*
X0007750Y0023750D01*
X0021500D01*
X0022250Y0024500D01*
X0036500D01*
X0036750Y0024250D01*
X0037750D01*
X0038000Y0024000D01*
X0032750Y0022000D02*
X0032250D01*
X0032000Y0022250D01*
Y0022750D01*
X0031500Y0023250D01*
X0031125D01*
X0030375Y0022500D01*
X0028250D01*
X0027750Y0022000D01*
X0025750D01*
X0032750Y0021000D02*
X0031000D01*
X0030500Y0020500D01*
X0029000D01*
X0028500Y0021000D01*
X0025750D01*
X0038000Y0018750D02*
X0034500D01*
X0033750Y0019500D01*
X0029250D01*
X0028250Y0020500D01*
X0025250D01*
X0023750Y0019000D01*
X0022750D01*
X0060000Y0001750D02*
X0062500Y0004250D01*
Y0008500D01*
X0063250Y0009250D01*
Y0010500D01*
X0018750Y0021000D02*
X0017500D01*
X0017000Y0021500D01*
X0014000D01*
X0013500Y0021000D01*
X0011750D01*
X0018750Y0022000D02*
X0017500D01*
X0017000Y0022500D01*
X0014000D01*
X0013500Y0022000D01*
X0011750D01*
X0020750Y0018000D02*
X0018750D01*
X0025750Y0021000D02*
X0024750D01*
X0024250Y0020500D01*
X0022000D01*
X0021500Y0021000D01*
X0018750D01*
X0050000Y0019750D02*
X0051000D01*
X0051500Y0020250D01*
X0054750D01*
X0055250Y0020750D01*
X0044500Y0013000D02*
X0045250D01*
X0045750Y0012500D01*
X0050750D01*
X0051000Y0012250D01*
X0051250D01*
Y0010500D01*
X0053000Y0021750D02*
X0053750Y0022500D01*
Y0023250D01*
X0053250Y0023750D01*
X0049250D01*
X0049000Y0023500D01*
X0047000D01*
X0046750Y0023750D01*
X0039250D01*
X0038750Y0023250D01*
X0036500D01*
X0036000Y0023750D01*
X0056750Y0010500D02*
Y0009500D01*
X0057250Y0009000D01*
Y0007000D01*
X0058000Y0006250D01*
Y0001750D01*
X0059500Y0009250D02*
Y0015750D01*
X0059000Y0016250D01*
X0054750D01*
X0053750Y0015250D01*
X0052000D01*
X0034500Y0016500D02*
X0036000D01*
X0037500Y0015000D01*
X0042750D01*
X0043500Y0014250D01*
X0049675D01*
X0049925Y0014500D01*
X0050500D01*
X0053500Y0014250D02*
X0055500D01*
X0056250Y0015000D01*
X0045500Y0019250D02*
X0043000D01*
X0042500Y0018750D01*
X0041000D01*
X0057000Y0002750D02*
Y0005000D01*
X0056250Y0005750D01*
Y0010750D01*
X0055750Y0011250D01*
X0053750D01*
X0053500Y0011000D01*
Y0010500D01*
X0058500Y0015250D02*
X0056000Y0012750D01*
X0051750D01*
X0051250Y0012250D01*
Y0010500D01*
X0052500Y0016000D02*
X0051000D01*
X0050750Y0015750D01*
X0043500D01*
X0043250Y0015500D01*
X0038250D01*
X0036500Y0017250D01*
X0034250D01*
X0034000Y0017000D01*
X0032750D01*
X0061000Y0007500D02*
Y0009250D01*
X0060500Y0009750D01*
Y0019000D01*
X0060000Y0019500D01*
X0055000D01*
X0054250Y0018750D01*
X0053000D01*
X0063250Y0007500D02*
Y0001500D01*
X0062750Y0001000D01*
X0057500D01*
X0056750Y0001750D01*
X0056000D01*
X0064000Y0024250D02*
X0061500D01*
X0061000Y0024750D01*
X0059500D01*
X0059000Y0024250D01*
X0054250D01*
X0053750Y0024750D01*
X0047500D01*
X0029750Y0018000D02*
X0030750D01*
X0031250Y0017500D01*
X0033500D01*
X0033750Y0017750D01*
X0037000D01*
X0037500Y0017250D01*
X0039250D01*
X0040250Y0018250D01*
X0050500D01*
X0052000Y0019750D01*
X0053000D01*
X0060000Y0007500D02*
Y0005500D01*
X0059250Y0018000D02*
X0058500Y0017250D01*
X0042000D01*
X0041500Y0016750D01*
X0041000D01*
X0018750Y0019000D02*
X0021750D01*
X0022250Y0018500D01*
X0023250D01*
X0023750Y0018000D01*
Y0015000D01*
X0029750Y0019000D02*
X0030750D01*
X0031250Y0018500D01*
X0033750D01*
X0034000Y0018250D01*
X0039250D01*
X0040250Y0019250D01*
X0041750D01*
X0042750Y0020250D01*
X0045500D01*
X0046500Y0019250D01*
X0047750D01*
X0048250Y0018750D01*
X0050000D01*
X0035500Y0022750D02*
X0036250D01*
X0036750Y0022250D01*
X0038750D01*
X0039000Y0022500D01*
X0040000D01*
X0040250Y0022250D01*
X0041750D01*
X0042250Y0022750D01*
X0044000D01*
X0035250Y0008000D02*
X0030500Y0003250D01*
Y0001750D01*
X0059000Y0002750D02*
Y0006500D01*
X0059500Y0007000D01*
Y0008250D01*
X0060125Y0008875D01*
Y0009625D01*
X0060000Y0009750D01*
Y0010500D01*
X0044750Y0008750D02*
X0050750D01*
X0051250Y0008250D01*
Y0007500D01*
X0041000Y0020750D02*
X0041750D01*
X0043250Y0022250D01*
X0045000D01*
X0045250Y0022500D01*
X0045000Y0002750D02*
X0040250D01*
X0039750Y0003250D01*
Y0007500D01*
X0016750Y0008000D02*
Y0016000D01*
X0049000Y0002750D02*
X0047000Y0004750D01*
X0042750D01*
X0042250Y0005250D01*
Y0008500D01*
X0041750Y0009000D01*
X0040250D01*
X0039750Y0009500D01*
Y0010500D01*
X0029750Y0020000D02*
X0031250D01*
X0031750Y0020500D01*
X0033500D01*
X0034750Y0019250D01*
X0039250D01*
X0040250Y0020250D01*
X0042250D01*
X0043250Y0021250D01*
X0044750D01*
X0045250Y0021750D01*
X0045750D01*
X0046250Y0022250D01*
X0048750D01*
X0049250Y0022750D01*
X0050000D01*
X0041000Y0021750D02*
X0040750D01*
X0039250Y0020250D01*
X0036000D01*
X0035500Y0020750D01*
X0034750Y0020250D02*
Y0021000D01*
X0035250Y0021500D01*
X0036000D01*
X0036750Y0020750D01*
X0038000D01*
X0039750Y0021750D02*
X0039250Y0021250D01*
X0037250D01*
X0036500Y0022000D01*
X0034750D01*
X0034250Y0021500D01*
X0031750D01*
X0031250Y0022000D01*
Y0022500D01*
X0034000Y0013250D02*
X0035000Y0012250D01*
X0042750D01*
X0044250Y0013750D01*
X0047500D01*
X0048000Y0013250D01*
X0025750Y0022000D02*
X0023750D01*
X0023250Y0021500D01*
X0022000D01*
X0021500Y0022000D01*
X0018750D01*
X0043000Y0013750D02*
X0042250Y0013000D01*
X0040500D01*
X0039500Y0014000D01*
X0037000D01*
X0036000Y0015000D01*
X0032500D01*
X0030500Y0017000D01*
X0029750D01*
X0025750D02*
X0027250D01*
X0029750Y0014500D01*
X0036000D01*
X0037250Y0013250D01*
X0038250D01*
X0025750Y0019000D02*
X0026750D01*
X0027250Y0019500D01*
X0028000D01*
X0028500Y0019000D01*
Y0018000D01*
X0029000Y0017500D01*
X0030500D01*
X0031500Y0016500D01*
X0033250D01*
X0034250Y0015500D01*
X0036500D01*
X0037500Y0014500D01*
X0040000D01*
X0040750Y0013750D01*
X0026701Y0002700D02*
X0026298D01*
X0028283Y0002520D02*
X0028266D01*
X0024710Y0002880D02*
X0024289D01*
X0023701Y0001800D02*
X0023298D01*
X0025701D02*
X0025298D01*
X0022710Y0002880D02*
X0022289D01*
X0021734Y0001980D02*
X0021717D01*
X0021780Y0001401D02*
Y0000000D01*
X0019701Y0001800D02*
X0019298D01*
X0022701Y0002700D02*
X0022298D01*
X0020710Y0002880D02*
X0020289D01*
X0018720Y0002572D02*
Y0002519D01*
X0017701Y0001800D02*
X0017298D01*
X0017280Y0001981D02*
Y0001928D01*
X0015734Y0001980D02*
X0015717D01*
X0014763Y0005400D02*
X0003500D01*
X0014960Y0002160D02*
X0012796D01*
X0065908Y0000900D02*
X0063216D01*
X0016200Y0007609D02*
Y0006836D01*
X0057600Y0000600D02*
Y0000000D01*
X0053234Y0001980D02*
X0053217D01*
X0052783D02*
X0052766D01*
X0053201Y0001800D02*
X0052798D01*
X0049201D02*
X0048798D01*
X0051201D02*
X0050798D01*
X0046800Y0012100D02*
Y0011300D01*
X0045234Y0001980D02*
X0045217D01*
X0047234D02*
X0047217D01*
X0043380Y0002350D02*
Y0000000D01*
X0012240Y0013036D02*
Y0002876D01*
X0000900Y0016702D02*
Y0016000D01*
X0008460Y0015451D02*
Y0000000D01*
X0001080Y0016622D02*
Y0016000D01*
X0002873Y0018000D02*
X0002850D01*
X0002880Y0020090D02*
Y0018517D01*
X0001260Y0016600D02*
Y0016000D01*
X0001801Y0018720D02*
X0001699D01*
X0001800Y0018903D02*
Y0018719D01*
X0001440Y0016628D02*
Y0016000D01*
X0007344Y0020340D02*
X0002894D01*
X0002090Y0019620D02*
X0001784D01*
X0009180Y0001188D02*
Y0000000D01*
X0001800Y0016781D02*
Y0016000D01*
X0007380Y0020304D02*
Y0000000D01*
X0002160Y0016606D02*
Y0016000D01*
X0001762Y0022680D02*
X0001737D01*
X0006879Y0023400D02*
X0004158D01*
X0016560Y0021100D02*
Y0020900D01*
X0002340Y0016606D02*
Y0016000D01*
X0004275Y0024300D02*
X0002898D01*
X0004102Y0025920D02*
X0002810D01*
X0000690Y0016920D02*
X0000000D01*
X0002520Y0016659D02*
Y0016000D01*
X0003955Y0025380D02*
X0002887D01*
X0000600Y0026900D02*
Y0025600D01*
X0004155Y0024480D02*
X0002858D01*
X0001900Y0026900D02*
X0000600D01*
X0069000Y0000000D02*
X0004250D01*
X0069000Y0027250D02*
Y0000000D01*
Y0027250D02*
X0000000D01*
Y0016000D01*
X0003500D02*
X0000000D01*
X0003500D02*
Y0000000D01*
X0004250D02*
X0003500D01*
X0068940Y0027250D02*
Y0000000D01*
X0068760Y0027250D02*
Y0000000D01*
X0068580Y0027250D02*
Y0000000D01*
X0068400Y0001335D02*
Y0000000D01*
X0068220Y0001044D02*
Y0000000D01*
X0068040Y0000851D02*
Y0000000D01*
X0067860Y0000710D02*
Y0000000D01*
X0067680Y0000607D02*
Y0000000D01*
X0067500Y0000533D02*
Y0000000D01*
X0067320Y0000483D02*
Y0000000D01*
X0067140Y0000456D02*
Y0000000D01*
X0066960Y0000450D02*
Y0000000D01*
X0066780Y0000466D02*
Y0000000D01*
X0066600Y0000502D02*
Y0000000D01*
X0066420Y0000562D02*
Y0000000D01*
X0066240Y0000649D02*
Y0000000D01*
X0066060Y0000767D02*
Y0000000D01*
X0065880Y0000928D02*
Y0000000D01*
X0065520Y0006771D02*
Y0002460D01*
Y0001539D02*
Y0000000D01*
X0065340Y0006707D02*
Y0000000D01*
X0065160Y0006707D02*
Y0000000D01*
X0069000Y0007200D02*
X0065798D01*
X0063180Y0000864D02*
Y0000000D01*
X0064620Y0006843D02*
Y0000000D01*
X0064440Y0006734D02*
Y0000000D01*
X0064260Y0006700D02*
Y0000000D01*
X0063900Y0006826D02*
Y0000000D01*
X0065497Y0001620D02*
X0063650D01*
X0062100Y0000600D02*
Y0000000D01*
X0065450Y0001980D02*
X0063650D01*
X0062820Y0000606D02*
Y0000000D01*
X0062640Y0000600D02*
Y0000000D01*
X0062460Y0000600D02*
Y0000000D01*
X0062280Y0000600D02*
Y0000000D01*
X0063360Y0001044D02*
Y0000000D01*
X0063540Y0001224D02*
Y0000000D01*
X0063720Y0006700D02*
Y0000000D01*
X0061380Y0000600D02*
Y0000000D01*
X0056650Y0001284D02*
X0057215Y0000719D01*
X0056700Y0001234D02*
Y0000000D01*
X0060120Y0000600D02*
Y0000000D01*
X0059940Y0000600D02*
Y0000000D01*
X0059760Y0000600D02*
Y0000000D01*
X0059400Y0000600D02*
Y0000000D01*
X0058680Y0000600D02*
Y0000000D01*
X0058500Y0000600D02*
Y0000000D01*
X0065869Y0003060D02*
X0063650D01*
X0059040Y0000600D02*
Y0000000D01*
X0058860Y0000600D02*
Y0000000D01*
X0057960Y0000600D02*
Y0000000D01*
X0057214Y0000720D02*
X0006374D01*
X0060840Y0000600D02*
Y0000000D01*
X0056520Y0001142D02*
Y0000000D01*
X0058320Y0000600D02*
Y0000000D01*
X0052200Y0000975D02*
Y0000000D01*
X0055980Y0000950D02*
Y0000000D01*
X0055800Y0000975D02*
Y0000000D01*
X0055620Y0001046D02*
Y0000000D01*
X0055260Y0001446D02*
Y0000000D01*
X0057240Y0000696D02*
Y0000000D01*
X0054720Y0001401D02*
Y0000000D01*
X0054540Y0001160D02*
Y0000000D01*
X0054360Y0001035D02*
Y0000000D01*
X0054900Y0001956D02*
Y0000000D01*
X0054000Y0000950D02*
Y0000000D01*
X0053820Y0000970D02*
Y0000000D01*
X0053640Y0001035D02*
Y0000000D01*
X0053280Y0001401D02*
Y0000000D01*
X0054180Y0000970D02*
Y0000000D01*
X0052740Y0001446D02*
Y0000000D01*
X0052560Y0001179D02*
Y0000000D01*
X0052380Y0001046D02*
Y0000000D01*
X0052920Y0001954D02*
Y0000000D01*
X0048240Y0000987D02*
Y0000000D01*
X0051660Y0001026D02*
Y0000000D01*
X0051300Y0001363D02*
Y0000000D01*
X0051840Y0000966D02*
Y0000000D01*
X0050760Y0001500D02*
Y0000000D01*
X0050580Y0001199D02*
Y0000000D01*
X0050400Y0001057D02*
Y0000000D01*
X0050940Y0001952D02*
Y0000000D01*
X0050040Y0000951D02*
Y0000000D01*
X0049860Y0000962D02*
Y0000000D01*
X0049680Y0001017D02*
Y0000000D01*
X0049320Y0001328D02*
Y0000000D01*
X0050220Y0000981D02*
Y0000000D01*
X0048780Y0001572D02*
Y0000000D01*
X0048600Y0001221D02*
Y0000000D01*
X0048420Y0001069D02*
Y0000000D01*
X0048960Y0001951D02*
Y0000000D01*
X0048060Y0000952D02*
Y0000000D01*
X0047880Y0000959D02*
Y0000000D01*
X0047563Y0001080D02*
X0046437D01*
X0047340Y0001298D02*
Y0000000D01*
X0047160Y0001966D02*
Y0000000D01*
X0015867Y0001260D02*
X0012382D01*
X0046800Y0001975D02*
Y0000000D01*
X0046620Y0001244D02*
Y0000000D01*
X0046440Y0001082D02*
Y0000000D01*
X0046260Y0000993D02*
Y0000000D01*
X0016020Y0001110D02*
Y0000000D01*
X0046080Y0000954D02*
Y0000000D01*
X0045900Y0000956D02*
Y0000000D01*
X0045720Y0001000D02*
Y0000000D01*
X0045360Y0001270D02*
Y0000000D01*
X0045180Y0001970D02*
Y0000000D01*
X0045000Y0001950D02*
Y0000000D01*
X0044820Y0001970D02*
Y0000000D01*
X0044640Y0002035D02*
Y0000000D01*
X0044460Y0002160D02*
Y0000000D01*
X0044280Y0002350D02*
Y0000000D01*
X0044100Y0002350D02*
Y0000000D01*
X0043920Y0002350D02*
Y0000000D01*
X0035280Y0007326D02*
Y0000000D01*
X0041383Y0011160D02*
X0041116D01*
X0043020Y0002350D02*
Y0000000D01*
X0042660Y0002350D02*
Y0000000D01*
X0042120Y0002350D02*
Y0000000D01*
X0041940Y0002350D02*
Y0000000D01*
X0041580Y0002350D02*
Y0000000D01*
X0041400Y0002350D02*
Y0000000D01*
X0041220Y0002350D02*
Y0000000D01*
X0041040Y0002350D02*
Y0000000D01*
X0040680Y0002350D02*
Y0000000D01*
X0040500Y0002350D02*
Y0000000D01*
X0040140Y0002365D02*
Y0000000D01*
X0039960Y0002474D02*
Y0000000D01*
X0039780Y0011850D02*
Y0011300D01*
X0039420Y0011850D02*
Y0011300D01*
X0045720Y0027250D02*
Y0027150D01*
X0057780Y0025654D02*
Y0024650D01*
X0039200Y0008050D02*
Y0006700D01*
X0037980Y0008050D02*
Y0000000D01*
X0037800Y0008050D02*
Y0000000D01*
X0037440Y0008050D02*
Y0000000D01*
X0037260Y0008050D02*
Y0000000D01*
X0037080Y0008050D02*
Y0000000D01*
X0036900Y0008050D02*
Y0000000D01*
X0035280Y0013265D02*
Y0012650D01*
X0035148Y0007333D02*
X0030900Y0003084D01*
X0036000Y0008363D02*
Y0000000D01*
X0035820Y0007638D02*
Y0000000D01*
X0035640Y0007449D02*
Y0000000D01*
X0035460Y0007358D02*
Y0000000D01*
X0035820Y0013078D02*
Y0012650D01*
X0030138Y0003420D02*
X0029937D01*
X0034380Y0006564D02*
Y0000000D01*
X0034020Y0006204D02*
Y0000000D01*
X0033660Y0005844D02*
Y0000000D01*
X0033480Y0005664D02*
Y0000000D01*
X0033300Y0005484D02*
Y0000000D01*
X0033120Y0005304D02*
Y0000000D01*
X0032940Y0005124D02*
Y0000000D01*
X0032760Y0004944D02*
Y0000000D01*
X0032400Y0004584D02*
Y0000000D01*
X0032220Y0004404D02*
Y0000000D01*
X0039350Y0003600D02*
X0031416D01*
X0016203Y0006840D02*
X0003500D01*
X0031140Y0001270D02*
Y0000000D01*
X0030960Y0001095D02*
Y0000000D01*
X0030780Y0001000D02*
Y0000000D01*
X0029063Y0003420D02*
X0027937D01*
X0031320Y0003504D02*
Y0000000D01*
X0026640Y0000962D02*
Y0000000D01*
X0029880Y0001244D02*
Y0000000D01*
X0029700Y0001975D02*
Y0000000D01*
X0030240Y0000993D02*
Y0000000D01*
X0029160Y0001298D02*
Y0000000D01*
X0028980Y0001110D02*
Y0000000D01*
X0028800Y0001008D02*
Y0000000D01*
X0027063Y0003420D02*
X0025937D01*
X0029340Y0001966D02*
Y0000000D01*
X0028440Y0000952D02*
Y0000000D01*
X0028260Y0000987D02*
Y0000000D01*
X0028080Y0001069D02*
Y0000000D01*
X0027720Y0001572D02*
Y0000000D01*
X0028620Y0000959D02*
Y0000000D01*
X0027180Y0001328D02*
Y0000000D01*
X0027000Y0001125D02*
Y0000000D01*
X0026820Y0001017D02*
Y0000000D01*
X0025063Y0003420D02*
X0023937D01*
X0027360Y0001962D02*
Y0000000D01*
X0026460Y0000951D02*
Y0000000D01*
X0026280Y0000981D02*
Y0000000D01*
X0025710Y0001620D02*
X0025289D01*
X0025740Y0001500D02*
Y0000000D01*
X0023710Y0001620D02*
X0023289D01*
X0025380Y0001959D02*
Y0000000D01*
X0025200Y0001363D02*
Y0000000D01*
X0025020Y0001142D02*
Y0000000D01*
X0024840Y0001026D02*
Y0000000D01*
X0024660Y0000966D02*
Y0000000D01*
X0023063Y0003420D02*
X0021937D01*
X0024480Y0000950D02*
Y0000000D01*
X0024300Y0000975D02*
Y0000000D01*
X0024120Y0001046D02*
Y0000000D01*
X0023760Y0001446D02*
Y0000000D01*
X0021710Y0001620D02*
X0021289D01*
X0023400Y0001956D02*
Y0000000D01*
X0023220Y0001401D02*
Y0000000D01*
X0023040Y0001160D02*
Y0000000D01*
X0022860Y0001035D02*
Y0000000D01*
X0022680Y0000970D02*
Y0000000D01*
X0021063Y0003420D02*
X0019937D01*
X0022500Y0000950D02*
Y0000000D01*
X0022320Y0000970D02*
Y0000000D01*
X0022140Y0001035D02*
Y0000000D01*
X0020063Y0001080D02*
X0018937D01*
X0021600Y0001956D02*
Y0000000D01*
X0021420Y0001954D02*
Y0000000D01*
X0021060Y0001179D02*
Y0000000D01*
X0020880Y0001046D02*
Y0000000D01*
X0020700Y0000975D02*
Y0000000D01*
X0019063Y0003420D02*
X0017937D01*
X0020520Y0000950D02*
Y0000000D01*
X0020340Y0000966D02*
Y0000000D01*
X0020160Y0001026D02*
Y0000000D01*
X0019800Y0001363D02*
Y0000000D01*
X0018063Y0001080D02*
X0016937D01*
X0021240Y0001446D02*
Y0000000D01*
X0019440Y0001952D02*
Y0000000D01*
X0019080Y0001199D02*
Y0000000D01*
X0018900Y0001057D02*
Y0000000D01*
X0018720Y0000981D02*
Y0000000D01*
X0017710Y0001620D02*
X0017289D01*
X0018540Y0000951D02*
Y0000000D01*
X0018360Y0000962D02*
Y0000000D01*
X0018180Y0001017D02*
Y0000000D01*
X0017820Y0001328D02*
Y0000000D01*
X0016063Y0001080D02*
X0012187D01*
X0004878Y0003420D02*
X0003500D01*
X0017100Y0001221D02*
Y0000000D01*
X0016920Y0001069D02*
Y0000000D01*
X0016740Y0000987D02*
Y0000000D01*
X0002949Y0022860D02*
X0002770D01*
X0016560Y0000952D02*
Y0000000D01*
X0016380Y0000959D02*
Y0000000D01*
X0016200Y0001008D02*
Y0000000D01*
X0015840Y0001298D02*
Y0000000D01*
X0015660Y0001966D02*
Y0000000D01*
X0015480Y0001950D02*
Y0000000D01*
X0015300Y0001975D02*
Y0000000D01*
X0015120Y0002046D02*
Y0000000D01*
X0016740Y0006103D02*
Y0003000D01*
X0014940Y0004303D02*
Y0003321D01*
X0014580Y0003943D02*
Y0000000D01*
X0014220Y0003583D02*
Y0000000D01*
X0013860Y0003223D02*
Y0000000D01*
X0059760Y0027250D02*
Y0027150D01*
X0021600Y0008050D02*
Y0003544D01*
X0010620Y0020100D02*
Y0000000D01*
X0012420Y0001313D02*
Y0000000D01*
X0012240Y0001117D02*
Y0000000D01*
X0012060Y0001012D02*
Y0000000D01*
X0011880Y0000960D02*
Y0000000D01*
X0011700Y0000951D02*
Y0000000D01*
X0011520Y0000984D02*
Y0000000D01*
X0011340Y0001063D02*
Y0000000D01*
X0014580Y0027250D02*
Y0024150D01*
X0004055Y0001440D02*
X0003500D01*
X0012600Y0001963D02*
Y0000000D01*
X0010440Y0001345D02*
Y0000000D01*
X0010260Y0001133D02*
Y0000000D01*
X0010080Y0001021D02*
Y0000000D01*
X0009900Y0000964D02*
Y0000000D01*
X0009720Y0000950D02*
Y0000000D01*
X0009540Y0000978D02*
Y0000000D01*
X0009360Y0001051D02*
Y0000000D01*
X0008184Y0022450D02*
X0007950D01*
X0039960Y0027250D02*
Y0027150D01*
X0009550Y0023350D02*
Y0022450D01*
X0042300Y0027250D02*
Y0027150D01*
X0008100Y0015622D02*
Y0000000D01*
X0003950Y0001980D02*
X0003500D01*
X0003963Y0001800D02*
X0003500D01*
X0007020Y0001696D02*
Y0000000D01*
X0006840Y0001221D02*
Y0000000D01*
X0006660Y0000972D02*
Y0000000D01*
X0006480Y0000799D02*
Y0000000D01*
X0006300Y0000672D02*
Y0000000D01*
X0006120Y0000579D02*
Y0000000D01*
X0007200Y0020484D02*
Y0000000D01*
X0005760Y0000472D02*
Y0000000D01*
X0005580Y0000452D02*
Y0000000D01*
X0005400Y0000453D02*
Y0000000D01*
X0005220Y0000475D02*
Y0000000D01*
X0005040Y0000520D02*
Y0000000D01*
X0004860Y0000588D02*
Y0000000D01*
X0004680Y0000685D02*
Y0000000D01*
X0004500Y0000816D02*
Y0000000D01*
X0004320Y0000995D02*
Y0000000D01*
X0025380Y0015463D02*
Y0013017D01*
X0003318Y0018900D02*
X0001798D01*
X0003960Y0001824D02*
Y0000000D01*
X0003780Y0017636D02*
Y0000000D01*
X0003600Y0017582D02*
Y0000000D01*
X0038520Y0025069D02*
Y0025045D01*
X0065700Y0001156D02*
Y0000000D01*
X0000668Y0021960D02*
X0000000D01*
X0001800Y0022781D02*
Y0022719D01*
Y0020903D02*
Y0020719D01*
X0001980Y0027250D02*
Y0026841D01*
X0001800Y0017781D02*
Y0017719D01*
X0003060Y0017738D02*
Y0016000D01*
X0002880Y0017090D02*
Y0016000D01*
X0002700Y0016781D02*
Y0016000D01*
X0000622Y0021420D02*
X0000000D01*
X0000720Y0016874D02*
Y0016000D01*
X0000540Y0027250D02*
Y0016000D01*
X0000360Y0027250D02*
Y0016000D01*
X0000790Y0022709D02*
X0001250Y0022250D01*
X0001800Y0027250D02*
Y0026900D01*
X0004140Y0027250D02*
Y0025993D01*
X0002880Y0027250D02*
Y0026410D01*
X0002700Y0027250D02*
Y0026719D01*
X0002520Y0027250D02*
Y0026841D01*
X0002340Y0027250D02*
Y0026894D01*
X0002160Y0027250D02*
Y0026894D01*
X0000702Y0025600D02*
X0000600D01*
X0000745Y0024660D02*
X0000000D01*
X0000679Y0025560D02*
X0000000D01*
X0000602Y0024300D02*
X0000000D01*
X0000602Y0025200D02*
X0000000D01*
X0003960Y0027250D02*
Y0025426D01*
X0008100Y0027250D02*
Y0024150D01*
X0000613Y0025380D02*
X0000000D01*
X0000642Y0024480D02*
X0000000D01*
X0000745Y0024840D02*
X0000000D01*
X0000762Y0022680D02*
X0000000D01*
X0000690Y0023580D02*
X0000000D01*
X0000650Y0022500D02*
X0000000D01*
X0000823Y0023760D02*
X0000000D01*
X0000635Y0023040D02*
X0000000D01*
X0003060Y0027250D02*
Y0023762D01*
X0000617Y0023400D02*
X0000000D01*
X0000659Y0020520D02*
X0000000D01*
X0000600Y0021240D02*
X0000000D01*
X0000781Y0020700D02*
X0000000D01*
X0000702Y0021600D02*
X0000000D01*
X0000609Y0022140D02*
X0000000D01*
X0000801Y0021780D02*
X0000000D01*
X0000628Y0021060D02*
X0000000D01*
X0000604Y0022320D02*
X0000000D01*
X0000628Y0019440D02*
X0000000D01*
X0000606Y0020340D02*
X0000000D01*
X0000600Y0019260D02*
X0000000D01*
X0000659Y0019980D02*
X0000000D01*
X0000715Y0020880D02*
X0000000D01*
X0000715Y0019620D02*
X0000000D01*
X0000606Y0020160D02*
X0000000D01*
X0000781Y0019800D02*
X0000000D01*
X0000635Y0017460D02*
X0000000D01*
X0000801Y0018720D02*
X0000000D01*
X0000668Y0018540D02*
X0000000D01*
X0000609Y0018360D02*
X0000000D01*
X0000604Y0018180D02*
X0000000D01*
X0000650Y0018000D02*
X0000000D01*
X0000702Y0018900D02*
X0000000D01*
X0000730Y0017640D02*
X0000000D01*
X0000762Y0017820D02*
X0000000D01*
X0000617Y0017100D02*
X0000000D01*
X0008015Y0016740D02*
X0002653D01*
X0008280Y0015496D02*
Y0000000D01*
X0008170Y0016560D02*
X0000000D01*
X0008102Y0016380D02*
X0000000D01*
X0007987Y0016200D02*
X0000000D01*
X0007950Y0016020D02*
X0000000D01*
X0007974Y0015840D02*
X0003500D01*
X0033660Y0014100D02*
Y0013833D01*
X0034101Y0012583D02*
X0034715Y0011969D01*
X0034200Y0006384D02*
Y0000000D01*
X0038160Y0008050D02*
Y0000000D01*
X0012600Y0015092D02*
Y0003236D01*
X0025342Y0012600D02*
X0021150D01*
X0029880Y0008050D02*
Y0003454D01*
X0012508Y0015120D02*
X0003500D01*
X0040680Y0011850D02*
Y0011295D01*
X0037620Y0008050D02*
Y0000000D01*
X0033840Y0006024D02*
Y0000000D01*
X0011075Y0013500D02*
X0003500D01*
X0035461Y0013140D02*
X0034676D01*
X0011099Y0013320D02*
X0003500D01*
X0016350Y0012060D02*
X0003500D01*
X0016350Y0011880D02*
X0003500D01*
X0016350Y0011700D02*
X0003500D01*
X0016350Y0011520D02*
X0003500D01*
X0016350Y0011340D02*
X0003500D01*
X0016350Y0011160D02*
X0003500D01*
X0016350Y0010980D02*
X0003500D01*
X0016350Y0010800D02*
X0003500D01*
X0039420Y0009274D02*
Y0008950D01*
X0016350Y0010440D02*
X0003500D01*
X0016350Y0010260D02*
X0003500D01*
X0014760Y0018877D02*
Y0015425D01*
X0016350Y0009900D02*
X0003500D01*
X0013320Y0020100D02*
Y0016111D01*
X0016350Y0009540D02*
X0003500D01*
X0016350Y0009360D02*
X0003500D01*
X0016350Y0009180D02*
X0003500D01*
X0043200Y0002350D02*
Y0000000D01*
X0039200Y0008050D02*
X0036500D01*
X0016350Y0008640D02*
X0003500D01*
X0016256Y0008460D02*
X0003500D01*
X0016136Y0008280D02*
X0003500D01*
X0016082Y0008100D02*
X0003500D01*
X0016080Y0007920D02*
X0003500D01*
X0016127Y0007740D02*
X0003500D01*
X0034244Y0007560D02*
X0018196D01*
X0016563Y0007200D02*
X0003500D01*
X0018000Y0007363D02*
Y0003374D01*
X0017460Y0001951D02*
Y0000000D01*
X0016023Y0006660D02*
X0003500D01*
X0015843Y0006480D02*
X0003500D01*
X0015663Y0006300D02*
X0003500D01*
X0015483Y0006120D02*
X0003500D01*
X0042480Y0002350D02*
Y0000000D01*
X0042300Y0002350D02*
Y0000000D01*
X0030420Y0008050D02*
Y0003736D01*
X0015120Y0004483D02*
Y0003454D01*
X0014403Y0005040D02*
X0003500D01*
X0014223Y0004860D02*
X0003500D01*
X0014043Y0004680D02*
X0003500D01*
X0013863Y0004500D02*
X0003500D01*
X0045540Y0001095D02*
Y0000000D01*
X0014940Y0002179D02*
Y0000000D01*
X0012963Y0003600D02*
X0003500D01*
X0008640Y0015450D02*
Y0000000D01*
X0011160Y0001210D02*
Y0000000D01*
X0004224Y0002880D02*
X0003500D01*
X0004117Y0002700D02*
X0003500D01*
X0004040Y0002520D02*
X0003500D01*
X0003988Y0002340D02*
X0003500D01*
X0003958Y0002160D02*
X0003500D01*
X0004140Y0001256D02*
Y0000000D01*
X0003997Y0001620D02*
X0003500D01*
X0004138Y0001260D02*
X0003500D01*
X0004252Y0001080D02*
X0003500D01*
X0004408Y0000900D02*
X0003500D01*
X0004979Y0000540D02*
X0003500D01*
X0069000Y0000360D02*
X0003500D01*
X0069000Y0001080D02*
X0068247D01*
X0046620Y0012100D02*
Y0011300D01*
X0041040Y0025595D02*
Y0024650D01*
X0069000Y0005760D02*
X0063650D01*
X0034250Y0008050D02*
X0018686D01*
X0020332Y0009900D02*
X0017150D01*
X0016350Y0008820D02*
X0003500D01*
X0065567Y0024660D02*
X0064536D01*
X0063900Y0027250D02*
Y0024917D01*
X0059400Y0026350D02*
Y0025137D01*
X0046343Y0016380D02*
X0044657D01*
X0059940Y0026350D02*
Y0025150D01*
X0016380Y0007435D02*
Y0007016D01*
X0041250Y0016200D02*
X0040750D01*
X0042480Y0016850D02*
Y0015900D01*
X0042660Y0016850D02*
Y0015900D01*
X0038880Y0016850D02*
Y0015900D01*
X0058860Y0024929D02*
Y0024676D01*
X0049680Y0025850D02*
Y0025150D01*
X0063000Y0027250D02*
Y0024650D01*
X0046260Y0027250D02*
Y0027150D01*
X0052740Y0025850D02*
Y0025150D01*
X0044280Y0027250D02*
Y0027150D01*
X0061380Y0026304D02*
Y0024936D01*
X0044640Y0027250D02*
Y0027150D01*
X0043200Y0027250D02*
Y0027150D01*
X0018374Y0012060D02*
X0017150D01*
X0061740Y0025558D02*
Y0024650D01*
X0023400Y0008050D02*
Y0003544D01*
X0069000Y0003780D02*
X0063650D01*
X0061020Y0027250D02*
Y0027150D01*
X0017654Y0012780D02*
X0017150D01*
X0043204Y0016020D02*
X0038296D01*
X0066378Y0003420D02*
X0063650D01*
X0069000Y0003960D02*
X0063650D01*
X0065617Y0002700D02*
X0063650D01*
X0029160Y0027250D02*
Y0024900D01*
X0032040Y0027250D02*
Y0024900D01*
X0069000Y0004140D02*
X0063650D01*
X0031084Y0021600D02*
X0030377D01*
X0030960Y0027250D02*
Y0024900D01*
X0047880Y0027250D02*
Y0027150D01*
X0029122Y0021600D02*
X0027750D01*
X0020520Y0027250D02*
Y0024150D01*
X0049860Y0027250D02*
Y0027150D01*
X0017100Y0027250D02*
Y0024150D01*
X0053280Y0027250D02*
Y0027150D01*
X0043200Y0012134D02*
Y0011300D01*
X0028744Y0014940D02*
X0024422D01*
X0054540Y0025850D02*
Y0025744D01*
X0053460Y0027250D02*
Y0027150D01*
X0048060Y0027250D02*
Y0027150D01*
X0028384Y0015300D02*
X0024355D01*
X0024974Y0015840D02*
X0024150D01*
X0035084Y0013860D02*
X0034289D01*
X0037260Y0012850D02*
Y0012650D01*
X0050400Y0025850D02*
Y0025150D01*
X0050584Y0016150D02*
X0043500D01*
X0035140Y0014040D02*
X0017900D01*
X0030420Y0016514D02*
Y0016355D01*
X0014359Y0015300D02*
X0013253D01*
X0026640Y0018600D02*
Y0017400D01*
X0030000Y0015450D02*
X0029500D01*
X0055440Y0024738D02*
Y0024650D01*
X0027844Y0015840D02*
X0026526D01*
X0030914Y0016020D02*
X0030549D01*
X0028924Y0014760D02*
X0024381D01*
X0058358Y0024840D02*
X0055536D01*
X0032580Y0004764D02*
Y0000000D01*
X0047340Y0027250D02*
Y0027150D01*
X0054180Y0027250D02*
Y0027150D01*
X0007951Y0021960D02*
X0007650D01*
X0029160Y0021568D02*
Y0021432D01*
X0050220Y0027250D02*
Y0027150D01*
X0028783Y0021283D02*
X0028960Y0021105D01*
X0028951Y0021960D02*
X0028276D01*
X0055260Y0027250D02*
Y0027150D01*
X0007920Y0023350D02*
Y0020900D01*
X0006868Y0020880D02*
X0002410D01*
X0020880Y0027250D02*
Y0024150D01*
X0031264Y0021420D02*
X0030355D01*
X0013140Y0027250D02*
Y0024150D01*
X0013860Y0027250D02*
Y0024150D01*
X0024334Y0023100D02*
X0023550D01*
X0025122Y0022400D02*
X0023750D01*
X0014075Y0014760D02*
X0003500D01*
X0028959Y0022100D02*
X0028416D01*
X0025200Y0021539D02*
Y0021461D01*
X0021980Y0018180D02*
X0021400D01*
X0026280Y0021526D02*
Y0021473D01*
X0024424Y0021240D02*
X0023556D01*
X0025102Y0019620D02*
X0024936D01*
X0023940Y0021600D02*
Y0020900D01*
X0055800Y0027250D02*
Y0027150D01*
X0054360Y0027250D02*
Y0027150D01*
X0023940Y0018648D02*
Y0018376D01*
X0026280Y0018526D02*
Y0018473D01*
X0055980Y0027250D02*
Y0027150D01*
X0025200Y0018539D02*
Y0018461D01*
X0027250Y0017400D02*
X0026377D01*
X0026460Y0018600D02*
Y0018301D01*
X0025020Y0018731D02*
Y0018268D01*
X0026100Y0008050D02*
Y0003279D01*
X0025200Y0019539D02*
Y0019461D01*
X0025020Y0017731D02*
Y0017268D01*
X0026000Y0015450D02*
X0025500D01*
X0027180Y0008050D02*
Y0003483D01*
X0025200Y0017539D02*
Y0017461D01*
X0023000Y0015450D02*
X0022500D01*
X0027664Y0016020D02*
X0026549D01*
X0025084Y0018360D02*
X0023956D01*
X0025026Y0017280D02*
X0024150D01*
X0021960Y0018224D02*
Y0018104D01*
X0027750Y0021600D02*
X0026377D01*
X0025170Y0019440D02*
X0024756D01*
X0042660Y0027250D02*
Y0027150D01*
X0029005Y0021240D02*
X0028826D01*
X0023760Y0018600D02*
Y0018556D01*
X0025122Y0021600D02*
X0023916D01*
X0021967Y0024783D02*
X0021334Y0024150D01*
X0023580Y0023100D02*
Y0022362D01*
X0024480Y0021600D02*
Y0021295D01*
X0019260Y0027250D02*
Y0024150D01*
X0059580Y0027250D02*
Y0027150D01*
X0021987Y0016200D02*
X0021650D01*
X0069000Y0026820D02*
X0061996D01*
X0014400Y0003763D02*
Y0000000D01*
X0049140Y0012100D02*
Y0011282D01*
X0018000Y0019771D02*
Y0019229D01*
X0022084Y0017640D02*
X0021321D01*
X0061740Y0027250D02*
Y0027070D01*
X0018000Y0018771D02*
Y0018229D01*
X0018180Y0019553D02*
Y0019447D01*
X0017463Y0008100D02*
X0017417D01*
X0020850Y0015840D02*
X0019526D01*
X0018000Y0017771D02*
Y0017229D01*
X0019000Y0015450D02*
X0018500D01*
X0016000D02*
X0015500D01*
X0018170Y0016560D02*
X0017900D01*
X0017950Y0016020D02*
X0017900D01*
X0015084Y0017640D02*
X0012416D01*
X0015198Y0018540D02*
X0012301D01*
X0017959Y0020100D02*
X0017466D01*
X0014959Y0017100D02*
X0012541D01*
X0016200Y0005563D02*
Y0003137D01*
X0014191Y0018900D02*
X0012541D01*
X0014940Y0021100D02*
Y0020900D01*
X0059400Y0027250D02*
Y0027150D01*
X0014959Y0020900D02*
X0013966D01*
X0014400Y0021100D02*
Y0020900D01*
X0014220Y0021100D02*
Y0020900D01*
X0017034D02*
X0016541D01*
X0065520Y0027250D02*
Y0025710D01*
X0039988Y0025560D02*
X0038672D01*
X0011340Y0027250D02*
Y0024150D01*
X0014959Y0018900D02*
X0014809D01*
X0012240Y0027250D02*
Y0024150D01*
X0010283Y0022283D02*
X0010666Y0021900D01*
X0016834Y0021100D02*
X0017034Y0020900D01*
X0011160Y0022568D02*
Y0022432D01*
X0010987Y0019800D02*
X0009512D01*
X0013860Y0019285D02*
Y0004496D01*
X0016740Y0021100D02*
Y0020900D01*
X0010956Y0019080D02*
X0009544D01*
X0013828Y0019440D02*
X0012330D01*
X0016920Y0021014D02*
Y0020900D01*
X0011160Y0019568D02*
Y0019432D01*
X0010980Y0017820D02*
X0009520D01*
X0014950Y0018000D02*
X0012550D01*
X0011160Y0018568D02*
Y0018432D01*
X0010959Y0017100D02*
X0009541D01*
X0015026Y0017280D02*
X0012473D01*
X0015026Y0018720D02*
X0012473D01*
X0011198Y0018540D02*
X0009301D01*
X0014987Y0016200D02*
X0013253D01*
X0010980Y0017821D02*
Y0017179D01*
X0011015Y0016740D02*
X0009484D01*
X0012000Y0015450D02*
X0011500D01*
X0015321Y0015480D02*
X0013368D01*
X0000847Y0016740D02*
X0000000D01*
X0009000Y0015450D02*
X0008500D01*
X0009360Y0017584D02*
Y0017416D01*
X0008068Y0015660D02*
X0003500D01*
X0008820Y0015450D02*
Y0000000D01*
X0014956Y0016920D02*
X0012544D01*
X0002980Y0017820D02*
X0002737D01*
X0007959Y0017100D02*
X0002882D01*
X0011084Y0017640D02*
X0009416D01*
X0009180Y0015480D02*
Y0002311D01*
X0040860Y0027250D02*
Y0027150D01*
X0011102Y0019620D02*
X0009397D01*
X0009000Y0015450D02*
Y0002028D01*
X0010194Y0021240D02*
X0009495D01*
X0042840Y0027250D02*
Y0027150D01*
X0029342Y0012600D02*
X0026658D01*
X0009540Y0015895D02*
Y0002522D01*
X0065842Y0026280D02*
X0062864D01*
X0009900Y0021534D02*
Y0020900D01*
X0043020Y0027250D02*
Y0027150D01*
X0039780Y0027250D02*
Y0027150D01*
X0010080Y0021354D02*
Y0020900D01*
X0011026Y0017280D02*
X0009473D01*
X0065602Y0025920D02*
X0062920D01*
X0010980Y0019821D02*
Y0019179D01*
X0007950Y0023220D02*
X0007786D01*
X0007950Y0022860D02*
X0007650D01*
X0003058Y0023760D02*
X0002677D01*
X0010080Y0027250D02*
Y0024150D01*
X0007950Y0023350D02*
Y0022450D01*
X0038700Y0025634D02*
Y0024866D01*
X0069000Y0010080D02*
X0065773D01*
X0065800Y0010750D02*
Y0010250D01*
X0069000Y0010980D02*
X0065749D01*
X0008820Y0027250D02*
Y0024150D01*
X0069000Y0009540D02*
X0065700D01*
X0063883Y0006840D02*
X0063800D01*
X0064080Y0006727D02*
Y0000000D01*
X0065800Y0007750D02*
Y0007250D01*
X0064883Y0006840D02*
X0064616D01*
X0069000Y0007380D02*
X0065800D01*
X0064980Y0006771D02*
Y0000000D01*
X0069000Y0007560D02*
X0065800D01*
X0069000Y0020160D02*
X0063156D01*
X0069000Y0020340D02*
X0062976D01*
X0045360Y0016850D02*
Y0016150D01*
X0060660Y0023100D02*
Y0022656D01*
X0027900Y0027250D02*
Y0024900D01*
X0057060Y0027250D02*
Y0027150D01*
X0056520Y0027250D02*
Y0027150D01*
X0061920Y0000600D02*
Y0000000D01*
X0036000Y0011850D02*
Y0009450D01*
X0069000Y0011340D02*
X0064650D01*
X0044820Y0016850D02*
Y0016150D01*
X0039240Y0026174D02*
Y0024650D01*
X0043108Y0024840D02*
X0038726D01*
X0044166Y0025850D02*
X0043917Y0025601D01*
X0036180Y0027250D02*
Y0025844D01*
X0035100Y0011850D02*
Y0009450D01*
X0016020Y0015450D02*
Y0006656D01*
X0039200Y0010620D02*
X0025664D01*
X0011340Y0015474D02*
Y0014036D01*
X0026460Y0027250D02*
Y0024900D01*
X0027000Y0027250D02*
Y0024900D01*
X0026640Y0027250D02*
Y0024900D01*
X0003420Y0027250D02*
Y0023920D01*
X0025920Y0027250D02*
Y0024900D01*
X0025560Y0012238D02*
Y0010877D01*
X0043920Y0025418D02*
Y0024650D01*
X0028620Y0027250D02*
Y0024900D01*
X0018914Y0011520D02*
X0017150D01*
X0049700Y0010260D02*
X0049550D01*
X0032760Y0014100D02*
Y0008950D01*
X0033120Y0014100D02*
Y0008950D01*
X0050800Y0011300D02*
X0049700D01*
X0034560Y0008174D02*
Y0007876D01*
X0032040Y0012076D02*
Y0008950D01*
X0033300Y0014100D02*
Y0008950D01*
X0019440Y0010994D02*
Y0008950D01*
X0030060Y0012078D02*
Y0008950D01*
X0024120Y0014435D02*
Y0008950D01*
X0049550Y0010750D02*
Y0010250D01*
X0046450Y0010260D02*
X0046050D01*
X0042300Y0011850D02*
Y0010061D01*
X0034293Y0009180D02*
X0017150D01*
X0025200Y0009855D02*
Y0008950D01*
X0047550Y0011300D02*
X0046450D01*
X0027180Y0016504D02*
Y0008950D01*
X0046450Y0011300D02*
Y0009950D01*
X0034113Y0009000D02*
X0017150D01*
X0029411Y0012420D02*
X0026589D01*
X0018900Y0011534D02*
Y0008950D01*
X0046050Y0010750D02*
Y0010250D01*
X0044460Y0012326D02*
Y0011298D01*
X0033524Y0006840D02*
X0017476D01*
X0044050Y0011300D02*
X0042950D01*
Y0009950D01*
X0017640Y0012794D02*
Y0008276D01*
X0043740Y0002350D02*
Y0000000D01*
X0042950Y0010440D02*
X0042300D01*
X0020520Y0009525D02*
Y0008950D01*
X0018720Y0008050D02*
Y0002928D01*
X0042300Y0010750D02*
Y0010250D01*
X0042950Y0010980D02*
X0042249D01*
X0033704Y0007020D02*
X0017656D01*
X0040300Y0011300D02*
X0039200D01*
Y0009700D01*
X0043464Y0026280D02*
X0041114D01*
X0042586Y0025380D02*
X0040767D01*
X0042578Y0025560D02*
X0041012D01*
X0040860Y0002350D02*
Y0000000D01*
X0015303Y0005940D02*
X0003500D01*
X0042840Y0002350D02*
Y0000000D01*
X0042721Y0025920D02*
X0041170D01*
X0039420Y0003024D02*
Y0000000D01*
X0016350Y0014220D02*
X0015168D01*
X0039240Y0009700D02*
Y0008950D01*
X0036321Y0009315D02*
X0036686Y0008950D01*
X0015123Y0005760D02*
X0003500D01*
X0030600Y0008050D02*
Y0003916D01*
X0029701Y0001800D02*
X0029298D01*
X0027701D02*
X0027298D01*
X0045201D02*
X0031298D01*
X0039398Y0003060D02*
X0030900D01*
X0015068Y0015660D02*
X0013419D01*
X0016350Y0015456D02*
Y0008544D01*
X0034580Y0007920D02*
X0018556D01*
X0016238Y0007560D02*
X0003500D01*
X0034064Y0007380D02*
X0018016D01*
X0020386Y0009720D02*
X0017150D01*
X0034380Y0008069D02*
Y0007696D01*
X0016319Y0015480D02*
X0016179D01*
X0049140Y0001962D02*
Y0000000D01*
X0039350Y0006700D02*
X0039200D01*
X0041760Y0002350D02*
Y0000000D01*
X0019980Y0010454D02*
Y0008950D01*
X0016350Y0009720D02*
X0003500D01*
X0039467Y0009217D02*
X0039734Y0008950D01*
X0014583Y0005220D02*
X0003500D01*
X0042840Y0011860D02*
Y0009950D01*
X0016350Y0010080D02*
X0003500D01*
X0021240Y0009369D02*
Y0008950D01*
X0020340Y0009858D02*
Y0008950D01*
X0020160Y0010274D02*
Y0008950D01*
X0016350Y0010620D02*
X0003500D01*
X0042950Y0010800D02*
X0042298D01*
X0039350Y0009700D02*
Y0009500D01*
X0052920Y0027250D02*
Y0027150D01*
X0040140Y0027250D02*
Y0027150D01*
X0016740Y0027250D02*
Y0024150D01*
X0021060Y0027250D02*
Y0024150D01*
X0051120Y0027250D02*
Y0027150D01*
X0069000Y0021600D02*
X0061716D01*
X0039734Y0008950D02*
X0036686D01*
X0014940Y0018988D02*
Y0015398D01*
X0051480Y0027250D02*
Y0027150D01*
X0030967Y0021717D02*
X0031284Y0021400D01*
X0047700Y0027250D02*
Y0027150D01*
X0052560Y0027250D02*
Y0027150D01*
X0053640Y0027250D02*
Y0027150D01*
X0030780Y0022015D02*
Y0021334D01*
X0017640Y0007003D02*
Y0003537D01*
X0040283Y0017460D02*
X0040026D01*
X0038880Y0027250D02*
Y0026946D01*
X0047520Y0027250D02*
Y0027150D01*
X0020506Y0009540D02*
X0017150D01*
X0031140Y0008050D02*
Y0004456D01*
X0033300Y0008050D02*
Y0006616D01*
X0047423Y0025850D02*
X0044166D01*
X0032580Y0008050D02*
Y0005896D01*
X0043560Y0012494D02*
Y0011300D01*
X0035100Y0014100D02*
Y0013932D01*
X0026100Y0012082D02*
Y0008950D01*
X0040680Y0027250D02*
Y0027150D01*
X0032400Y0008050D02*
Y0005716D01*
X0061582Y0026100D02*
X0058809D01*
X0033328Y0013320D02*
X0032361D01*
X0046881Y0025020D02*
X0043724D01*
X0019800Y0010634D02*
Y0008950D01*
X0057600Y0025834D02*
Y0024650D01*
X0036794Y0013140D02*
X0036039D01*
X0046260Y0012100D02*
Y0009950D01*
X0033480Y0008050D02*
Y0006796D01*
X0036434Y0013500D02*
X0036377D01*
X0069000Y0017280D02*
X0064650D01*
X0018003Y0008640D02*
X0017150D01*
X0050848Y0011880D02*
X0042902D01*
X0069000Y0016380D02*
X0064650D01*
X0036900Y0011850D02*
Y0008950D01*
X0027720Y0015964D02*
Y0008950D01*
X0017820Y0007183D02*
Y0003483D01*
X0019814Y0010620D02*
X0017150D01*
X0017294Y0013140D02*
X0017150D01*
X0017834Y0012600D02*
X0017150D01*
X0010800Y0027250D02*
Y0024150D01*
X0017217Y0013217D02*
X0020333Y0010101D01*
X0019634Y0010800D02*
X0017150D01*
Y0013306D02*
Y0008544D01*
X0019454Y0010980D02*
X0017150D01*
X0019274Y0011160D02*
X0017150D01*
X0035173Y0014100D02*
X0029750D01*
X0020597Y0014580D02*
X0017900D01*
X0024525Y0010980D02*
X0021368D01*
X0045180Y0025850D02*
Y0024650D01*
X0038116Y0016200D02*
X0038416Y0015900D01*
X0020673Y0014400D02*
X0017900D01*
X0069000Y0004320D02*
X0063650D01*
X0063180Y0027250D02*
Y0024650D01*
X0017474Y0012960D02*
X0017150D01*
X0063360Y0027250D02*
Y0024650D01*
X0039554Y0002880D02*
X0030900D01*
X0020174Y0010260D02*
X0017150D01*
X0069000Y0003420D02*
X0067621D01*
X0069000Y0003600D02*
X0063650D01*
X0046831Y0024660D02*
X0038906D01*
X0020602Y0014940D02*
X0017900D01*
X0020265Y0012780D02*
X0018786D01*
X0060101Y0023333D02*
X0060215Y0023219D01*
X0029880Y0027250D02*
Y0024900D01*
X0020700Y0027250D02*
Y0024150D01*
X0069000Y0004500D02*
X0063650D01*
X0031140Y0027250D02*
Y0024900D01*
X0069000Y0013680D02*
X0064650D01*
X0029700Y0027250D02*
Y0024900D01*
X0030600Y0027250D02*
Y0024900D01*
X0018180Y0027250D02*
Y0024150D01*
X0030960Y0021724D02*
Y0021398D01*
X0030780Y0027250D02*
Y0024900D01*
X0028980Y0027250D02*
Y0024900D01*
X0007950Y0023350D02*
X0007916D01*
X0031500Y0027250D02*
Y0024900D01*
X0030600Y0000956D02*
Y0000000D01*
X0034920Y0014100D02*
Y0012896D01*
X0016350Y0012600D02*
X0003500D01*
X0034667Y0013148D02*
X0035166Y0012650D01*
X0037765Y0012780D02*
X0035036D01*
X0016350Y0012420D02*
X0003500D01*
X0034920Y0007104D02*
Y0000000D01*
X0016350Y0012780D02*
X0003500D01*
X0011345Y0012960D02*
X0003500D01*
X0036974D02*
X0034856D01*
X0042750Y0011850D02*
X0035000D01*
X0043862Y0012780D02*
X0043846D01*
X0039240Y0006700D02*
Y0000000D01*
X0039600Y0011850D02*
Y0011300D01*
X0045444Y0012240D02*
X0043306D01*
X0039886Y0026280D02*
X0039346D01*
X0035460Y0013140D02*
Y0012650D01*
X0047700Y0012100D02*
Y0011211D01*
X0035123Y0013500D02*
X0034627D01*
X0037941Y0012650D02*
X0035166D01*
X0035640Y0013084D02*
Y0012650D01*
X0043956Y0012600D02*
X0043666D01*
X0044280Y0012362D02*
Y0011254D01*
X0025020Y0022600D02*
Y0022400D01*
X0024120Y0021600D02*
Y0020936D01*
X0024660Y0022774D02*
Y0022400D01*
X0025145Y0021420D02*
X0023736D01*
X0024300Y0008050D02*
Y0002524D01*
X0020160Y0016600D02*
Y0013578D01*
X0020340Y0027250D02*
Y0024150D01*
X0023510Y0022320D02*
X0023447D01*
X0060480Y0023100D02*
Y0022836D01*
X0024467Y0021283D02*
X0024084Y0020900D01*
X0025122Y0021600D02*
X0023916D01*
X0024300D02*
Y0021116D01*
X0020340Y0008050D02*
Y0002534D01*
X0023220Y0008050D02*
Y0003499D01*
X0058860Y0027250D02*
Y0027150D01*
X0044100Y0012456D02*
Y0011127D01*
X0036000Y0013123D02*
Y0012650D01*
X0035078Y0013680D02*
X0034520D01*
X0021650Y0016500D02*
Y0015294D01*
X0036720Y0008050D02*
Y0000000D01*
X0050850Y0011340D02*
X0021419D01*
X0014332Y0014220D02*
X0003500D01*
X0034740Y0014100D02*
Y0013076D01*
X0036720Y0013214D02*
Y0012650D01*
X0030600Y0016334D02*
Y0014900D01*
X0030355Y0016580D02*
X0032034Y0014900D01*
X0027180Y0018156D02*
Y0017400D01*
X0020140Y0012960D02*
X0018606D01*
X0028294Y0017640D02*
X0026416D01*
X0039350Y0003420D02*
X0031236D01*
X0031284Y0021400D02*
X0031000D01*
X0030240Y0015505D02*
Y0014900D01*
X0054337Y0025380D02*
X0048664D01*
X0026858Y0018540D02*
X0026301D01*
X0028474Y0017460D02*
X0026301D01*
X0030554Y0016380D02*
X0030397D01*
X0028024Y0015660D02*
X0026432D01*
X0024959Y0017100D02*
X0024150D01*
X0024956Y0016920D02*
X0024150D01*
X0028950Y0016020D02*
X0028796D01*
X0029520Y0008050D02*
Y0003550D01*
X0014102Y0014940D02*
X0003500D01*
X0029700Y0015450D02*
Y0015116D01*
X0029880Y0015450D02*
Y0014936D01*
X0034480Y0009360D02*
X0021214D01*
X0026460Y0017698D02*
Y0017400D01*
X0026820Y0018606D02*
Y0017400D01*
X0029343Y0015473D02*
X0029916Y0014900D01*
X0035230Y0013320D02*
X0034671D01*
X0029520Y0015450D02*
Y0015296D01*
X0031994Y0014940D02*
X0029876D01*
X0049500Y0012100D02*
Y0010979D01*
X0036360Y0013461D02*
Y0012650D01*
X0036900Y0013034D02*
Y0012650D01*
X0036540Y0013394D02*
Y0012650D01*
X0040500Y0011850D02*
Y0011240D01*
X0035100Y0013568D02*
Y0012716D01*
X0012780Y0002143D02*
Y0000000D01*
X0033480Y0014100D02*
Y0013680D01*
X0027138Y0018180D02*
X0026520D01*
X0025015Y0019260D02*
X0024576D01*
X0025200Y0022539D02*
Y0022461D01*
X0027124Y0016560D02*
X0026330D01*
X0028100Y0018441D02*
Y0018000D01*
X0054464Y0024840D02*
X0054226D01*
X0008005Y0021240D02*
X0007650D01*
X0028440Y0008050D02*
Y0002548D01*
X0028260Y0008050D02*
Y0003000D01*
X0048600Y0025850D02*
Y0025809D01*
X0027540Y0008050D02*
Y0003549D01*
X0055080Y0027250D02*
Y0027150D01*
X0028100Y0018000D02*
X0026550D01*
X0028217Y0017717D02*
X0028715Y0017219D01*
X0034200Y0014100D02*
Y0013895D01*
X0014943Y0005580D02*
X0003500D01*
X0061200Y0026350D02*
Y0025096D01*
X0031094Y0015840D02*
X0030526D01*
X0030374Y0016560D02*
X0030330D01*
X0042300Y0016850D02*
Y0015900D01*
X0034380Y0014100D02*
Y0013808D01*
X0027084Y0016600D02*
X0029465Y0014219D01*
X0034020Y0014100D02*
Y0013925D01*
X0043020Y0016850D02*
Y0015900D01*
X0031274Y0015660D02*
X0030432D01*
X0041940Y0016624D02*
Y0015900D01*
X0012420Y0013418D02*
Y0003056D01*
X0034560Y0006744D02*
Y0000000D01*
X0014220Y0014332D02*
Y0004856D01*
X0044820Y0025850D02*
Y0024650D01*
X0020330Y0010080D02*
X0017150D01*
X0014097Y0014580D02*
X0003500D01*
X0069000Y0008820D02*
X0065700D01*
X0014400Y0014173D02*
Y0005036D01*
X0025920Y0015450D02*
Y0013420D01*
X0063000Y0023100D02*
Y0020316D01*
X0063180Y0023100D02*
Y0020136D01*
X0057584Y0025850D02*
X0055309D01*
X0037980Y0027250D02*
Y0026175D01*
X0007200Y0027250D02*
Y0023766D01*
X0025560Y0015450D02*
Y0013262D01*
X0039200Y0010080D02*
X0025528D01*
X0024480Y0019164D02*
Y0010930D01*
X0063540Y0023100D02*
Y0019776D01*
X0063360Y0023100D02*
Y0019956D01*
X0069000Y0018900D02*
X0064416D01*
X0051956Y0016400D02*
X0051000D01*
X0050250Y0016200D02*
X0049750D01*
X0069000Y0018000D02*
X0064650D01*
X0065505Y0024840D02*
X0064328D01*
X0016200Y0015487D02*
Y0008391D01*
X0069000Y0016740D02*
X0064650D01*
X0018321Y0015480D02*
X0017900D01*
X0036614Y0013320D02*
X0036270D01*
X0050760Y0011930D02*
Y0011300D01*
X0029326Y0012780D02*
X0026674D01*
X0034624Y0012060D02*
X0021150D01*
X0047250Y0016200D02*
X0046750D01*
X0046234Y0016560D02*
X0044766D01*
X0044250Y0016200D02*
X0043750D01*
X0056520Y0025850D02*
Y0024650D01*
X0065451Y0025200D02*
X0059105D01*
X0031140Y0014100D02*
Y0008950D01*
X0033120Y0008050D02*
Y0006436D01*
X0043380Y0026350D02*
Y0026196D01*
X0025740Y0012127D02*
Y0008950D01*
X0023220Y0015496D02*
Y0015418D01*
X0040860Y0016200D02*
Y0015900D01*
X0039200Y0010440D02*
X0025672D01*
X0016350Y0013140D02*
X0012321D01*
X0042480Y0026350D02*
Y0024650D01*
X0041400Y0026350D02*
Y0024650D01*
X0039200Y0010800D02*
X0025605D01*
X0026100Y0027250D02*
Y0024900D01*
X0039200Y0010980D02*
X0025474D01*
X0016350Y0013500D02*
X0012425D01*
X0011160Y0015568D02*
Y0013828D01*
X0003960Y0025074D02*
Y0023744D01*
X0011520Y0015450D02*
Y0014134D01*
X0011700Y0015450D02*
Y0014173D01*
X0012060Y0015453D02*
Y0014099D01*
X0030824Y0004140D02*
X0014776D01*
X0014710Y0002880D02*
X0013516D01*
X0046080Y0012100D02*
Y0010031D01*
X0050040Y0012100D02*
Y0011300D01*
X0014867Y0003240D02*
X0013876D01*
X0051120Y0016850D02*
Y0016400D01*
X0051840Y0016850D02*
Y0016400D01*
X0050940Y0016850D02*
Y0016395D01*
X0050634Y0016200D02*
X0038116D01*
X0031184Y0004500D02*
X0015136D01*
X0047520Y0016271D02*
Y0016150D01*
X0051300Y0016850D02*
Y0016400D01*
X0051660Y0016850D02*
Y0016400D01*
X0014220Y0018886D02*
Y0015168D01*
X0040680Y0016204D02*
Y0015900D01*
X0020700Y0016484D02*
Y0015141D01*
X0043560Y0016234D02*
Y0016150D01*
X0051480Y0016850D02*
Y0016400D01*
X0050717Y0016283D02*
X0050584Y0016150D01*
X0021600Y0018584D02*
Y0016693D01*
X0014760Y0014075D02*
Y0005396D01*
X0038340Y0016207D02*
Y0015976D01*
X0044640Y0025850D02*
Y0024650D01*
X0038700Y0016434D02*
Y0015900D01*
X0044280Y0016201D02*
Y0016150D01*
X0051300Y0025850D02*
Y0025150D01*
X0041040Y0016200D02*
Y0015900D01*
X0052560Y0025850D02*
Y0025150D01*
X0051480Y0025850D02*
Y0025150D01*
X0050580Y0025850D02*
Y0025150D01*
X0031364Y0004680D02*
X0015316D01*
X0041760Y0016446D02*
Y0015900D01*
X0039060Y0016850D02*
Y0015900D01*
X0053100Y0025850D02*
Y0025150D01*
X0038160Y0016200D02*
Y0016156D01*
X0053280Y0025850D02*
Y0025150D01*
X0040500Y0016260D02*
Y0015900D01*
X0052920Y0025850D02*
Y0025150D01*
X0045180Y0016850D02*
Y0016150D01*
X0036540Y0008050D02*
Y0000000D01*
X0057240Y0027250D02*
Y0027150D01*
X0065160Y0027250D02*
Y0023641D01*
X0061200Y0023100D02*
Y0022116D01*
X0045720Y0016850D02*
Y0016150D01*
X0039240Y0027250D02*
Y0027150D01*
X0069000Y0020700D02*
X0062616D01*
X0069000Y0018540D02*
X0064648D01*
X0043534Y0026350D02*
X0043351Y0026167D01*
X0060660Y0000600D02*
Y0000000D01*
X0069000Y0007920D02*
X0065773D01*
X0063650Y0006700D02*
Y0001500D01*
X0065463Y0001800D02*
X0063650D01*
X0065638Y0001260D02*
X0063570D01*
X0061740Y0000600D02*
Y0000000D01*
X0065488Y0002340D02*
X0063650D01*
X0063533Y0001217D02*
X0063035Y0000719D01*
X0062750Y0000600D02*
X0057500D01*
X0058140D02*
Y0000000D01*
X0066070Y0003240D02*
X0063650D01*
X0056160Y0000966D02*
Y0000000D01*
X0055201Y0001800D02*
X0054798D01*
X0056340Y0001026D02*
Y0000000D01*
X0060300Y0000600D02*
Y0000000D01*
X0039200Y0010260D02*
X0025631D01*
X0038700Y0011850D02*
Y0008950D01*
X0015300Y0015487D02*
Y0015141D01*
X0063456Y0024650D02*
X0061666D01*
X0060480Y0000600D02*
Y0000000D01*
X0063900Y0023100D02*
Y0019416D01*
X0033818Y0012600D02*
X0032658D01*
X0063000Y0000688D02*
Y0000000D01*
X0060660Y0026350D02*
Y0025150D01*
X0060840Y0026350D02*
Y0025150D01*
X0062280Y0025326D02*
Y0024650D01*
X0047340Y0025850D02*
Y0025641D01*
X0065724Y0002880D02*
X0063650D01*
X0054672Y0024660D02*
X0054406D01*
X0059220Y0026350D02*
Y0025035D01*
X0063672Y0024840D02*
X0061476D01*
X0061000Y0025150D02*
X0059500D01*
X0063464Y0024660D02*
X0061656D01*
X0059580Y0026350D02*
Y0025150D01*
X0054365Y0025020D02*
X0054046D01*
X0061200Y0027250D02*
Y0027150D01*
X0060120Y0026350D02*
Y0025150D01*
X0069000Y0011700D02*
X0064650D01*
X0061560Y0027250D02*
Y0027145D01*
X0021484Y0024300D02*
X0006725D01*
X0060120Y0023314D02*
Y0023196D01*
X0052380Y0025850D02*
Y0025150D01*
X0053640Y0025850D02*
Y0025150D01*
X0061560Y0023100D02*
Y0021756D01*
X0054000Y0025850D02*
Y0025062D01*
X0032040Y0014100D02*
Y0013424D01*
X0059760Y0026350D02*
Y0025150D01*
X0047369Y0025740D02*
X0044056D01*
X0037440Y0027250D02*
Y0025877D01*
X0012600Y0020100D02*
Y0016408D01*
X0069000Y0012240D02*
X0064650D01*
X0018360Y0015468D02*
Y0013206D01*
X0020350Y0012240D02*
X0019326D01*
X0020520Y0016600D02*
Y0013884D01*
X0054327Y0025200D02*
X0048605D01*
X0058844Y0024660D02*
X0055328D01*
X0039600Y0017034D02*
Y0015900D01*
X0054691Y0025850D02*
X0048577D01*
X0002880Y0022983D02*
Y0022410D01*
X0041580Y0016310D02*
Y0015900D01*
X0020880Y0014185D02*
Y0013912D01*
X0043084Y0015900D02*
X0038416D01*
X0053460Y0025850D02*
Y0025150D01*
X0025321Y0015480D02*
X0024224D01*
X0048780Y0027250D02*
Y0027150D01*
X0045360Y0027250D02*
Y0027150D01*
X0040140Y0017574D02*
Y0015900D01*
X0050580Y0027250D02*
Y0027150D01*
X0057828Y0025560D02*
X0055599D01*
X0053820Y0025850D02*
Y0025144D01*
X0057420Y0025850D02*
Y0024650D01*
X0055440Y0025850D02*
Y0025762D01*
X0043740Y0016200D02*
Y0016150D01*
X0040234Y0016560D02*
X0038766D01*
X0052020Y0025850D02*
Y0025150D01*
X0057060Y0025850D02*
Y0024650D01*
X0056880Y0025850D02*
Y0024650D01*
X0044100Y0027250D02*
Y0027150D01*
X0054400Y0025560D02*
X0048672D01*
X0043920Y0027250D02*
Y0027150D01*
X0057240Y0025850D02*
Y0024650D01*
X0058680Y0024849D02*
Y0024650D01*
X0038250Y0016200D02*
X0038116D01*
X0026640Y0012535D02*
Y0008950D01*
X0064080Y0027250D02*
Y0024920D01*
X0055980Y0025850D02*
Y0024650D01*
X0020832Y0014220D02*
X0017900D01*
X0061983Y0025380D02*
X0059164D01*
X0013140Y0015199D02*
Y0003776D01*
X0060300Y0026350D02*
Y0025150D01*
X0003780Y0027250D02*
Y0023864D01*
X0036540Y0011850D02*
Y0009096D01*
X0056700Y0027250D02*
Y0027150D01*
X0040343Y0016380D02*
X0038657D01*
X0043740Y0012674D02*
Y0011300D01*
X0043200Y0016740D02*
X0042056D01*
X0038520Y0016271D02*
Y0015900D01*
X0016560Y0007352D02*
Y0007196D01*
X0042166Y0016850D02*
X0041785Y0016469D01*
X0040500Y0017260D02*
Y0017240D01*
X0043209Y0016850D02*
X0042166D01*
X0039960Y0017394D02*
Y0015900D01*
X0025026Y0018720D02*
X0024035D01*
X0024959Y0018900D02*
X0024216D01*
X0065529Y0025740D02*
X0062873D01*
X0061920Y0025411D02*
Y0024650D01*
X0054540Y0027250D02*
Y0027150D01*
X0023078Y0014940D02*
X0021898D01*
X0025020Y0019704D02*
Y0019268D01*
X0024980Y0018180D02*
X0024107D01*
X0025084Y0017640D02*
X0024150D01*
X0020247Y0011700D02*
X0019866D01*
X0025198Y0017460D02*
X0024150D01*
X0024300Y0018984D02*
Y0015391D01*
X0024950Y0018000D02*
X0024150D01*
X0020575Y0014760D02*
X0017900D01*
X0029284Y0014400D02*
X0024059D01*
X0029104Y0014580D02*
X0024278D01*
X0023750Y0018600D02*
X0023716D01*
X0051300Y0027250D02*
Y0027150D01*
X0050040Y0027250D02*
Y0027150D01*
X0058025Y0025020D02*
X0055634D01*
X0049500Y0025850D02*
Y0025150D01*
X0028564Y0015120D02*
X0024414D01*
X0033840Y0014100D02*
Y0013906D01*
X0050940Y0027250D02*
Y0027150D01*
X0059217Y0025033D02*
X0058834Y0024650D01*
X0048600Y0027250D02*
Y0027150D01*
X0049680Y0027250D02*
Y0027150D01*
X0050220Y0025850D02*
Y0025150D01*
X0050760Y0025850D02*
Y0025150D01*
X0048420Y0027250D02*
Y0027150D01*
X0043380Y0027250D02*
Y0027150D01*
X0032400Y0012206D02*
Y0008950D01*
X0054540Y0024756D02*
Y0024650D01*
X0055800Y0025850D02*
Y0024650D01*
X0054180Y0025850D02*
Y0024886D01*
X0048960Y0027250D02*
Y0027150D01*
X0038340Y0008050D02*
Y0000000D01*
X0052740Y0027250D02*
Y0027150D01*
X0043740Y0027250D02*
Y0027150D01*
X0043560Y0027250D02*
Y0027150D01*
X0047520Y0012100D02*
Y0011300D01*
X0025380Y0009942D02*
Y0008950D01*
X0065939Y0024120D02*
X0064767D01*
X0050400Y0012100D02*
Y0011300D01*
X0018554Y0011880D02*
X0017150D01*
X0059024Y0024840D02*
X0058641D01*
X0033711Y0013860D02*
X0021039D01*
X0062460Y0025358D02*
Y0024650D01*
X0062640Y0023100D02*
Y0020676D01*
X0032400Y0014100D02*
Y0013294D01*
X0014940Y0014102D02*
Y0005576D01*
X0069000Y0023940D02*
X0067828D01*
X0037328Y0025560D02*
X0037099D01*
X0041580Y0027250D02*
Y0027150D01*
X0041940Y0026350D02*
Y0024650D01*
X0065775Y0024300D02*
X0064673D01*
X0062640Y0025449D02*
Y0024650D01*
X0023220Y0027250D02*
Y0024900D01*
X0019094Y0011340D02*
X0017150D01*
X0039600Y0026350D02*
Y0024650D01*
X0069000Y0004680D02*
X0063650D01*
X0039960Y0025595D02*
Y0024650D01*
X0039240Y0011850D02*
Y0011300D01*
X0020685Y0015120D02*
X0017900D01*
X0040860Y0025429D02*
Y0024650D01*
X0022860Y0027250D02*
Y0024900D01*
X0034920Y0027250D02*
Y0024900D01*
X0069000Y0008100D02*
X0065700D01*
X0043020Y0024865D02*
Y0024650D01*
X0047258Y0025380D02*
X0043914D01*
X0069000Y0005580D02*
X0063650D01*
X0069000Y0005400D02*
X0063650D01*
X0063800Y0006700D02*
X0063650D01*
X0069000Y0006480D02*
X0063650D01*
X0069000Y0006660D02*
X0063650D01*
X0032220Y0008050D02*
Y0005536D01*
X0028701Y0002700D02*
X0028298D01*
X0039200Y0007920D02*
X0035920D01*
X0036083Y0008280D02*
X0035864D01*
X0036180Y0011850D02*
Y0009412D01*
X0036720Y0011850D02*
Y0008950D01*
X0039200Y0007380D02*
X0035517D01*
X0013323Y0003960D02*
X0003500D01*
X0036294Y0008100D02*
X0035917D01*
X0015102Y0016380D02*
X0012992D01*
X0030420Y0000954D02*
Y0000000D01*
X0039914Y0002520D02*
X0030900D01*
X0039350Y0003240D02*
X0031056D01*
X0039734Y0002700D02*
X0030900D01*
X0025200Y0027250D02*
Y0024900D01*
X0031500Y0008050D02*
Y0004816D01*
X0025020Y0027250D02*
Y0024900D01*
X0035903Y0008460D02*
X0035744D01*
X0036540Y0027250D02*
Y0025924D01*
X0064080Y0022971D02*
Y0019236D01*
X0034740Y0011946D02*
Y0009450D01*
X0031680Y0008050D02*
Y0004996D01*
X0027180Y0027250D02*
Y0024900D01*
X0028440Y0027250D02*
Y0024900D01*
X0028260Y0015424D02*
Y0008950D01*
X0033164Y0006480D02*
X0017116D01*
X0027360Y0016324D02*
Y0008950D01*
X0029880Y0012086D02*
Y0008950D01*
X0032040Y0008050D02*
Y0005356D01*
X0021780Y0014332D02*
Y0008950D01*
X0028980Y0014704D02*
Y0008950D01*
X0049525Y0010086D02*
X0049661Y0009950D01*
X0044640Y0016362D02*
Y0016150D01*
X0018360Y0012074D02*
Y0008928D01*
X0044820Y0012406D02*
Y0011197D01*
X0029558Y0012240D02*
X0026442D01*
X0069000Y0006120D02*
X0063650D01*
X0031558Y0012240D02*
X0030442D01*
X0044640Y0012340D02*
Y0011282D01*
X0030420Y0012221D02*
Y0008950D01*
X0033480Y0012819D02*
Y0008950D01*
X0023220Y0014582D02*
Y0008950D01*
X0022860Y0015450D02*
Y0008950D01*
X0030780Y0014100D02*
Y0008950D01*
X0046800Y0025850D02*
Y0024647D01*
X0032444Y0005760D02*
X0016396D01*
X0030960Y0003144D02*
Y0002404D01*
X0014813Y0002340D02*
X0012976D01*
X0044307Y0002350D02*
X0040250D01*
X0013503Y0004140D02*
X0003500D01*
X0039467Y0002967D02*
X0039965Y0002469D01*
X0016483Y0007380D02*
X0003500D01*
X0039350Y0006700D02*
Y0003250D01*
X0025740Y0015450D02*
Y0013373D01*
X0014040Y0020100D02*
Y0019994D01*
X0069000Y0022140D02*
X0061176D01*
X0023221Y0014580D02*
X0021903D01*
X0029358Y0012960D02*
X0026641D01*
X0023441Y0014400D02*
X0021827D01*
X0069000Y0023760D02*
X0067427D01*
X0018102Y0019620D02*
X0017881D01*
X0022860Y0008050D02*
Y0003230D01*
X0026460Y0021600D02*
Y0021400D01*
X0042480Y0027250D02*
Y0027150D01*
X0021644Y0018540D02*
X0021155D01*
X0020850Y0015480D02*
X0019179D01*
X0022321D02*
X0021650D01*
X0021950Y0016020D02*
X0021650D01*
X0024480Y0010069D02*
Y0008950D01*
X0007916Y0023350D02*
X0007650Y0023084D01*
X0008102Y0019620D02*
X0002410D01*
X0023145Y0015300D02*
X0021650D01*
X0041220Y0027250D02*
Y0027150D01*
X0007164Y0020520D02*
X0002841D01*
X0041400Y0027250D02*
Y0027150D01*
X0007953Y0021060D02*
X0007756D01*
X0006967Y0020717D02*
X0007465Y0020219D01*
X0007959Y0020100D02*
X0007750D01*
X0007650Y0023084D02*
Y0021166D01*
X0007920Y0027250D02*
Y0024150D01*
X0006850Y0023250D02*
Y0021000D01*
X0066031Y0026460D02*
X0062744D01*
X0006850Y0022500D02*
X0002850D01*
X0007020Y0027250D02*
Y0025553D01*
X0066314Y0026640D02*
X0062464D01*
X0006850Y0022320D02*
X0002896D01*
X0007467Y0024033D02*
X0006969Y0023535D01*
X0008053Y0022320D02*
X0007650D01*
X0007950Y0022680D02*
X0007650D01*
X0007194Y0023760D02*
X0005927D01*
X0007950Y0023040D02*
X0007650D01*
X0006850Y0023220D02*
X0004174D01*
X0018360Y0027250D02*
Y0024150D01*
X0026280Y0027250D02*
Y0024900D01*
X0000720Y0027250D02*
Y0026900D01*
X0021600Y0027250D02*
Y0024416D01*
X0018000Y0027250D02*
Y0024150D01*
X0019800Y0027250D02*
Y0024150D01*
X0019980Y0027250D02*
Y0024150D01*
X0022039Y0024840D02*
X0006995D01*
X0037395Y0025200D02*
X0037173D01*
X0036418Y0025920D02*
X0006898D01*
X0042120Y0026350D02*
Y0024650D01*
X0035280Y0027250D02*
Y0024900D01*
X0024840Y0027250D02*
Y0024900D01*
X0036720Y0027250D02*
Y0025888D01*
X0024300Y0027250D02*
Y0024900D01*
X0034560Y0027250D02*
Y0024900D01*
X0034740Y0027250D02*
Y0024900D01*
X0017980Y0017820D02*
X0017900D01*
X0042645Y0025200D02*
X0038605D01*
X0035820Y0027250D02*
Y0024900D01*
X0036000Y0027250D02*
Y0025703D01*
X0018026Y0018720D02*
X0017900D01*
X0046620Y0027250D02*
Y0027150D01*
X0024395Y0010800D02*
X0021253D01*
X0035640Y0027250D02*
Y0024900D01*
X0040500Y0025325D02*
Y0024650D01*
X0021240Y0010786D02*
Y0010631D01*
X0024480Y0027250D02*
Y0024900D01*
X0024660Y0027250D02*
Y0024900D01*
X0022680Y0027250D02*
Y0024900D01*
X0023580Y0027250D02*
Y0024900D01*
X0037800Y0027250D02*
Y0026145D01*
X0069000Y0007740D02*
X0065800D01*
X0069000Y0010620D02*
X0065800D01*
X0056880Y0027250D02*
Y0027150D01*
X0025020Y0015731D02*
Y0011175D01*
X0030600Y0022169D02*
Y0021166D01*
X0030060Y0027250D02*
Y0024900D01*
X0015120Y0015602D02*
Y0015314D01*
X0020700Y0014359D02*
Y0013923D01*
X0010440Y0027250D02*
Y0024150D01*
X0030845Y0021960D02*
X0030548D01*
X0030916Y0021780D02*
X0030504D01*
X0030240Y0027250D02*
Y0024900D01*
X0034200Y0027250D02*
Y0024900D01*
X0033660Y0027250D02*
Y0024900D01*
X0032220Y0027250D02*
Y0024900D01*
X0032940Y0027250D02*
Y0024900D01*
X0031860Y0027250D02*
Y0024900D01*
X0029340Y0027250D02*
Y0024900D01*
X0008460Y0027250D02*
Y0024150D01*
X0052020Y0027250D02*
Y0027150D01*
X0031320Y0027250D02*
Y0024900D01*
X0032760Y0027250D02*
Y0024900D01*
X0033840Y0027250D02*
Y0024900D01*
X0027000Y0021600D02*
Y0021400D01*
X0026640Y0021600D02*
Y0021400D01*
X0013500Y0027250D02*
Y0024150D01*
X0007374Y0023940D02*
X0006328D01*
X0028416Y0022100D02*
X0028035Y0021719D01*
X0016920Y0027250D02*
Y0024150D01*
X0014220Y0027250D02*
Y0024150D01*
X0023760Y0023100D02*
Y0022400D01*
X0034020Y0012575D02*
Y0008950D01*
X0028980Y0021821D02*
Y0021179D01*
X0028204Y0015480D02*
X0026179D01*
X0014940Y0027250D02*
Y0024150D01*
X0014400Y0027250D02*
Y0024150D01*
X0030674Y0021240D02*
X0030495D01*
X0024840Y0008050D02*
Y0003202D01*
X0054720Y0027250D02*
Y0027150D01*
X0013320Y0027250D02*
Y0024150D01*
X0053100Y0027250D02*
Y0027150D01*
X0030717Y0021283D02*
X0030540Y0021105D01*
X0026820Y0021600D02*
Y0021400D01*
X0046800Y0027250D02*
Y0027150D01*
X0007968Y0022140D02*
X0007650D01*
X0025560Y0010123D02*
Y0008950D01*
X0054000Y0027250D02*
Y0027150D01*
X0017820Y0027250D02*
Y0024150D01*
X0024660Y0021600D02*
Y0021390D01*
X0029145Y0021420D02*
X0026355D01*
X0007740Y0027250D02*
Y0024150D01*
X0013683Y0004320D02*
X0003500D01*
X0025020Y0008050D02*
Y0003390D01*
X0038520Y0008050D02*
Y0000000D01*
X0044460Y0027250D02*
Y0027150D01*
X0045540Y0027250D02*
Y0027150D01*
X0052200Y0027250D02*
Y0027150D01*
X0049860Y0025850D02*
Y0025150D01*
X0025170Y0016560D02*
X0024150D01*
X0057895Y0025200D02*
X0055673D01*
X0052380Y0027250D02*
Y0027150D01*
X0054900Y0027250D02*
Y0027150D01*
X0030679Y0022140D02*
X0030549D01*
X0007959Y0020900D02*
X0007916D01*
X0000679Y0023940D02*
X0000000D01*
X0051660Y0027250D02*
Y0027150D01*
X0040320Y0016407D02*
Y0015900D01*
X0039600Y0027250D02*
Y0027150D01*
X0007996Y0021780D02*
X0007650D01*
X0027180Y0021600D02*
Y0021400D01*
X0028500D02*
X0026377D01*
X0054360Y0025850D02*
Y0025464D01*
X0007650Y0021166D02*
X0007916Y0020900D01*
X0030060Y0008050D02*
Y0003321D01*
X0008145Y0021420D02*
X0007650D01*
X0023580Y0021264D02*
Y0020900D01*
X0020584Y0016600D02*
X0019377D01*
X0028620Y0022100D02*
Y0021381D01*
X0069000Y0009900D02*
X0065700D01*
X0069000Y0012060D02*
X0064650D01*
X0014166Y0021100D02*
X0013966Y0020900D01*
X0018720Y0027250D02*
Y0024150D01*
X0028080Y0021764D02*
Y0021400D01*
X0022102Y0016380D02*
X0021650D01*
X0057780Y0027250D02*
Y0027150D01*
X0016834Y0021100D02*
X0016541D01*
X0057960Y0027250D02*
Y0027150D01*
X0058500Y0027250D02*
Y0027150D01*
X0058320Y0027250D02*
Y0027150D01*
X0058680Y0027250D02*
Y0027150D01*
X0010959Y0021100D02*
X0010500D01*
X0019440Y0016600D02*
Y0016330D01*
X0014953Y0021060D02*
X0014126D01*
X0022026Y0017280D02*
X0021036D01*
X0065704Y0026100D02*
X0062917D01*
X0019620Y0027250D02*
Y0024150D01*
X0059940Y0027250D02*
Y0027150D01*
X0059040Y0027250D02*
Y0027150D01*
X0063540Y0027250D02*
Y0024744D01*
X0060120Y0027250D02*
Y0027150D01*
X0057420Y0027250D02*
Y0027150D01*
X0060480Y0026350D02*
Y0025150D01*
X0022198Y0017460D02*
X0021155D01*
X0009900Y0020100D02*
Y0002536D01*
X0060840Y0027250D02*
Y0027150D01*
X0021584Y0018600D02*
X0021965Y0018219D01*
X0024084Y0020900D02*
X0023541D01*
X0024244Y0021060D02*
X0023547D01*
X0021980Y0017820D02*
X0021400D01*
X0055440Y0027250D02*
Y0027150D01*
X0027900Y0021629D02*
Y0021400D01*
X0024840Y0021600D02*
Y0021400D01*
X0023760Y0021444D02*
Y0020900D01*
X0024660Y0008050D02*
Y0002534D01*
X0025122Y0021400D02*
X0024750D01*
X0033300Y0027250D02*
Y0024900D01*
X0021584Y0018600D02*
X0021059D01*
X0021950Y0018000D02*
X0021425D01*
X0023040Y0008050D02*
Y0003404D01*
X0025020Y0021600D02*
Y0021400D01*
X0022170Y0016560D02*
X0021645D01*
X0024956Y0019080D02*
X0024396D01*
X0021420Y0018600D02*
Y0018082D01*
X0021240Y0018600D02*
Y0018464D01*
X0023119Y0014760D02*
X0021925D01*
X0025030Y0019714D02*
X0024035Y0018719D01*
X0020340Y0016600D02*
Y0013786D01*
X0060300Y0023153D02*
Y0023016D01*
X0062100Y0023100D02*
Y0021216D01*
X0039832Y0026100D02*
X0039166D01*
X0069000Y0022860D02*
X0064714D01*
X0035460Y0027250D02*
Y0024900D01*
X0061920Y0023100D02*
Y0021396D01*
X0029449Y0013140D02*
X0026551D01*
X0045540Y0012159D02*
Y0011298D01*
X0047880Y0016850D02*
Y0016150D01*
X0012780Y0015076D02*
Y0003416D01*
X0045084Y0012600D02*
X0045044D01*
X0045084D02*
X0045044D01*
X0069000Y0022320D02*
X0060996D01*
X0044155Y0012420D02*
X0043486D01*
X0050580Y0012100D02*
Y0011300D01*
X0050624Y0012060D02*
X0043126D01*
X0050850Y0011879D02*
Y0011127D01*
X0025920Y0012080D02*
Y0008950D01*
X0006850Y0022680D02*
X0003861D01*
X0050850Y0011160D02*
X0050800D01*
X0069000Y0018720D02*
X0064584D01*
X0063720Y0023100D02*
Y0019596D01*
X0028100Y0018360D02*
X0028051D01*
X0062460Y0023100D02*
Y0020856D01*
X0062820Y0023100D02*
Y0020496D01*
X0026100Y0015459D02*
Y0013417D01*
X0033480Y0013680D02*
X0021270D01*
X0069000Y0014760D02*
X0064650D01*
X0069000Y0013500D02*
X0064650D01*
X0069000Y0011880D02*
X0064650D01*
X0069000Y0015660D02*
X0064650D01*
X0069000Y0014040D02*
X0064650D01*
X0069000Y0013320D02*
X0064650D01*
X0019260Y0015515D02*
Y0012306D01*
X0069000Y0012420D02*
X0064650D01*
X0069000Y0014400D02*
X0064650D01*
X0069000Y0013140D02*
X0064650D01*
X0019440Y0015670D02*
Y0012126D01*
X0046980Y0025850D02*
Y0025180D01*
X0069000Y0014580D02*
X0064650D01*
X0019980Y0016600D02*
Y0011586D01*
X0045540Y0025850D02*
Y0024650D01*
X0065340Y0027250D02*
Y0011292D01*
X0033373Y0013500D02*
X0021377D01*
X0069000Y0017100D02*
X0064650D01*
X0041760Y0026350D02*
Y0024650D01*
X0034848Y0011880D02*
X0021150D01*
X0069000Y0015480D02*
X0064650D01*
X0018180Y0015553D02*
Y0013386D01*
X0069000Y0005940D02*
X0063650D01*
X0038533Y0025033D02*
X0038916Y0024650D01*
X0018720Y0015450D02*
Y0012846D01*
X0039780Y0026350D02*
Y0024650D01*
X0039420Y0026350D02*
Y0024650D01*
X0069000Y0006300D02*
X0063650D01*
X0023400Y0027250D02*
Y0024900D01*
X0021844Y0024660D02*
X0006933D01*
X0024369Y0010260D02*
X0021623D01*
X0020160Y0012922D02*
Y0011578D01*
X0018198Y0018540D02*
X0017900D01*
X0024858Y0011160D02*
X0021419D01*
X0061560Y0026124D02*
Y0024756D01*
X0040140Y0025429D02*
Y0024650D01*
X0037080Y0027250D02*
Y0025595D01*
X0042660Y0025172D02*
Y0024650D01*
X0039060Y0025994D02*
Y0024650D01*
X0025380Y0027250D02*
Y0024900D01*
X0024840Y0019524D02*
Y0011156D01*
X0023940Y0027250D02*
Y0024900D01*
X0003240Y0027250D02*
Y0023873D01*
X0025560Y0027250D02*
Y0024900D01*
X0069000Y0019980D02*
X0063336D01*
X0035460Y0011850D02*
Y0009450D01*
X0052123Y0016560D02*
X0050766D01*
X0041400Y0016221D02*
Y0015900D01*
X0008321Y0015480D02*
X0003500D01*
X0047160Y0025850D02*
Y0025333D01*
X0044460Y0025850D02*
Y0024650D01*
X0043200Y0016850D02*
Y0016016D01*
X0045360Y0025850D02*
Y0024650D01*
X0037080Y0012888D02*
Y0012650D01*
X0014701Y0002700D02*
X0013336D01*
X0039420Y0016888D02*
Y0015900D01*
X0049860Y0012100D02*
Y0011300D01*
X0031544Y0004860D02*
X0015496D01*
X0030464Y0003780D02*
X0014416D01*
X0030644Y0003960D02*
X0014596D01*
X0031004Y0004320D02*
X0014956D01*
X0046997Y0025200D02*
X0043855D01*
X0015120Y0014185D02*
Y0005756D01*
X0064440Y0027250D02*
Y0024762D01*
X0023400Y0014423D02*
Y0008950D01*
X0017643Y0008280D02*
X0017364D01*
X0069000Y0020880D02*
X0062436D01*
X0064260Y0022869D02*
Y0019056D01*
X0013680Y0003043D02*
Y0000000D01*
X0020350Y0012060D02*
X0019506D01*
X0060300Y0027250D02*
Y0027150D01*
X0013500Y0002863D02*
Y0000000D01*
X0058140Y0027250D02*
Y0027150D01*
X0010959Y0021900D02*
X0010666D01*
X0010959Y0020900D02*
X0009541D01*
X0009540Y0022450D02*
Y0022400D01*
X0010620Y0023350D02*
Y0021946D01*
X0010951Y0021960D02*
X0010606D01*
X0009720Y0023350D02*
Y0022400D01*
X0010260Y0021180D02*
Y0020900D01*
X0006850Y0021780D02*
X0002699D01*
X0009360Y0022450D02*
Y0022416D01*
X0010440Y0023350D02*
Y0022126D01*
X0008100Y0021622D02*
Y0021377D01*
X0031680Y0014100D02*
Y0013344D01*
X0025449Y0013140D02*
X0021416D01*
X0017466Y0020100D02*
X0017780Y0019785D01*
X0014580Y0021100D02*
Y0020900D01*
X0019620Y0010814D02*
Y0008950D01*
X0023550Y0023100D02*
Y0022450D01*
X0011170Y0016560D02*
X0009330D01*
X0014950Y0016020D02*
X0013368D01*
X0054360Y0025035D02*
Y0024706D01*
X0058680Y0026350D02*
Y0026150D01*
X0058860Y0026350D02*
Y0026071D01*
X0041760Y0027250D02*
Y0027150D01*
X0016350Y0014940D02*
X0015398D01*
X0039960Y0011850D02*
Y0011300D01*
X0040140Y0011850D02*
Y0011300D01*
X0040320Y0011850D02*
Y0011093D01*
X0043534Y0026350D02*
X0041077D01*
X0016380Y0005743D02*
Y0002541D01*
X0016350Y0015300D02*
X0015141D01*
X0039060Y0011850D02*
Y0008950D01*
X0040860Y0011850D02*
Y0011289D01*
X0042950Y0011160D02*
X0042116D01*
X0016350Y0015120D02*
X0015314D01*
X0035820Y0008543D02*
Y0008361D01*
X0040320Y0025349D02*
Y0024650D01*
X0038160Y0011850D02*
Y0008950D01*
X0037980Y0011850D02*
Y0008950D01*
X0037800Y0011850D02*
Y0008950D01*
X0036180Y0008183D02*
Y0000000D01*
X0035813Y0008550D02*
X0036179Y0008184D01*
X0037440Y0011850D02*
Y0008950D01*
X0037620Y0011850D02*
Y0008950D01*
X0037080Y0011850D02*
Y0008950D01*
X0035820Y0011850D02*
Y0009450D01*
X0025920Y0008050D02*
Y0003431D01*
X0039504Y0009180D02*
X0036456D01*
X0036000Y0009450D02*
X0034750D01*
X0033660Y0008050D02*
Y0006976D01*
Y0012667D02*
Y0008950D01*
X0033840Y0012594D02*
Y0008950D01*
X0017823Y0008460D02*
X0017244D01*
X0012960Y0020100D02*
Y0016391D01*
X0036360Y0008072D02*
Y0000000D01*
X0034429Y0009315D02*
X0034063Y0008950D01*
X0037260Y0011850D02*
Y0008950D01*
X0034424Y0007740D02*
X0018376D01*
X0019080Y0011354D02*
Y0008950D01*
X0035100Y0007284D02*
Y0000000D01*
X0038520Y0011850D02*
Y0008950D01*
X0010951Y0001800D02*
X0010548D01*
X0011313Y0001080D02*
X0010187D01*
X0015762Y0001440D02*
X0012487D01*
X0015710Y0001620D02*
X0012539D01*
X0018179Y0008815D02*
X0017422Y0008059D01*
X0019260Y0011174D02*
Y0008950D01*
X0018180Y0012254D02*
Y0008816D01*
X0013320Y0015388D02*
Y0003956D01*
X0014040Y0019006D02*
Y0004676D01*
X0031724Y0005040D02*
X0015676D01*
X0015300Y0014359D02*
Y0005936D01*
X0013680Y0020100D02*
Y0004316D01*
X0025411Y0012420D02*
X0021150D01*
X0013500Y0020100D02*
Y0004136D01*
X0045720Y0012101D02*
Y0011254D01*
X0034560Y0012124D02*
Y0009408D01*
X0046450Y0009950D02*
X0046161D01*
X0046450Y0010620D02*
X0046050D01*
X0015660Y0015450D02*
Y0006296D01*
X0045900Y0012100D02*
Y0011127D01*
X0021600Y0009691D02*
Y0008950D01*
X0032984Y0006300D02*
X0016936D01*
X0041940Y0011850D02*
Y0011266D01*
X0032760Y0008050D02*
Y0006076D01*
X0042660Y0011850D02*
Y0009950D01*
X0042950Y0010080D02*
X0042281D01*
X0020880Y0009336D02*
Y0008950D01*
X0042275Y0010086D02*
X0042411Y0009950D01*
X0033884Y0007200D02*
X0017836D01*
X0032624Y0005940D02*
X0016576D01*
X0042950Y0010620D02*
X0042300D01*
X0020700Y0009395D02*
Y0008950D01*
X0018183Y0008820D02*
X0017150D01*
X0023760Y0014325D02*
Y0008950D01*
X0021420Y0009471D02*
Y0008950D01*
X0049700Y0010620D02*
X0049550D01*
X0022320Y0015480D02*
Y0008950D01*
X0049700Y0010080D02*
X0049531D01*
X0031320Y0008050D02*
Y0004636D01*
X0023040Y0015451D02*
Y0008950D01*
X0034444Y0012240D02*
X0032442D01*
X0023580Y0014347D02*
Y0008950D01*
X0022680Y0015450D02*
Y0008950D01*
X0046440Y0012100D02*
Y0009950D01*
X0014580Y0014097D02*
Y0005216D01*
X0046025Y0010086D02*
X0046161Y0009950D01*
X0018720Y0011714D02*
Y0008950D01*
X0027540Y0016144D02*
Y0008950D01*
X0026460Y0012256D02*
Y0008950D01*
X0032940Y0008050D02*
Y0006256D01*
X0024691Y0009900D02*
X0021667D01*
X0017460Y0012974D02*
Y0008096D01*
X0046450Y0010440D02*
X0046050D01*
X0043858Y0012792D02*
X0043035Y0011969D01*
X0017820Y0012614D02*
Y0008456D01*
X0028080Y0015604D02*
Y0008950D01*
X0032220Y0012112D02*
Y0008950D01*
X0032940Y0014100D02*
Y0008950D01*
X0034380Y0012304D02*
Y0009266D01*
X0032580Y0012405D02*
Y0008950D01*
X0049680Y0012100D02*
Y0009950D01*
X0031342Y0012600D02*
X0030658D01*
X0003600Y0027250D02*
Y0023917D01*
X0023940Y0014352D02*
Y0008950D01*
X0030600Y0012441D02*
Y0008950D01*
X0029160Y0014524D02*
Y0008950D01*
X0031320Y0014100D02*
Y0008950D01*
X0024840Y0009844D02*
Y0008950D01*
X0049700Y0010440D02*
X0049550D01*
X0031860Y0012090D02*
Y0008950D01*
X0025020Y0009825D02*
Y0008950D01*
X0028440Y0015244D02*
Y0008950D01*
X0064285Y0022860D02*
X0060456D01*
X0064980Y0027250D02*
Y0023974D01*
X0069000Y0023220D02*
X0065114D01*
X0063956Y0023100D02*
X0060500D01*
X0069000Y0023040D02*
X0064994D01*
X0059040Y0025095D02*
Y0024856D01*
X0069000Y0023580D02*
X0065170D01*
X0033390Y0012960D02*
X0032641D01*
X0013140Y0020100D02*
Y0016301D01*
X0051840Y0027250D02*
Y0027150D01*
X0033334Y0013140D02*
X0032551D01*
X0059990Y0023325D02*
X0064530Y0018785D01*
X0056340Y0025850D02*
Y0024650D01*
Y0027250D02*
Y0027150D01*
X0058500Y0026350D02*
Y0026175D01*
X0057960Y0025095D02*
Y0024650D01*
X0058320Y0026350D02*
Y0026246D01*
X0061404Y0026280D02*
X0058286D01*
X0056160Y0025850D02*
Y0024650D01*
X0058320Y0024849D02*
Y0024650D01*
X0046440Y0025850D02*
Y0024650D01*
X0039923Y0026350D02*
X0039416D01*
X0012247Y0015300D02*
X0003500D01*
X0058216Y0026350D02*
X0058398Y0026167D01*
X0061580Y0025920D02*
X0059028D01*
X0060214Y0023220D02*
X0060096D01*
X0042840Y0024964D02*
Y0024650D01*
Y0026350D02*
Y0026036D01*
X0043200Y0024827D02*
Y0024650D01*
Y0026350D02*
Y0026173D01*
X0031860Y0014100D02*
Y0013410D01*
X0046440Y0027250D02*
Y0027150D01*
X0061334Y0026350D02*
X0058216D01*
X0043920Y0025604D02*
Y0025582D01*
X0043380Y0012314D02*
Y0011300D01*
X0030284Y0003600D02*
X0014236D01*
X0043920Y0012655D02*
Y0011300D01*
X0043020Y0026350D02*
Y0026134D01*
X0069000Y0019620D02*
X0063696D01*
X0046831Y0024840D02*
X0043391D01*
X0046080Y0025850D02*
Y0024650D01*
X0042660Y0026350D02*
Y0025828D01*
X0013860Y0020100D02*
Y0019714D01*
X0069000Y0022680D02*
X0060636D01*
X0021420Y0017918D02*
Y0016896D01*
X0057694Y0025740D02*
X0055464D01*
X0069000Y0021960D02*
X0061356D01*
X0069000Y0021060D02*
X0062256D01*
X0069000Y0020520D02*
X0062796D01*
X0057836Y0025380D02*
X0055662D01*
X0026460Y0015698D02*
Y0013244D01*
X0029340Y0014344D02*
Y0012891D01*
X0069000Y0021420D02*
X0061896D01*
X0021060Y0014102D02*
Y0013849D01*
X0025740Y0027250D02*
Y0024900D01*
X0021960Y0027250D02*
Y0024776D01*
X0028620Y0015064D02*
Y0008950D01*
X0006850Y0022860D02*
X0004051D01*
X0007014Y0023580D02*
X0004089D01*
X0004140Y0024506D02*
Y0023464D01*
X0046450Y0010080D02*
X0046031D01*
X0028800Y0014884D02*
Y0008950D01*
X0036392Y0013542D02*
X0036965Y0012969D01*
X0005073Y0023760D02*
X0003942D01*
X0039877Y0025740D02*
X0038806D01*
X0042120Y0027250D02*
Y0027150D01*
X0041940Y0027250D02*
Y0027150D01*
X0037471Y0025920D02*
X0036582D01*
X0038967Y0027033D02*
X0038101Y0026167D01*
X0017950Y0018000D02*
X0017900D01*
Y0013666D02*
X0020108Y0011458D01*
X0040500Y0027250D02*
Y0027150D01*
X0017980Y0018180D02*
X0017900D01*
X0038880Y0025814D02*
Y0024686D01*
X0037369Y0025740D02*
X0036964D01*
X0061500Y0027150D02*
X0039250D01*
X0038340Y0027250D02*
Y0026406D01*
X0038574Y0026640D02*
X0006186D01*
X0062820Y0025638D02*
Y0024650D01*
X0060660Y0027250D02*
Y0027150D01*
X0069000Y0027000D02*
X0061816D01*
X0038394Y0026460D02*
X0006469D01*
X0061380Y0027250D02*
Y0027150D01*
X0062460Y0027250D02*
Y0026641D01*
X0061920Y0027250D02*
Y0026896D01*
X0061783Y0027033D02*
X0062148Y0026667D01*
X0062100Y0027250D02*
Y0026716D01*
X0020850Y0015660D02*
X0019432D01*
X0018000Y0016771D02*
Y0016229D01*
X0018180Y0017553D02*
Y0017447D01*
X0021956Y0016920D02*
X0021396D01*
X0020804Y0016380D02*
X0019397D01*
X0022068Y0015660D02*
X0021650D01*
X0021974Y0015840D02*
X0021650D01*
X0021033Y0017283D02*
X0021530Y0016785D01*
X0021240Y0014075D02*
Y0013714D01*
X0020850Y0016334D02*
Y0015294D01*
X0021600Y0014173D02*
Y0010309D01*
X0021959Y0017100D02*
X0021216D01*
X0029464Y0014220D02*
X0021668D01*
X0020850Y0015300D02*
X0017900D01*
X0069000Y0017640D02*
X0064650D01*
X0069000Y0017460D02*
X0064650D01*
X0069000Y0009360D02*
X0065700D01*
X0012420Y0027250D02*
Y0024150D01*
X0064620Y0022836D02*
Y0018652D01*
X0064650Y0018500D02*
Y0011127D01*
X0020340Y0012714D02*
Y0011786D01*
X0020131Y0011520D02*
X0020046D01*
X0050850D02*
X0021368D01*
X0025358Y0012960D02*
X0021359D01*
X0020350Y0012420D02*
X0019146D01*
X0020350Y0011880D02*
X0019686D01*
X0020350Y0012600D02*
X0018966D01*
X0019994Y0010440D02*
X0017150D01*
X0017900Y0019500D02*
Y0013666D01*
X0069000Y0011520D02*
X0064650D01*
X0020230Y0013680D02*
X0017900D01*
X0018068Y0015660D02*
X0017900D01*
X0016350Y0012240D02*
X0003500D01*
X0020461Y0013860D02*
X0017900D01*
X0020520Y0008050D02*
Y0002550D01*
X0020785Y0009360D02*
X0017150D01*
X0034063Y0008950D02*
X0018500D01*
X0039350Y0009540D02*
X0021494D01*
X0018015Y0016740D02*
X0017900D01*
X0025638Y0013320D02*
X0021421D01*
X0025326Y0012780D02*
X0021234D01*
X0017950Y0019980D02*
X0017586D01*
X0018194Y0012240D02*
X0017150D01*
X0020078Y0013320D02*
X0018246D01*
X0021420Y0013168D02*
Y0011332D01*
X0014760Y0021100D02*
Y0020900D01*
X0018170Y0019440D02*
X0017900D01*
X0017987Y0019800D02*
X0017766D01*
X0018015Y0019260D02*
X0017900D01*
X0024471Y0010080D02*
X0021670D01*
X0017640Y0020100D02*
Y0019926D01*
X0017959Y0018900D02*
X0017900D01*
X0017820Y0020100D02*
Y0019740D01*
X0035100Y0027250D02*
Y0024900D01*
X0024120Y0027250D02*
Y0024900D01*
X0018084Y0018360D02*
X0017900D01*
X0018198Y0017460D02*
X0017900D01*
X0035865Y0025020D02*
X0007033D01*
X0037336Y0025380D02*
X0037162D01*
X0036900Y0027250D02*
Y0025794D01*
X0038160Y0027250D02*
Y0026226D01*
X0038214Y0026280D02*
X0006658D01*
X0023040Y0027250D02*
Y0024900D01*
X0037423Y0025150D02*
X0037167D01*
X0062280Y0027250D02*
Y0026674D01*
X0043380Y0024837D02*
Y0024650D01*
X0021150Y0012706D02*
Y0011794D01*
X0024336Y0010620D02*
X0021267D01*
X0021240Y0012786D02*
Y0011714D01*
X0017959Y0017100D02*
X0017900D01*
X0018026Y0017280D02*
X0017900D01*
X0022500Y0027250D02*
Y0024900D01*
X0035827Y0025200D02*
X0007049D01*
X0046620Y0025850D02*
Y0024650D01*
X0042775Y0025020D02*
X0038546D01*
X0011179Y0013140D02*
X0003500D01*
X0017956Y0019080D02*
X0017900D01*
X0021960Y0008050D02*
Y0003404D01*
X0020084Y0013140D02*
X0018426D01*
X0018000Y0015771D02*
Y0013566D01*
X0069000Y0022500D02*
X0060816D01*
X0043740Y0025036D02*
Y0024650D01*
X0069000Y0016560D02*
X0064650D01*
X0048960Y0025850D02*
Y0025150D01*
X0043560Y0024900D02*
Y0024650D01*
X0048780Y0025850D02*
Y0025150D01*
X0045720Y0025850D02*
Y0024650D01*
X0045900Y0025850D02*
Y0024650D01*
X0069000Y0015120D02*
X0064650D01*
X0069000Y0015300D02*
X0064650D01*
X0048600Y0025191D02*
Y0025150D01*
X0050850Y0011700D02*
X0021253D01*
X0018540Y0015450D02*
Y0013026D01*
X0069000Y0012600D02*
X0064650D01*
X0049140Y0025850D02*
Y0025150D01*
X0049320Y0025850D02*
Y0025150D01*
X0069000Y0016200D02*
X0064650D01*
X0060480Y0027250D02*
Y0027150D01*
X0062280Y0023100D02*
Y0021036D01*
X0055620Y0025850D02*
Y0025517D01*
X0066573Y0023760D02*
X0065123D01*
X0052200Y0025850D02*
Y0025150D01*
X0055620Y0024983D02*
Y0024650D01*
X0034264Y0012420D02*
X0032589D01*
X0061740Y0023100D02*
Y0021576D01*
X0065467Y0025020D02*
X0061296D01*
X0064006Y0023040D02*
X0060276D01*
X0018000Y0012434D02*
Y0008636D01*
X0069000Y0019080D02*
X0064236D01*
X0069000Y0019800D02*
X0063516D01*
X0069000Y0021240D02*
X0062076D01*
X0029638Y0013320D02*
X0026361D01*
X0069000Y0019440D02*
X0063876D01*
X0025558Y0012240D02*
X0021150D01*
X0064800Y0022895D02*
Y0011066D01*
X0020880Y0008050D02*
Y0003255D01*
X0020700Y0008050D02*
Y0002524D01*
X0016383Y0007020D02*
X0003500D01*
X0020701Y0002700D02*
X0020298D01*
X0022283Y0002520D02*
X0022266D01*
X0021780Y0008050D02*
Y0003499D01*
X0020867Y0003240D02*
X0020132D01*
X0020762Y0003060D02*
X0020237D01*
X0019260Y0008050D02*
Y0003513D01*
X0019620Y0001959D02*
Y0000000D01*
X0020734Y0002520D02*
X0020717D01*
X0019734Y0001980D02*
X0019717D01*
X0019762Y0001440D02*
X0019237D01*
X0019867Y0001260D02*
X0019132D01*
X0019283Y0001980D02*
X0019266D01*
X0019800Y0008050D02*
Y0003491D01*
X0019620Y0008050D02*
Y0003541D01*
X0018710Y0002880D02*
X0018289D01*
X0017460Y0006823D02*
Y0003549D01*
X0019080Y0008050D02*
Y0003431D01*
X0019980Y0001142D02*
Y0000000D01*
X0018900Y0008050D02*
Y0003279D01*
X0018540Y0007903D02*
Y0002549D01*
X0062640Y0027250D02*
Y0026551D01*
X0017280Y0006643D02*
Y0003519D01*
X0019710Y0001620D02*
X0019289D01*
X0018701Y0002700D02*
X0018298D01*
X0020283Y0002520D02*
X0020266D01*
X0019440Y0008050D02*
Y0003548D01*
X0018867Y0003240D02*
X0018132D01*
X0018762Y0003060D02*
X0018237D01*
X0017640Y0001962D02*
Y0000000D01*
X0017734Y0001980D02*
X0017717D01*
X0017063Y0003420D02*
X0015937D01*
X0018734Y0002520D02*
X0018717D01*
X0018000Y0001125D02*
Y0000000D01*
X0017762Y0001440D02*
X0017237D01*
X0017867Y0001260D02*
X0017132D01*
X0016701Y0002700D02*
X0016298D01*
X0034740Y0006924D02*
Y0000000D01*
X0016691Y0007327D02*
X0011899Y0002536D01*
X0012783Y0003420D02*
X0006121D01*
X0059220Y0027250D02*
Y0027150D01*
X0020123Y0013500D02*
X0018066D01*
X0011345Y0014040D02*
X0003500D01*
X0017283Y0001980D02*
X0017266D01*
X0016867Y0003240D02*
X0016132D01*
X0016762Y0003060D02*
X0016237D01*
X0016710Y0002880D02*
X0016289D01*
X0015701Y0001800D02*
X0012548D01*
X0016283Y0002520D02*
X0016266D01*
X0016734D02*
X0016717D01*
X0018283D02*
X0018266D01*
X0061200Y0000600D02*
Y0000000D01*
X0065752Y0001080D02*
X0063396D01*
X0066479Y0000540D02*
X0006020D01*
X0061283Y0025033D02*
X0061666Y0024650D01*
X0038340Y0011850D02*
Y0008950D01*
X0064800Y0006934D02*
Y0000000D01*
X0065555Y0001440D02*
X0063645D01*
X0065458Y0002160D02*
X0063650D01*
X0038520Y0027250D02*
Y0026586D01*
X0059220Y0000600D02*
Y0000000D01*
X0059580Y0000600D02*
Y0000000D01*
X0057420Y0000608D02*
Y0000000D01*
X0066126Y0000720D02*
X0063035D01*
X0036360Y0027250D02*
Y0025910D01*
X0056160Y0027250D02*
Y0027150D01*
X0040233Y0025380D02*
X0038664D01*
X0024328Y0010440D02*
X0021512D01*
X0069000Y0004860D02*
X0063650D01*
X0057780Y0000600D02*
Y0000000D01*
X0061560Y0000600D02*
Y0000000D01*
X0056880Y0001054D02*
Y0000000D01*
X0057060Y0000874D02*
Y0000000D01*
X0056674Y0001260D02*
X0056632D01*
X0056854Y0001080D02*
X0056437D01*
X0055080Y0001954D02*
Y0000000D01*
X0055234Y0001980D02*
X0055217D01*
X0055440Y0001179D02*
Y0000000D01*
X0055210Y0001620D02*
X0054789D01*
X0055262Y0001440D02*
X0054737D01*
X0055367Y0001260D02*
X0054632D01*
X0055563Y0001080D02*
X0054437D01*
X0054783Y0001980D02*
X0054766D01*
X0053460Y0001160D02*
Y0000000D01*
X0053210Y0001620D02*
X0052789D01*
X0053262Y0001440D02*
X0052737D01*
X0053367Y0001260D02*
X0052632D01*
X0053563Y0001080D02*
X0052437D01*
X0052020Y0000950D02*
Y0000000D01*
X0053100Y0001956D02*
Y0000000D01*
X0051120Y0001959D02*
Y0000000D01*
X0051234Y0001980D02*
X0051217D01*
X0050783D02*
X0050766D01*
X0051480Y0001142D02*
Y0000000D01*
X0051210Y0001620D02*
X0050789D01*
X0051262Y0001440D02*
X0050737D01*
X0051367Y0001260D02*
X0050632D01*
X0051563Y0001080D02*
X0050437D01*
X0049234Y0001980D02*
X0049217D01*
X0048783D02*
X0048766D01*
X0048780Y0001981D02*
Y0001928D01*
X0014760Y0004123D02*
Y0003054D01*
X0049500Y0001125D02*
Y0000000D01*
X0049210Y0001620D02*
X0048789D01*
X0049262Y0001440D02*
X0048737D01*
X0049367Y0001260D02*
X0048632D01*
X0049563Y0001080D02*
X0048437D01*
X0043560Y0002350D02*
Y0000000D01*
X0047201Y0001800D02*
X0046798D01*
X0046980Y0001950D02*
Y0000000D01*
X0047700Y0001008D02*
Y0000000D01*
X0047210Y0001620D02*
X0046789D01*
X0047262Y0001440D02*
X0046737D01*
X0047367Y0001260D02*
X0046632D01*
X0046980Y0012100D02*
Y0011300D01*
X0047520Y0001110D02*
Y0000000D01*
X0046783Y0001980D02*
X0046766D01*
X0019260Y0001500D02*
Y0000000D01*
X0004570Y0003240D02*
X0003500D01*
X0004369Y0003060D02*
X0003500D01*
X0012063Y0002700D02*
X0006883D01*
X0014734Y0002520D02*
X0013156D01*
X0015283Y0001980D02*
X0012616D01*
X0012960Y0015108D02*
Y0003596D01*
X0011179Y0013860D02*
X0003500D01*
X0012060Y0012900D02*
Y0002696D01*
X0011880Y0012837D02*
Y0002539D01*
X0011700Y0012827D02*
Y0002548D01*
X0011520Y0012865D02*
Y0002516D01*
X0011340Y0012964D02*
Y0002437D01*
X0011533Y0002520D02*
X0009967D01*
X0011210Y0002340D02*
X0010290D01*
X0011063Y0002160D02*
X0010437D01*
X0010984Y0001980D02*
X0010516D01*
X0016350Y0009000D02*
X0003500D01*
X0010960Y0001620D02*
X0010539D01*
X0011012Y0001440D02*
X0010487D01*
X0011117Y0001260D02*
X0010382D01*
X0012960Y0002323D02*
Y0000000D01*
X0010800Y0020100D02*
Y0000000D01*
X0010440Y0020100D02*
Y0002155D01*
X0010260Y0020100D02*
Y0002366D01*
X0010080Y0020100D02*
Y0002479D01*
X0010000Y0022400D02*
X0009377D01*
X0011076Y0023350D02*
X0009550D01*
X0003211Y0017640D02*
X0002770D01*
X0002700Y0017781D02*
Y0017719D01*
X0007956Y0016920D02*
X0002810D01*
X0008084Y0018360D02*
X0004166D01*
X0008026Y0017280D02*
X0002899D01*
X0000720Y0017874D02*
Y0017626D01*
X0001980Y0016659D02*
Y0016000D01*
X0003960Y0017756D02*
Y0002176D01*
X0002700Y0019781D02*
Y0018719D01*
X0002520Y0019659D02*
Y0018841D01*
X0002340Y0019606D02*
Y0018894D01*
X0002160Y0019606D02*
Y0018894D01*
X0001980Y0019659D02*
Y0018841D01*
X0007980Y0018180D02*
X0004171D01*
X0008198Y0017460D02*
X0002865D01*
X0000601Y0017280D02*
X0000000D01*
X0000720Y0018874D02*
Y0018626D01*
X0001847Y0016740D02*
X0001653D01*
X0005940Y0000514D02*
Y0000000D01*
X0003015Y0018720D02*
X0002699D01*
X0002890Y0018540D02*
X0002832D01*
X0001762Y0017820D02*
X0001737D01*
X0008170Y0019440D02*
X0001871D01*
X0008015Y0019260D02*
X0001900D01*
X0007956Y0019080D02*
X0001877D01*
X0001800Y0019781D02*
Y0019596D01*
X0000720Y0019874D02*
Y0019626D01*
X0006850Y0021240D02*
X0001900D01*
X0006984Y0020700D02*
X0002719D01*
X0002880Y0022090D02*
Y0020410D01*
X0002700Y0021781D02*
Y0020719D01*
X0002520Y0021659D02*
Y0020841D01*
X0002340Y0021606D02*
Y0020894D01*
X0002160Y0021606D02*
Y0020894D01*
X0001980Y0021659D02*
Y0020841D01*
X0007950Y0019980D02*
X0002841D01*
X0007987Y0019800D02*
X0002719D01*
X0001781Y0020700D02*
X0001719D01*
X0002090Y0020880D02*
X0001784D01*
X0000720Y0020874D02*
Y0020626D01*
X0000622Y0019080D02*
X0000000D01*
X0007020Y0020664D02*
Y0002303D01*
X0001781Y0019800D02*
X0001719D01*
X0001800Y0021781D02*
Y0021596D01*
X0000720Y0021874D02*
Y0021626D01*
X0006850Y0021960D02*
X0002832D01*
X0010620Y0021100D02*
Y0020900D01*
X0006850Y0021600D02*
X0001798D01*
X0006850Y0021420D02*
X0001877D01*
X0006850Y0021060D02*
X0001871D01*
X0003138Y0022680D02*
X0002737D01*
X0002700Y0022781D02*
Y0022719D01*
X0006850Y0022140D02*
X0002890D01*
X0006850Y0023040D02*
X0004141D01*
X0000720Y0022874D02*
Y0022626D01*
X0001620Y0016715D02*
Y0016000D01*
X0004140Y0018035D02*
Y0002743D01*
X0002700Y0023781D02*
Y0023719D01*
X0002911Y0023580D02*
X0002810D01*
X0000730Y0022860D02*
X0000000D01*
X0000720Y0023874D02*
Y0023626D01*
X0001801Y0021780D02*
X0001699D01*
X0007560Y0020148D02*
Y0000000D01*
X0041040Y0027250D02*
Y0027150D01*
X0002880Y0025090D02*
Y0024410D01*
X0002700Y0024781D02*
Y0024719D01*
X0003240Y0017627D02*
Y0016000D01*
X0003981Y0025560D02*
X0002821D01*
X0004067Y0024660D02*
X0002754D01*
X0004005Y0024840D02*
X0002754D01*
X0000613Y0024120D02*
X0000000D01*
X0002700Y0025781D02*
Y0025719D01*
X0004439Y0024120D02*
X0002887D01*
X0000720Y0024874D02*
Y0024626D01*
X0003951Y0025200D02*
X0002898D01*
X0003967Y0025020D02*
X0002858D01*
X0000600Y0026820D02*
X0000000D01*
X0000600Y0026640D02*
X0000000D01*
X0000600Y0026460D02*
X0000000D01*
X0000600Y0026280D02*
X0000000D01*
X0000600Y0026100D02*
X0000000D01*
X0000600Y0025920D02*
X0000000D01*
X0001900Y0026900D02*
Y0026798D01*
X0001937Y0026820D02*
X0001900D01*
X0004029Y0025740D02*
X0002677D01*
X0004814Y0026640D02*
X0002770D01*
X0004531Y0026460D02*
X0002865D01*
X0004342Y0026280D02*
X0002899D01*
X0004204Y0026100D02*
X0002882D01*
X0069000Y0027180D02*
X0000000D01*
X0001620Y0027250D02*
Y0026900D01*
X0001440Y0027250D02*
Y0026900D01*
X0001260Y0027250D02*
Y0026900D01*
X0001080Y0027250D02*
Y0026900D01*
X0000900Y0027250D02*
Y0026900D01*
X0000601Y0023220D02*
X0000000D01*
X0002880Y0026090D02*
Y0025410D01*
X0031523Y0013227D02*
X0032000Y0012750D01*
X0032477Y0012273D02*
X0032000Y0012750D01*
X0031523Y0012273D02*
X0032000Y0012750D01*
X0032477Y0013227D02*
X0032000Y0012750D01*
X0029523Y0013227D02*
X0030000Y0012750D01*
X0030477Y0012273D02*
X0030000Y0012750D01*
X0029523Y0012273D02*
X0030000Y0012750D01*
X0030477Y0013227D02*
X0030000Y0012750D01*
X0029523Y0013227D02*
X0030000Y0012750D01*
X0030477Y0012273D02*
X0030000Y0012750D01*
X0029523Y0012273D02*
X0030000Y0012750D01*
X0030477Y0013227D02*
X0030000Y0012750D01*
X0003023Y0018727D02*
X0003500Y0018250D01*
X0003977Y0017773D02*
X0003500Y0018250D01*
X0003023Y0017773D02*
X0003500Y0018250D01*
X0003977Y0018727D02*
X0003500Y0018250D01*
X0011273Y0013977D02*
X0011750Y0013500D01*
X0012227Y0013023D02*
X0011750Y0013500D01*
X0011273Y0013023D02*
X0011750Y0013500D01*
X0012227Y0013977D02*
X0011750Y0013500D01*
X0024523Y0010977D02*
X0025000Y0010500D01*
X0025477Y0010023D02*
X0025000Y0010500D01*
X0024523Y0010023D02*
X0025000Y0010500D01*
X0025477Y0010977D02*
X0025000Y0010500D01*
X0025523Y0013227D02*
X0026000Y0012750D01*
X0026477Y0012273D02*
X0026000Y0012750D01*
X0025523Y0012273D02*
X0026000Y0012750D01*
X0026477Y0013227D02*
X0026000Y0012750D01*
X0003023Y0023727D02*
X0003500Y0023250D01*
X0003977Y0022773D02*
X0003500Y0023250D01*
X0003023Y0022773D02*
X0003500Y0023250D01*
X0003977Y0023727D02*
X0003500Y0023250D01*
X0054523Y0025727D02*
X0055000Y0025250D01*
X0055477Y0024773D02*
X0055000Y0025250D01*
X0054523Y0024773D02*
X0055000Y0025250D01*
X0055477Y0025727D02*
X0055000Y0025250D01*
X0027540Y0018076D02*
Y0017276D01*
X0027977Y0018273D02*
X0027500Y0018750D01*
X0027023Y0018273D02*
X0027500Y0018750D01*
X0014023Y0019977D02*
X0014500Y0019500D01*
X0013971Y0019080D02*
X0012544D01*
X0014023Y0019023D02*
X0014500Y0019500D01*
X0013836Y0019620D02*
X0012397D01*
X0025523Y0013227D02*
X0026000Y0012750D01*
X0026477Y0012273D02*
X0026000Y0012750D01*
X0025523Y0012273D02*
X0026000Y0012750D01*
X0026477Y0013227D02*
X0026000Y0012750D01*
X0036180Y0013230D02*
Y0012650D01*
X0036227Y0013273D02*
X0035750Y0013750D01*
X0035273Y0013273D02*
X0035750Y0013750D01*
X0002880Y0017983D02*
Y0017410D01*
X0031523Y0013227D02*
X0032000Y0012750D01*
X0032477Y0012273D02*
X0032000Y0012750D01*
X0031523Y0012273D02*
X0032000Y0012750D01*
X0032477Y0013227D02*
X0032000Y0012750D01*
X0014273Y0015227D02*
X0014750Y0014750D01*
X0015227Y0014273D02*
X0014750Y0014750D01*
X0014273Y0014273D02*
X0014750Y0014750D01*
X0015227Y0015227D02*
X0014750Y0014750D01*
X0011068Y0015660D02*
X0009432D01*
X0013227Y0015273D02*
X0012750Y0015750D01*
X0012273Y0015273D02*
X0012750Y0015750D01*
X0013227Y0016227D02*
X0012750Y0015750D01*
X0014173Y0014400D02*
X0003500D01*
X0054691Y0024650D02*
X0054416D01*
X0021664Y0024480D02*
X0006845D01*
X0051840Y0025850D02*
Y0025150D01*
X0041580Y0026350D02*
Y0024650D01*
X0040977Y0025523D02*
X0040500Y0026000D01*
X0040023Y0025523D02*
X0040500Y0026000D01*
X0040320Y0027250D02*
Y0027150D01*
X0050800Y0016750D02*
X0050000D01*
X0049200D02*
X0050000D01*
X0049343Y0016380D02*
X0047657D01*
X0015063Y0003420D02*
X0014056D01*
X0044800Y0016750D02*
X0044000D01*
X0043200D02*
X0044000D01*
X0043343Y0016380D02*
X0041657D01*
X0038800Y0016750D02*
X0038000D01*
X0039250Y0016850D02*
X0038791D01*
X0043380Y0016343D02*
Y0016131D01*
X0030550Y0016000D02*
X0029750D01*
X0028950D02*
X0029750D01*
Y0015450D02*
Y0016000D01*
X0028996Y0021780D02*
X0028096D01*
X0028800Y0022100D02*
Y0021266D01*
X0053820Y0027250D02*
Y0027150D01*
X0030550Y0022000D02*
X0029750D01*
X0028950D02*
X0029750D01*
X0040464Y0017280D02*
X0039846D01*
X0021950Y0016000D02*
X0022750D01*
X0022015Y0016740D02*
X0021570D01*
X0022750Y0015450D02*
Y0016000D01*
X0023550Y0021000D02*
X0022750D01*
X0023940Y0008050D02*
Y0003418D01*
X0024120Y0008050D02*
Y0003255D01*
X0023916Y0021600D02*
X0023535Y0021219D01*
X0023550Y0023000D02*
X0022750D01*
X0017974Y0015840D02*
X0017900D01*
X0014950Y0016000D02*
X0015750D01*
X0015170Y0016560D02*
X0012330D01*
X0015750Y0015450D02*
Y0016000D01*
X0016550Y0021000D02*
X0015750D01*
X0014950D02*
X0015750D01*
X0009550Y0016000D02*
X0008750D01*
X0007950D02*
X0008750D01*
X0009000Y0001471D02*
Y0000000D01*
X0008750Y0015450D02*
Y0016000D01*
X0009550Y0021000D02*
X0008750D01*
X0007950D02*
X0008750D01*
X0011321Y0015480D02*
X0009179D01*
X0009360Y0015584D02*
Y0002448D01*
X0009550Y0023000D02*
X0008750D01*
X0007950D02*
X0008750D01*
X0008640Y0027250D02*
Y0024150D01*
X0007740Y0023174D02*
Y0021076D01*
X0065904Y0026346D02*
X0067000Y0025250D01*
X0068096Y0024154D02*
X0067000Y0025250D01*
X0065904Y0024154D02*
X0067000Y0025250D01*
X0068096Y0026346D02*
X0067000Y0025250D01*
X0065904Y0003096D02*
X0067000Y0002000D01*
X0068096Y0000904D02*
X0067000Y0002000D01*
X0065904Y0000904D02*
X0067000Y0002000D01*
X0068096Y0003096D02*
X0067000Y0002000D01*
X0004404Y0026346D02*
X0005500Y0025250D01*
X0006596Y0024154D02*
X0005500Y0025250D01*
X0004404Y0024154D02*
X0005500Y0025250D01*
X0006596Y0026346D02*
X0005500Y0025250D01*
X0004404Y0003096D02*
X0005500Y0002000D01*
X0006596Y0000904D02*
X0005500Y0002000D01*
X0004404Y0000904D02*
X0005500Y0002000D01*
X0006596Y0003096D02*
X0005500Y0002000D01*
X0009184Y0002316D02*
X0009750Y0001750D01*
X0010316Y0001184D02*
X0009750Y0001750D01*
X0009184Y0001184D02*
X0009750Y0001750D01*
X0010316Y0002316D02*
X0009750Y0001750D01*
X0002709Y0017709D02*
X0002250Y0017250D01*
X0001790Y0016790D02*
X0002250Y0017250D01*
X0001790Y0017709D02*
X0002250Y0017250D01*
X0002709Y0016790D02*
X0002250Y0017250D01*
X0001709Y0017709D02*
X0001250Y0017250D01*
X0000790Y0016790D02*
X0001250Y0017250D01*
X0000790Y0017709D02*
X0001250Y0017250D01*
X0001709Y0016790D02*
X0001250Y0017250D01*
X0001709Y0018709D02*
X0001250Y0018250D01*
X0000790Y0017790D02*
X0001250Y0018250D01*
X0000790Y0018709D02*
X0001250Y0018250D01*
X0001709Y0017790D02*
X0001250Y0018250D01*
X0002709Y0020709D02*
X0002250Y0020250D01*
X0001790Y0019790D02*
X0002250Y0020250D01*
X0001790Y0020709D02*
X0002250Y0020250D01*
X0002709Y0019790D02*
X0002250Y0020250D01*
X0001709Y0022709D02*
X0001250Y0022250D01*
X0000790Y0021790D02*
X0001250Y0022250D01*
X0000600Y0025740D02*
X0000000D01*
X0000180Y0027250D02*
Y0016000D01*
X0001709Y0021790D02*
X0001250Y0022250D01*
X0069000Y0000180D02*
X0003500D01*
X0011700Y0027250D02*
Y0024150D01*
X0019080Y0027250D02*
Y0024150D01*
X0011880Y0027250D02*
Y0024150D01*
X0024394Y0023040D02*
X0023550D01*
X0019440Y0027250D02*
Y0024150D01*
X0037260Y0027250D02*
Y0025150D01*
X0032400Y0027250D02*
Y0024900D01*
X0033480Y0027250D02*
Y0024900D01*
X0034380Y0027250D02*
Y0024900D01*
X0030420Y0027250D02*
Y0024900D01*
X0032580Y0027250D02*
Y0024900D01*
X0039416Y0026350D02*
X0038667Y0025601D01*
X0046750Y0024650D02*
X0038916D01*
X0014760Y0027250D02*
Y0024150D01*
X0025122Y0022600D02*
X0025000D01*
X0024840Y0022633D02*
Y0022400D01*
X0024574Y0022860D02*
X0023550D01*
X0021780Y0027250D02*
Y0024596D01*
X0050584Y0012100D02*
X0045750D01*
X0018540Y0027250D02*
Y0024150D01*
X0045180Y0012504D02*
Y0011197D01*
X0069000Y0014220D02*
X0064650D01*
X0069000Y0016020D02*
X0064650D01*
X0069000Y0015840D02*
X0064650D01*
X0069000Y0012780D02*
X0064650D01*
X0049320Y0012100D02*
Y0011197D01*
X0018900Y0015450D02*
Y0012666D01*
X0039200Y0009720D02*
X0021614D01*
X0019080Y0015456D02*
Y0012486D01*
X0022500Y0015450D02*
Y0008950D01*
X0059204Y0025020D02*
X0058974D01*
X0012420Y0017645D02*
Y0017355D01*
X0011026Y0018720D02*
X0009473D01*
X0011160Y0017568D02*
Y0017432D01*
X0015480Y0004843D02*
Y0003550D01*
X0015015Y0016740D02*
X0012484D01*
X0012420Y0016645D02*
Y0016355D01*
X0012240Y0016505D02*
Y0016495D01*
Y0017505D02*
Y0017495D01*
Y0018505D02*
Y0018495D01*
Y0019505D02*
Y0019495D01*
X0062820Y0027250D02*
Y0026361D01*
X0011160Y0016568D02*
Y0016432D01*
X0015300Y0004663D02*
Y0003524D01*
X0014185Y0015120D02*
X0012992D01*
X0012508Y0016380D02*
X0012397D01*
X0014974Y0015840D02*
X0013419D01*
X0009540Y0016895D02*
Y0016104D01*
X0009360Y0016584D02*
Y0016416D01*
X0008100Y0016622D02*
Y0016377D01*
X0010980Y0015821D02*
Y0001967D01*
X0011102Y0016380D02*
X0009397D01*
X0010987Y0016200D02*
X0009512D01*
X0010950Y0016020D02*
X0009549D01*
X0010974Y0015840D02*
X0009526D01*
X0011198Y0017460D02*
X0009301D01*
X0009540Y0017895D02*
Y0017104D01*
X0008100Y0017622D02*
Y0017377D01*
X0010980Y0016821D02*
Y0016179D01*
X0010956Y0016920D02*
X0009544D01*
X0009540Y0018895D02*
Y0018104D01*
X0009360Y0018584D02*
Y0018416D01*
X0008100Y0018622D02*
Y0018377D01*
X0011084Y0018360D02*
X0009416D01*
X0010980Y0018180D02*
X0009520D01*
X0010950Y0018000D02*
X0009550D01*
X0009540Y0019895D02*
Y0019104D01*
X0009360Y0019584D02*
Y0019416D01*
X0010959Y0020100D02*
X0009541D01*
X0011170Y0019440D02*
X0009330D01*
X0011015Y0019260D02*
X0009484D01*
X0008100Y0019622D02*
Y0019377D01*
X0010980Y0001533D02*
Y0000000D01*
X0010800Y0023350D02*
Y0021900D01*
X0007539Y0020160D02*
X0002894D01*
X0011271Y0022500D02*
X0009550D01*
X0010968Y0022140D02*
X0010426D01*
X0010800Y0021100D02*
Y0020900D01*
X0010950Y0019980D02*
X0009549D01*
X0009834Y0021600D02*
X0009377D01*
X0010968Y0022860D02*
X0009550D01*
X0010014Y0021420D02*
X0009355D01*
X0010953Y0021060D02*
X0009547D01*
X0009720Y0021600D02*
Y0020900D01*
X0009360Y0021584D02*
Y0021416D01*
X0009540Y0021600D02*
Y0021104D01*
X0016920Y0006283D02*
Y0003301D01*
X0009550Y0022450D02*
X0009316D01*
X0008100D02*
Y0022377D01*
X0012600Y0027250D02*
Y0024150D01*
X0009540Y0027250D02*
Y0024150D01*
X0009360Y0027250D02*
Y0024150D01*
X0009180Y0027250D02*
Y0024150D01*
X0009000Y0027250D02*
Y0024150D01*
X0002880Y0024090D02*
Y0023517D01*
X0007380Y0027250D02*
Y0023946D01*
X0007950Y0022500D02*
X0007650D01*
X0010980Y0027250D02*
Y0024150D01*
X0012780Y0027250D02*
Y0024150D01*
X0010996Y0023220D02*
X0009550D01*
X0010951Y0023040D02*
X0009550D01*
X0069000Y0010260D02*
X0065800D01*
X0065700Y0024406D02*
Y0011066D01*
X0065520Y0024789D02*
Y0011229D01*
X0069000Y0010800D02*
X0065798D01*
X0066171Y0023940D02*
X0065012D01*
X0065160Y0023358D02*
Y0011292D01*
X0069000Y0010440D02*
X0065800D01*
X0065540Y0002520D02*
X0063650D01*
X0064883Y0011160D02*
X0064650D01*
X0011053Y0022680D02*
X0009550D01*
X0069000Y0011160D02*
X0065616D01*
X0064440Y0022828D02*
Y0018876D01*
X0069000Y0008460D02*
X0065700D01*
X0069000Y0007020D02*
X0065749D01*
X0065700Y0009934D02*
Y0008066D01*
Y0009934D02*
Y0008066D01*
X0069000Y0008280D02*
X0065700D01*
X0069000Y0006840D02*
X0065616D01*
X0069000Y0009180D02*
X0065700D01*
X0069000Y0009000D02*
X0065700D01*
X0064980Y0023025D02*
Y0011229D01*
X0069000Y0009720D02*
X0065700D01*
X0027360Y0027250D02*
Y0024900D01*
X0062100Y0025342D02*
Y0024650D01*
X0063800Y0006934D02*
Y0006700D01*
X0027540Y0027250D02*
Y0024900D01*
X0044460Y0016242D02*
Y0016150D01*
X0031860Y0008050D02*
Y0005176D01*
X0035640Y0011850D02*
Y0009450D01*
X0034920Y0011858D02*
Y0009450D01*
X0023760Y0027250D02*
Y0024900D01*
X0069000Y0008640D02*
X0065700D01*
X0041220Y0026350D02*
Y0024650D01*
X0036360Y0011850D02*
Y0009276D01*
X0039200Y0011160D02*
X0025141D01*
X0035280Y0011850D02*
Y0009450D01*
X0016350Y0012960D02*
X0012155D01*
X0016350Y0013320D02*
X0012400D01*
X0025200Y0015539D02*
Y0011145D01*
X0025380Y0012483D02*
Y0011058D01*
X0028800Y0027250D02*
Y0024900D01*
X0028080Y0027250D02*
Y0024900D01*
X0028260Y0027250D02*
Y0024900D01*
X0027720Y0027250D02*
Y0024900D01*
X0026820Y0027250D02*
Y0024900D01*
X0011880Y0015450D02*
Y0014162D01*
X0050800Y0011300D02*
Y0011066D01*
X0018734Y0011700D02*
X0017150D01*
X0024660Y0019344D02*
Y0011083D01*
X0049700Y0011300D02*
Y0009950D01*
X0039375Y0009360D02*
X0036270D01*
X0024660Y0009917D02*
Y0008950D01*
X0029700Y0012145D02*
Y0008950D01*
X0032804Y0006120D02*
X0016756D01*
X0014762Y0003060D02*
X0013696D01*
X0048780Y0012100D02*
Y0011254D01*
X0048600Y0012100D02*
Y0011127D01*
X0048420Y0012100D02*
Y0011105D01*
X0048240Y0012100D02*
Y0011245D01*
X0050220Y0012100D02*
Y0011300D01*
X0047550D02*
Y0011066D01*
X0047633Y0011160D02*
X0047550D01*
X0048633D02*
X0048366D01*
X0049700D02*
X0049366D01*
X0049700Y0010980D02*
X0049499D01*
X0049700Y0010800D02*
X0049548D01*
X0048060Y0012100D02*
Y0011297D01*
X0047880Y0012100D02*
Y0011287D01*
X0047340Y0012100D02*
Y0011300D01*
X0047160Y0012100D02*
Y0011300D01*
X0021960Y0015895D02*
Y0008950D01*
X0018540Y0011894D02*
Y0008950D01*
X0045360Y0012324D02*
Y0011282D01*
X0015480Y0015450D02*
Y0006116D01*
X0031904Y0005220D02*
X0015856D01*
X0044050Y0011300D02*
Y0011066D01*
X0022140Y0015584D02*
Y0008950D01*
X0044133Y0011160D02*
X0044050D01*
X0045133D02*
X0044866D01*
X0046450D02*
X0045866D01*
X0046450Y0010980D02*
X0045999D01*
X0046450Y0010800D02*
X0046048D01*
X0045000Y0012546D02*
Y0010979D01*
X0027900Y0015784D02*
Y0008950D01*
X0032084Y0005400D02*
X0016036D01*
X0033344Y0006660D02*
X0017296D01*
X0042950Y0010260D02*
X0042300D01*
X0032264Y0005580D02*
X0016216D01*
X0043020Y0011955D02*
Y0011300D01*
X0042120Y0011850D02*
Y0011157D01*
X0041760Y0011850D02*
Y0011300D01*
X0041580Y0011850D02*
Y0011273D01*
X0041400Y0011850D02*
Y0011174D01*
X0041220Y0011850D02*
Y0011035D01*
X0039684Y0009000D02*
X0036636D01*
X0040300Y0011300D02*
Y0011066D01*
X0042950Y0009950D02*
X0042411D01*
X0040383Y0011160D02*
X0040300D01*
X0042480Y0011850D02*
Y0009950D01*
X0042619Y0025740D02*
X0041123D01*
X0012780Y0020100D02*
Y0016424D01*
X0016350Y0014400D02*
X0015327D01*
X0039600Y0009084D02*
Y0008950D01*
X0042941Y0026100D02*
X0041167D01*
X0039060Y0008050D02*
Y0000000D01*
X0038880Y0011850D02*
Y0008950D01*
X0021060Y0009328D02*
Y0008950D01*
X0014400Y0018832D02*
Y0015327D01*
X0014580Y0018830D02*
Y0015403D01*
X0016350Y0014580D02*
X0015403D01*
X0016350Y0014760D02*
X0015425D01*
X0069000Y0025740D02*
X0068470D01*
X0069000Y0026640D02*
X0067686D01*
X0069000Y0026460D02*
X0067969D01*
X0069000Y0026280D02*
X0068158D01*
X0069000Y0026100D02*
X0068296D01*
X0064800Y0027250D02*
Y0024105D01*
X0069000Y0024480D02*
X0068345D01*
X0069000Y0024300D02*
X0068225D01*
X0069000Y0025560D02*
X0068519D01*
X0069000Y0024660D02*
X0068433D01*
X0069000Y0024120D02*
X0068061D01*
X0069000Y0025380D02*
X0068544D01*
X0069000Y0025200D02*
X0068549D01*
X0069000Y0025020D02*
X0068533D01*
X0069000Y0024840D02*
X0068495D01*
X0069000Y0025920D02*
X0068398D01*
X0068400Y0027250D02*
Y0025915D01*
X0068220Y0027250D02*
Y0026206D01*
X0068040Y0027250D02*
Y0026399D01*
X0067860Y0027250D02*
Y0026539D01*
X0067680Y0027250D02*
Y0026643D01*
X0067500Y0027250D02*
Y0026717D01*
X0067320Y0027250D02*
Y0026766D01*
X0067140Y0027250D02*
Y0026793D01*
X0066960Y0027250D02*
Y0026799D01*
X0066780Y0027250D02*
Y0026784D01*
X0066600Y0027250D02*
Y0026747D01*
X0066420Y0027250D02*
Y0026687D01*
X0066240Y0027250D02*
Y0026601D01*
X0066060Y0027250D02*
Y0026482D01*
X0065880Y0027250D02*
Y0026321D01*
X0065700Y0027250D02*
Y0026094D01*
X0069000Y0023400D02*
X0065167D01*
X0069000Y0005220D02*
X0063650D01*
X0069000Y0005040D02*
X0063650D01*
X0069000Y0002520D02*
X0068460D01*
X0069000Y0002340D02*
X0068512D01*
X0069000Y0002160D02*
X0068542D01*
X0069000Y0001800D02*
X0068537D01*
X0069000Y0003240D02*
X0067930D01*
X0069000Y0001980D02*
X0068550D01*
X0069000Y0003060D02*
X0068131D01*
X0069000Y0002880D02*
X0068276D01*
X0069000Y0002700D02*
X0068383D01*
X0069000Y0001620D02*
X0068503D01*
X0069000Y0001440D02*
X0068445D01*
X0069000Y0001260D02*
X0068362D01*
X0069000Y0000900D02*
X0068092D01*
X0069000Y0000720D02*
X0067874D01*
X0069000Y0000540D02*
X0067520D01*
X0069000Y0014940D02*
X0064650D01*
X0068400Y0024585D02*
Y0002665D01*
X0068220Y0024294D02*
Y0002956D01*
X0068040Y0024101D02*
Y0003149D01*
X0067860Y0023960D02*
Y0003289D01*
X0067680Y0023857D02*
Y0003393D01*
X0067500Y0023783D02*
Y0003467D01*
X0067320Y0023733D02*
Y0003516D01*
X0067140Y0023706D02*
Y0003543D01*
X0066960Y0023700D02*
Y0003549D01*
X0066780Y0023716D02*
Y0003534D01*
X0066600Y0023752D02*
Y0003497D01*
X0066420Y0023812D02*
Y0003437D01*
X0066240Y0023899D02*
Y0003351D01*
X0066060Y0024017D02*
Y0003232D01*
X0065880Y0024178D02*
Y0003071D01*
X0017956Y0016920D02*
X0017900D01*
X0037691Y0026100D02*
X0006796D01*
X0044100Y0025784D02*
Y0024650D01*
X0004320Y0027250D02*
Y0026255D01*
X0038754Y0026820D02*
X0002562D01*
X0036036Y0025740D02*
X0006970D01*
X0037620Y0027250D02*
Y0026058D01*
X0035923Y0024900D02*
X0022250D01*
X0022140Y0027250D02*
Y0024884D01*
X0021334Y0024150D02*
X0007750D01*
X0035900Y0025560D02*
X0007019D01*
X0035837Y0025380D02*
X0007044D01*
X0040680Y0025349D02*
Y0024650D01*
X0008280Y0027250D02*
Y0024150D01*
X0011160Y0027250D02*
Y0024150D01*
X0006840Y0027250D02*
Y0026029D01*
X0006660Y0027250D02*
Y0026278D01*
X0006480Y0027250D02*
Y0026451D01*
X0006300Y0027250D02*
Y0026577D01*
X0006120Y0027250D02*
Y0026670D01*
X0005940Y0027250D02*
Y0026736D01*
X0005760Y0027250D02*
Y0026778D01*
X0005580Y0027250D02*
Y0026798D01*
X0005400Y0027250D02*
Y0026797D01*
X0005220Y0027250D02*
Y0026774D01*
X0005040Y0027250D02*
Y0026730D01*
X0004860Y0027250D02*
Y0026662D01*
X0004680Y0027250D02*
Y0026565D01*
X0004500Y0027250D02*
Y0026434D01*
X0038934Y0027000D02*
X0000000D01*
X0000642Y0025020D02*
X0000000D01*
X0065700Y0006934D02*
Y0002844D01*
X0013143Y0003780D02*
X0003500D01*
X0016020Y0005383D02*
Y0003358D01*
X0012603Y0003240D02*
X0006430D01*
X0012423Y0003060D02*
X0006631D01*
X0012243Y0002880D02*
X0006776D01*
X0009533Y0002520D02*
X0006960D01*
X0009210Y0002340D02*
X0007012D01*
X0009063Y0002160D02*
X0007042D01*
X0008984Y0001980D02*
X0007050D01*
X0008951Y0001800D02*
X0007037D01*
X0004671Y0023940D02*
X0002821D01*
X0007920Y0020100D02*
Y0000000D01*
X0006840Y0024471D02*
Y0002779D01*
X0006660Y0024222D02*
Y0003028D01*
X0006480Y0024049D02*
Y0003201D01*
X0006300Y0023922D02*
Y0003327D01*
X0006120Y0023829D02*
Y0003420D01*
X0005940Y0023764D02*
Y0003486D01*
X0005760Y0023722D02*
Y0003528D01*
X0005580Y0023702D02*
Y0003548D01*
X0005400Y0023703D02*
Y0003547D01*
X0005220Y0023725D02*
Y0003524D01*
X0005040Y0023770D02*
Y0003480D01*
X0004860Y0023838D02*
Y0003412D01*
X0004680Y0023935D02*
Y0003315D01*
X0004500Y0024066D02*
Y0003184D01*
X0004320Y0024245D02*
Y0003005D01*
X0003420Y0017580D02*
Y0016000D01*
X0008960Y0001620D02*
X0007003D01*
X0009012Y0001440D02*
X0006945D01*
X0009117Y0001260D02*
X0006862D01*
X0009313Y0001080D02*
X0006747D01*
X0061020Y0000600D02*
Y0000000D01*
X0057034Y0000900D02*
X0006592D01*
X0039600Y0002834D02*
Y0000000D01*
X0044783Y0001980D02*
X0031266D01*
X0032040Y0004224D02*
Y0000000D01*
X0031680Y0003864D02*
Y0000000D01*
X0030900Y0003084D02*
Y0002443D01*
X0031140Y0003324D02*
Y0002230D01*
X0045262Y0001440D02*
X0031237D01*
X0045367Y0001260D02*
X0031132D01*
X0045563Y0001080D02*
X0030937D01*
X0045210Y0001620D02*
X0031289D01*
X0039200Y0007560D02*
X0035762D01*
X0016560Y0027250D02*
Y0024150D01*
X0029520Y0027250D02*
Y0024900D01*
X0017640Y0027250D02*
Y0024150D01*
X0053750Y0025150D02*
X0048577D01*
X0004626Y0000720D02*
X0003500D01*
X0044460Y0002160D02*
X0031187D01*
X0039780Y0002654D02*
Y0000000D01*
X0035813Y0008550D02*
X0035641D01*
X0030780Y0008050D02*
Y0004096D01*
X0039200Y0007740D02*
X0035873D01*
X0029520Y0001950D02*
Y0000000D01*
X0044313Y0002340D02*
X0031040D01*
X0029734Y0001980D02*
X0029717D01*
X0029283D02*
X0029266D01*
X0034583Y0007898D02*
X0030219Y0003535D01*
X0028980Y0008050D02*
Y0003358D01*
X0027720Y0001981D02*
Y0001928D01*
X0030060Y0001082D02*
Y0000000D01*
X0029762Y0001440D02*
X0029237D01*
X0029867Y0001260D02*
X0029132D01*
X0030063Y0001080D02*
X0028937D01*
X0029710Y0001620D02*
X0029289D01*
X0029160Y0008050D02*
Y0003474D01*
X0045084Y0012600D02*
X0045465Y0012219D01*
X0028800Y0008050D02*
Y0003137D01*
X0028620Y0008050D02*
Y0002541D01*
X0028080Y0008050D02*
Y0003301D01*
X0027900Y0008050D02*
Y0003443D01*
X0031500Y0003684D02*
Y0000000D01*
X0028143Y0017820D02*
X0026520D01*
X0028867Y0003240D02*
X0028132D01*
X0028762Y0003060D02*
X0028237D01*
X0028710Y0002880D02*
X0028289D01*
X0027540Y0001951D02*
Y0000000D01*
X0028734Y0002520D02*
X0028717D01*
X0027720Y0008050D02*
Y0003519D01*
X0027360Y0008050D02*
Y0003537D01*
X0025015Y0016740D02*
X0024150D01*
X0026280Y0002572D02*
Y0002519D01*
X0027734Y0001980D02*
X0027717D01*
X0027900Y0001221D02*
Y0000000D01*
X0027762Y0001440D02*
X0027237D01*
X0027867Y0001260D02*
X0027132D01*
X0028063Y0001080D02*
X0026937D01*
X0027710Y0001620D02*
X0027289D01*
X0026640Y0008050D02*
Y0002537D01*
X0026460Y0008050D02*
Y0002549D01*
X0026280Y0008050D02*
Y0002928D01*
X0026460Y0016600D02*
Y0016301D01*
X0026280Y0012136D02*
Y0008950D01*
X0025740Y0008050D02*
Y0003513D01*
X0026100Y0001057D02*
Y0000000D01*
X0027283Y0001980D02*
X0027266D01*
X0026867Y0003240D02*
X0026132D01*
X0026762Y0003060D02*
X0026237D01*
X0026710Y0002880D02*
X0026289D01*
X0025560Y0001952D02*
Y0000000D01*
X0026734Y0002520D02*
X0026717D01*
X0025734Y0001980D02*
X0025717D01*
X0025762Y0001440D02*
X0025237D01*
X0025867Y0001260D02*
X0025132D01*
X0026063Y0001080D02*
X0024937D01*
X0025283Y0001980D02*
X0025266D01*
X0025560Y0008050D02*
Y0003548D01*
X0025380Y0008050D02*
Y0003541D01*
X0021824Y0018360D02*
X0021321D01*
X0025920Y0001199D02*
Y0000000D01*
X0023275Y0015480D02*
X0023179D01*
X0024480Y0008050D02*
Y0002550D01*
X0023940Y0023100D02*
Y0022400D01*
X0024701Y0002700D02*
X0024298D01*
X0026283Y0002520D02*
X0026266D01*
X0024334Y0023100D02*
X0024715Y0022719D01*
X0024867Y0003240D02*
X0024132D01*
X0024762Y0003060D02*
X0024237D01*
X0023734Y0001980D02*
X0023717D01*
X0023580Y0001954D02*
Y0000000D01*
X0024734Y0002520D02*
X0024717D01*
X0023762Y0001440D02*
X0023237D01*
X0023867Y0001260D02*
X0023132D01*
X0024063Y0001080D02*
X0022937D01*
X0023283Y0001980D02*
X0023266D01*
X0025068Y0015660D02*
X0024150D01*
X0023940Y0001179D02*
Y0000000D01*
X0024150Y0018000D02*
Y0015544D01*
X0023760Y0008050D02*
Y0003506D01*
X0021701Y0001800D02*
X0021298D01*
X0024283Y0002520D02*
X0024266D01*
X0022867Y0003240D02*
X0022132D01*
X0022762Y0003060D02*
X0022237D01*
X0017280Y0001572D02*
Y0000000D01*
X0022734Y0002520D02*
X0022717D01*
X0021762Y0001440D02*
X0021237D01*
X0021867Y0001260D02*
X0021132D01*
X0021283Y0001980D02*
X0021266D01*
X0020584Y0016600D02*
X0020850Y0016334D01*
X0018686Y0008050D02*
X0012536Y0001899D01*
X0021420Y0008050D02*
Y0003546D01*
X0021240Y0008050D02*
Y0003506D01*
X0022063Y0001080D02*
X0020937D01*
X0021960Y0001160D02*
Y0000000D01*
X0021060Y0008050D02*
Y0003418D01*
X0069000Y0019260D02*
X0064056D01*
X0069000Y0018360D02*
X0064650D01*
X0069000Y0017820D02*
X0064650D01*
X0033515Y0012780D02*
X0032674D01*
X0069000Y0021780D02*
X0061536D01*
X0045540Y0016850D02*
Y0016150D01*
X0061020Y0023100D02*
Y0022296D01*
X0034582Y0008100D02*
X0034456D01*
X0039200Y0007200D02*
X0035016D01*
X0039200Y0007020D02*
X0034836D01*
X0039200Y0006840D02*
X0034656D01*
X0039350Y0006660D02*
X0034476D01*
X0039350Y0006480D02*
X0034296D01*
X0039350Y0006300D02*
X0034116D01*
X0039350Y0006120D02*
X0033936D01*
X0039350Y0005940D02*
X0033756D01*
X0039350Y0005760D02*
X0033576D01*
X0039350Y0005580D02*
X0033396D01*
X0039350Y0005400D02*
X0033216D01*
X0039350Y0005220D02*
X0033036D01*
X0039350Y0005040D02*
X0032856D01*
X0039350Y0004860D02*
X0032676D01*
X0039350Y0004680D02*
X0032496D01*
X0039350Y0004500D02*
X0032316D01*
X0039350Y0004320D02*
X0032136D01*
X0039350Y0004140D02*
X0031956D01*
X0039350Y0003960D02*
X0031776D01*
X0039350Y0003780D02*
X0031596D01*
X0030960Y0008050D02*
Y0004276D01*
X0034200Y0012484D02*
Y0009086D01*
Y0008050D02*
Y0007516D01*
X0034020Y0008050D02*
Y0007336D01*
X0033840Y0008050D02*
Y0007156D01*
X0028959Y0017100D02*
X0027716D01*
X0028654Y0017280D02*
X0027536D01*
X0029102Y0016380D02*
X0028436D01*
X0028987Y0016200D02*
X0028616D01*
X0028956Y0016920D02*
X0027896D01*
X0029015Y0016740D02*
X0028076D01*
X0029170Y0016560D02*
X0028256D01*
X0028440Y0017494D02*
Y0016376D01*
X0028260Y0017674D02*
Y0016556D01*
X0028800Y0017153D02*
Y0016016D01*
X0028620Y0017314D02*
Y0016196D01*
X0058834Y0024650D02*
X0055309D01*
X0028080Y0018405D02*
Y0016736D01*
X0027900Y0018206D02*
Y0016916D01*
X0027000Y0018296D02*
Y0017400D01*
X0027720Y0018112D02*
Y0017096D01*
X0027360Y0018090D02*
Y0017384D01*
X0031634Y0015300D02*
X0029516D01*
X0031814Y0015120D02*
X0029696D01*
X0007740Y0020100D02*
Y0000000D01*
X0037440Y0012850D02*
Y0012650D01*
X0037620Y0012850D02*
Y0012650D01*
X0037800Y0012747D02*
Y0012650D01*
X0033120Y0027250D02*
Y0024900D01*
X0038700Y0027250D02*
Y0026766D01*
X0031860Y0015074D02*
Y0014900D01*
X0031680Y0015254D02*
Y0014900D01*
X0031500Y0015434D02*
Y0014900D01*
X0031320Y0015614D02*
Y0014900D01*
X0031140Y0015794D02*
Y0014900D01*
X0030960Y0015974D02*
Y0014900D01*
X0032034D02*
X0029916D01*
X0030060Y0015453D02*
Y0014900D01*
X0045264Y0012420D02*
X0044845D01*
X0030960Y0014100D02*
Y0008950D01*
X0041220Y0016200D02*
Y0015900D01*
X0020350Y0012706D02*
Y0011794D01*
X0043217Y0016033D02*
X0043084Y0015900D01*
X0027000Y0016600D02*
Y0008950D01*
X0042840Y0016850D02*
Y0015900D01*
X0039780Y0017214D02*
Y0015900D01*
X0045000Y0025850D02*
Y0024650D01*
X0069000Y0016920D02*
X0064650D01*
X0069000Y0018180D02*
X0064650D01*
X0026640Y0016600D02*
Y0012964D01*
X0029520Y0012275D02*
Y0008950D01*
X0028100Y0018180D02*
X0027861D01*
X0024300Y0014609D02*
Y0008950D01*
X0039200Y0009900D02*
X0025309D01*
X0061380Y0023100D02*
Y0021936D01*
X0050875Y0016380D02*
X0050657D01*
X0052209Y0016850D02*
X0050791D01*
X0052200Y0016740D02*
X0050800D01*
X0058500Y0024825D02*
Y0024650D01*
X0040326Y0017100D02*
X0039666D01*
X0069000Y0013860D02*
X0064650D01*
X0011099Y0013680D02*
X0003500D01*
X0046260Y0025850D02*
Y0024650D01*
X0050584Y0012100D02*
X0050715Y0011969D01*
X0048960Y0012100D02*
Y0011298D01*
X0047328Y0025560D02*
X0043922D01*
X0019800Y0016600D02*
Y0011766D01*
X0040210Y0017644D02*
X0039535Y0016969D01*
X0061020Y0026350D02*
Y0025149D01*
X0060840Y0023100D02*
Y0022476D01*
X0049209Y0016850D02*
X0047791D01*
X0049200Y0016740D02*
X0047800D01*
X0049234Y0016560D02*
X0047766D01*
X0046209Y0016850D02*
X0044791D01*
X0046200Y0016740D02*
X0044800D01*
X0061738Y0025560D02*
X0059172D01*
X0063720Y0027250D02*
Y0024864D01*
X0031500Y0014100D02*
Y0013203D01*
X0032580Y0014100D02*
Y0013095D01*
X0059040Y0026350D02*
Y0025905D01*
X0054033Y0025033D02*
X0054416Y0024650D01*
X0026820Y0016600D02*
Y0008950D01*
X0061627Y0025740D02*
X0059131D01*
X0030240Y0008050D02*
Y0003556D01*
X0049700Y0009950D02*
X0049661D01*
X0045180Y0027250D02*
Y0027150D01*
X0064260Y0027250D02*
Y0024873D01*
X0064620Y0027250D02*
Y0024517D01*
X0065655Y0024480D02*
X0064634D01*
X0043234Y0016560D02*
X0041876D01*
X0040227Y0016920D02*
X0039476D01*
X0058140Y0024929D02*
Y0024650D01*
X0032220Y0014100D02*
Y0013388D01*
X0041040Y0011850D02*
Y0011217D01*
X0040200Y0016740D02*
X0038800D01*
X0046980Y0027250D02*
Y0027150D01*
X0027720Y0021600D02*
Y0021400D01*
X0044820Y0027250D02*
Y0027150D01*
X0045000Y0027250D02*
Y0027150D01*
X0040320Y0017407D02*
Y0017093D01*
X0042300Y0026350D02*
Y0024650D01*
X0057584Y0025850D02*
X0057833Y0025601D01*
X0069000Y0012960D02*
X0064650D01*
X0056700Y0025850D02*
Y0024650D01*
X0015840Y0015450D02*
Y0006476D01*
X0039830Y0025920D02*
X0038986D01*
X0021420Y0011168D02*
Y0010528D01*
X0039350Y0009700D02*
X0039200D01*
X0040320Y0002350D02*
Y0000000D01*
X0034020Y0027250D02*
Y0024900D01*
X0031680Y0027250D02*
Y0024900D01*
X0021780Y0018404D02*
Y0015168D01*
X0038880Y0008050D02*
Y0000000D01*
X0038700Y0008050D02*
Y0000000D01*
X0013680Y0027250D02*
Y0024150D01*
X0047160Y0027250D02*
Y0027150D01*
X0048240Y0027250D02*
Y0027150D01*
X0018014Y0012420D02*
X0017150D01*
X0049140Y0027250D02*
Y0027150D01*
X0045900Y0027250D02*
Y0027150D01*
X0050760Y0027250D02*
Y0027150D01*
X0050040Y0025850D02*
Y0025150D01*
X0050940Y0025850D02*
Y0025150D01*
X0051120Y0025850D02*
Y0025150D01*
X0050400Y0027250D02*
Y0027150D01*
X0039240Y0016850D02*
Y0015900D01*
X0046080Y0027250D02*
Y0027150D01*
X0054536Y0025740D02*
X0048631D01*
X0031860Y0004044D02*
Y0000000D01*
X0021420Y0014097D02*
Y0013332D01*
X0051660Y0025850D02*
Y0025150D01*
X0030780Y0016154D02*
Y0014900D01*
X0030240Y0016505D02*
Y0016495D01*
X0027533Y0017283D02*
X0028973Y0015843D01*
X0029160Y0016568D02*
Y0016432D01*
X0028980Y0016821D02*
Y0016179D01*
X0010620Y0027250D02*
Y0024150D01*
X0017280Y0027250D02*
Y0024150D01*
X0030734Y0016200D02*
X0030512D01*
X0049320Y0027250D02*
Y0027150D01*
X0031140Y0021544D02*
Y0021400D01*
X0030420Y0021645D02*
Y0021355D01*
X0030240Y0021505D02*
Y0021495D01*
X0007560Y0027250D02*
Y0024102D01*
X0010260Y0027250D02*
Y0024150D01*
X0028440Y0022100D02*
Y0021400D01*
X0030420Y0015645D02*
Y0014900D01*
X0028260Y0021944D02*
Y0021400D01*
X0027540Y0021600D02*
Y0021400D01*
X0019980Y0008050D02*
Y0003390D01*
X0039420Y0027250D02*
Y0027150D01*
X0055620Y0027250D02*
Y0027150D01*
X0008122Y0021600D02*
X0007650D01*
X0021240Y0027250D02*
Y0024150D01*
X0037706Y0012850D02*
X0037250D01*
X0023350Y0015576D02*
Y0015544D01*
X0027000Y0008050D02*
Y0003374D01*
X0029700Y0008050D02*
Y0003524D01*
X0042120Y0016804D02*
Y0015900D01*
X0026750Y0018600D02*
X0026377D01*
X0026949Y0018360D02*
X0026416D01*
X0031454Y0015480D02*
X0030179D01*
X0011160Y0013172D02*
Y0002290D01*
X0007020Y0024946D02*
Y0023586D01*
X0026820Y0008050D02*
Y0003171D01*
X0026280Y0016526D02*
Y0016473D01*
Y0017526D02*
Y0017473D01*
X0049500Y0027250D02*
Y0027150D01*
X0024980Y0017820D02*
X0024150D01*
X0025200Y0016539D02*
Y0016461D01*
X0029340Y0008050D02*
Y0003534D01*
X0027084Y0016600D02*
X0026377D01*
X0027304Y0016380D02*
X0026397D01*
X0027484Y0016200D02*
X0026512D01*
X0034560Y0014100D02*
Y0013627D01*
X0023716Y0018600D02*
X0024030Y0018285D01*
X0022140Y0016584D02*
Y0016416D01*
X0021960Y0016895D02*
Y0016104D01*
X0025200Y0008050D02*
Y0003491D01*
X0025198Y0018540D02*
X0023776D01*
X0025102Y0016380D02*
X0024150D01*
X0024987Y0016200D02*
X0024150D01*
X0024950Y0016020D02*
X0024150D01*
X0023086Y0015120D02*
X0021814D01*
X0022140Y0017584D02*
Y0017416D01*
X0021960Y0017895D02*
Y0017104D01*
X0025020Y0016731D02*
Y0016268D01*
X0027360Y0021600D02*
Y0021400D01*
X0023550Y0022450D02*
X0023316D01*
X0023400D02*
Y0022377D01*
X0024300Y0023100D02*
Y0022400D01*
X0024120Y0023100D02*
Y0022400D01*
X0024760Y0022680D02*
X0023550D01*
X0022320Y0027250D02*
Y0024900D01*
X0025271Y0022500D02*
X0023550D01*
X0024480Y0022954D02*
Y0022400D01*
X0023580Y0008050D02*
Y0003546D01*
X0018900Y0027250D02*
Y0024150D01*
X0020160Y0027250D02*
Y0024150D01*
X0007598Y0024120D02*
X0006561D01*
X0026280Y0015526D02*
Y0013364D01*
X0061334Y0026350D02*
X0061583Y0026101D01*
X0024120Y0018804D02*
Y0018152D01*
X0022680Y0008050D02*
Y0002529D01*
X0017460Y0027250D02*
Y0024150D01*
X0022500Y0008050D02*
Y0002550D01*
X0020160Y0008050D02*
Y0003202D01*
X0022320Y0008050D02*
Y0002529D01*
X0021060Y0017400D02*
Y0017256D01*
X0021240Y0017536D02*
Y0017076D01*
X0018084Y0017640D02*
X0017900D01*
X0019620Y0016600D02*
Y0011946D01*
X0019260Y0016515D02*
Y0016484D01*
X0018180Y0016553D02*
Y0016447D01*
X0022140Y0008050D02*
Y0003230D01*
X0020624Y0016560D02*
X0019330D01*
X0020850Y0016200D02*
X0019512D01*
X0020850Y0016020D02*
X0019549D01*
X0015120Y0016602D02*
Y0016397D01*
X0018360Y0007723D02*
Y0002537D01*
X0017280Y0013154D02*
Y0008418D01*
X0018102Y0016380D02*
X0017900D01*
X0017987Y0016200D02*
X0017900D01*
X0018180Y0018553D02*
Y0018447D01*
X0015120Y0017602D02*
Y0017397D01*
Y0018602D02*
Y0018397D01*
X0013320Y0002683D02*
Y0000000D01*
X0014040Y0020974D02*
Y0020900D01*
X0039060Y0027250D02*
Y0027102D01*
X0014760Y0002446D02*
Y0000000D01*
X0018180Y0007543D02*
Y0003171D01*
X0016874Y0021060D02*
X0016547D01*
X0057600Y0027250D02*
Y0027150D01*
X0015300Y0027250D02*
Y0024150D01*
X0014040Y0027250D02*
Y0024150D01*
X0012960Y0027250D02*
Y0024150D01*
X0016380Y0027250D02*
Y0024150D01*
X0016200Y0027250D02*
Y0024150D01*
X0016020Y0027250D02*
Y0024150D01*
X0015840Y0027250D02*
Y0024150D01*
X0015660Y0027250D02*
Y0024150D01*
X0015480Y0027250D02*
Y0024150D01*
X0021420Y0027250D02*
Y0024236D01*
X0012060Y0027250D02*
Y0024150D01*
X0011520Y0027250D02*
Y0024150D01*
X0010980Y0022821D02*
Y0022179D01*
X0016560Y0005923D02*
Y0002548D01*
X0009720Y0020100D02*
Y0002549D01*
X0009900Y0027250D02*
Y0024150D01*
X0015120Y0027250D02*
Y0024150D01*
X0009720Y0027250D02*
Y0024150D01*
X0065455Y0025380D02*
X0062517D01*
X0014040Y0003403D02*
Y0000000D01*
X0009834Y0021600D02*
X0010215Y0021219D01*
X0014959Y0021100D02*
X0014166D01*
X0013140Y0002503D02*
Y0000000D01*
X0017100Y0006463D02*
Y0003443D01*
X0010440Y0021104D02*
Y0020900D01*
X0014025Y0019980D02*
X0012549D01*
X0013895Y0019800D02*
X0012512D01*
X0014191Y0020100D02*
X0012541D01*
X0013869Y0019260D02*
X0012484D01*
X0012420Y0019645D02*
Y0019355D01*
X0015840Y0005203D02*
Y0003474D01*
X0065481Y0025560D02*
X0062762D01*
X0010959Y0018900D02*
X0009541D01*
X0012420Y0018645D02*
Y0018355D01*
X0015660Y0005023D02*
Y0003534D01*
X0015084Y0018360D02*
X0012416D01*
X0014980Y0018180D02*
X0012520D01*
X0010980Y0023350D02*
Y0023179D01*
Y0018821D02*
Y0018179D01*
X0014980Y0017820D02*
X0012520D01*
X0015198Y0017460D02*
X0012301D01*
X0010080Y0023350D02*
Y0022392D01*
X0011053Y0022320D02*
X0010240D01*
X0010260Y0023350D02*
Y0022304D01*
X0009900Y0023350D02*
Y0022400D01*
X0030240Y0012119D02*
Y0008950D01*
X0030600Y0014100D02*
Y0013059D01*
X0030420Y0014100D02*
Y0013278D01*
X0029340Y0012608D02*
Y0008950D01*
X0030060Y0014100D02*
Y0013422D01*
X0029880Y0014100D02*
Y0013414D01*
X0029700Y0014103D02*
Y0013355D01*
X0029520Y0014173D02*
Y0013224D01*
X0030240Y0014100D02*
Y0013381D01*
X0031500Y0012296D02*
Y0008950D01*
X0031638Y0013320D02*
X0030361D01*
X0031449Y0013140D02*
X0030551D01*
X0031358Y0012960D02*
X0030641D01*
X0031326Y0012780D02*
X0030674D01*
X0031411Y0012420D02*
X0030589D01*
X0007959Y0018900D02*
X0003682D01*
X0003780Y0022636D02*
Y0018864D01*
X0003600Y0022582D02*
Y0018917D01*
X0003420Y0022580D02*
Y0018920D01*
X0003240Y0022627D02*
Y0018873D01*
X0003060Y0022738D02*
Y0018762D01*
X0004140Y0023035D02*
Y0018464D01*
X0003960Y0022756D02*
Y0018744D01*
X0008026Y0018720D02*
X0003984D01*
X0008198Y0018540D02*
X0004109D01*
X0007950Y0018000D02*
X0004127D01*
X0007980Y0017820D02*
X0004020D01*
X0008084Y0017640D02*
X0003789D01*
X0016350Y0014040D02*
X0012155D01*
X0016350Y0013860D02*
X0012321D01*
X0016350Y0013680D02*
X0012400D01*
X0012420Y0015161D02*
Y0013582D01*
X0012240Y0015308D02*
Y0013964D01*
X0044280Y0025850D02*
Y0024650D01*
X0031680Y0012156D02*
Y0008950D01*
X0052200Y0016850D02*
Y0016605D01*
X0052020Y0016850D02*
Y0016474D01*
X0050580Y0016310D02*
Y0016150D01*
X0050400Y0016221D02*
Y0016150D01*
X0050220Y0016200D02*
Y0016150D01*
X0050040Y0016200D02*
Y0016150D01*
X0049860Y0016200D02*
Y0016150D01*
X0049500Y0016260D02*
Y0016150D01*
X0049320Y0016407D02*
Y0016150D01*
X0050760Y0016544D02*
Y0016320D01*
X0049680Y0016204D02*
Y0016150D01*
X0049140Y0016850D02*
Y0016150D01*
X0048960Y0016850D02*
Y0016150D01*
X0048780Y0016850D02*
Y0016150D01*
X0048600Y0016850D02*
Y0016150D01*
X0048420Y0016850D02*
Y0016150D01*
X0047700Y0016434D02*
Y0016150D01*
X0048240Y0016850D02*
Y0016150D01*
X0048060Y0016850D02*
Y0016150D01*
X0044100Y0016200D02*
Y0016150D01*
X0043920Y0016200D02*
Y0016150D01*
X0047160Y0016200D02*
Y0016150D01*
X0047340Y0016207D02*
Y0016150D01*
X0046980Y0016200D02*
Y0016150D01*
X0046800Y0016200D02*
Y0016150D01*
X0046620Y0016215D02*
Y0016150D01*
X0046440Y0016296D02*
Y0016150D01*
X0046260Y0016500D02*
Y0016150D01*
X0046080Y0016850D02*
Y0016150D01*
X0045000Y0016850D02*
Y0016150D01*
X0045900Y0016850D02*
Y0016150D01*
G01X0028500Y0000950D02*
G03X0029300Y0001750I0000000J0000800D01*
G01X0029735Y0001985D02*
G03X0029700Y0001750I0000765J0000235D01*
G01X0029264Y0001985D02*
G03X0029500Y0001949I0000236J0000765D01*
G01X0028300Y0002750D02*
G03X0027500Y0003550I0000800J0000000D01*
G03X0026700Y0002750I0000000J0000800D01*
G01X0025700Y0001750D02*
G03X0026500Y0000950I0000800J0000000D01*
G03X0027300Y0001750I0000000J0000800D01*
G01X0027735Y0001985D02*
G03X0027700Y0001750I0000765J0000235D01*
G01X0026300Y0002750D02*
G03X0025500Y0003550I0000800J0000000D01*
G03X0024700Y0002750I0000000J0000800D01*
G01X0023700Y0001750D02*
G03X0024500Y0000950I0000800J0000000D01*
G03X0025300Y0001750I0000000J0000800D01*
G01X0025735Y0001985D02*
G03X0025700Y0001750I0000765J0000235D01*
G01X0025264Y0001985D02*
G03X0025500Y0001949I0000236J0000765D01*
G01X0024300Y0002750D02*
G03X0023500Y0003550I0000800J0000000D01*
G03X0022700Y0002750I0000000J0000800D01*
G01X0021700Y0001750D02*
G03X0022500Y0000950I0000800J0000000D01*
G03X0023300Y0001750I0000000J0000800D01*
G01X0023735Y0001985D02*
G03X0023700Y0001750I0000765J0000235D01*
G01X0022300Y0002750D02*
G03X0021500Y0003550I0000800J0000000D01*
G03X0020700Y0002750I0000000J0000800D01*
G01X0019700Y0001750D02*
G03X0020500Y0000950I0000800J0000000D01*
G03X0021300Y0001750I0000000J0000800D01*
G01X0021264Y0001985D02*
G03X0021500Y0001949I0000236J0000765D01*
G01X0020300Y0002750D02*
G03X0019500Y0003550I0000800J0000000D01*
G03X0018700Y0002750I0000000J0000800D01*
G01X0017700Y0001750D02*
G03X0018500Y0000950I0000800J0000000D01*
G03X0019300Y0001750I0000000J0000800D01*
G01X0019735Y0001985D02*
G03X0019700Y0001750I0000765J0000235D01*
G01X0019264Y0001985D02*
G03X0019500Y0001949I0000236J0000765D01*
G01X0018300Y0002750D02*
G03X0017500Y0003550I0000800J0000000D01*
G03X0016700Y0002750I0000000J0000800D01*
G01X0015700Y0001750D02*
G03X0016500Y0000950I0000800J0000000D01*
G03X0017300Y0001750I0000000J0000800D01*
G01X0014700Y0002750D02*
G03X0015500Y0001950I0000800J0000000D01*
G01X0017264Y0001985D02*
G03X0017500Y0001949I0000236J0000765D01*
G01X0016300Y0002750D02*
G03X0015500Y0003550I0000800J0000000D01*
G03X0014700Y0002750I0000000J0000800D01*
G01X0055200Y0001750D02*
G03X0056000Y0000950I0000800J0000000D01*
G01X0053200Y0001750D02*
G03X0054000Y0000950I0000800J0000000D01*
G03X0054800Y0001750I0000000J0000800D01*
G01X0055235Y0001985D02*
G03X0055200Y0001750I0000765J0000235D01*
G01X0052800D02*
G03X0052764Y0001985I0000800J0000000D01*
G01X0051200Y0001750D02*
G03X0052000Y0000950I0000800J0000000D01*
G03X0052800Y0001750I0000000J0000800D01*
G01X0053235Y0001985D02*
G03X0053200Y0001750I0000765J0000235D01*
G01X0049200D02*
G03X0050000Y0000950I0000800J0000000D01*
G03X0050800Y0001750I0000000J0000800D01*
G01X0051235Y0001985D02*
G03X0051200Y0001750I0000765J0000235D01*
G01X0050764Y0001985D02*
G03X0051000Y0001949I0000236J0000765D01*
G01X0047200Y0001750D02*
G03X0048000Y0000950I0000800J0000000D01*
G03X0048800Y0001750I0000000J0000800D01*
G01X0049235Y0001985D02*
G03X0049200Y0001750I0000765J0000235D01*
G01X0045200D02*
G03X0046000Y0000950I0000800J0000000D01*
G03X0046800Y0001750I0000000J0000800D01*
G01X0047235Y0001985D02*
G03X0047200Y0001750I0000765J0000235D01*
G01X0046764Y0001985D02*
G03X0047000Y0001949I0000236J0000765D01*
G01X0010950Y0001750D02*
G03X0011750Y0000950I0000800J0000000D01*
G03X0012550Y0001750I0000000J0000800D01*
G01X0011750Y0002550D02*
G03X0010950Y0001750I0000000J0000800D01*
G01X0008950D02*
G03X0009750Y0000950I0000800J0000000D01*
G03X0010550Y0001750I0000000J0000800D01*
G03X0009750Y0002550I0000800J0000000D01*
G03X0008950Y0001750I0000000J0000800D01*
G01X0002250Y0016600D02*
G03X0002900Y0017250I0000000J0000650D01*
G01X0003500Y0018925D02*
G03X0002862Y0018470I0000000J0000675D01*
G01X0002900Y0017250D02*
G03X0002665Y0017750I0000650J0000000D01*
G01X0000600Y0017250D02*
G03X0001250Y0016600I0000650J0000000D01*
G01X0011271Y0018500D02*
G03X0010950Y0018000I0000229J0000500D01*
G01X0000835Y0017750D02*
G03X0000600Y0017250I0000415J0000500D01*
G01X0002862Y0018470D02*
G03X0002250Y0018900I0000612J0000220D01*
G01X0001750Y0017665D02*
G03X0001665Y0017750I0000500J0000415D01*
G03X0001750Y0017835I0000415J0000500D01*
G01X0000600Y0019250D02*
G03X0000835Y0018750I0000650J0000000D01*
G01X0001900Y0019250D02*
G03X0001665Y0019750I0000650J0000000D01*
G01X0000835D02*
G03X0000600Y0019250I0000415J0000500D01*
G01X0002250Y0019600D02*
G03X0002900Y0020250I0000000J0000650D01*
G03X0002250Y0020900I0000650J0000000D01*
G01X0001750Y0019835D02*
G03X0002250Y0019600I0000500J0000415D01*
G01X0001665Y0019750D02*
G03X0001750Y0019835I0000415J0000500D01*
G01X0000600Y0020250D02*
G03X0000835Y0019750I0000650J0000000D01*
G01X0000600Y0021250D02*
G03X0000835Y0020750I0000650J0000000D01*
G01X0001900Y0021250D02*
G03X0001665Y0021750I0000650J0000000D01*
G01X0000835D02*
G03X0000600Y0021250I0000415J0000500D01*
G01X0002250Y0021600D02*
G03X0002900Y0022250I0000000J0000650D01*
G01X0003500Y0023925D02*
G03X0002862Y0023470I0000000J0000675D01*
G01X0002900Y0022250D02*
G03X0002665Y0022750I0000650J0000000D01*
G01X0001665Y0021750D02*
G03X0001750Y0021835I0000415J0000500D01*
G01X0000835Y0022750D02*
G03X0000600Y0022250I0000415J0000500D01*
Y0023250D02*
G03X0000835Y0022750I0000650J0000000D01*
G01X0002665D02*
G03X0002862Y0023030I0000415J0000500D01*
G01X0001665Y0022750D02*
G03X0001750Y0022835I0000415J0000500D01*
G01X0000835Y0023750D02*
G03X0000600Y0023250I0000415J0000500D01*
G01X0002900Y0024250D02*
G03X0002665Y0024750I0000650J0000000D01*
G01X0000600Y0018250D02*
G03X0000835Y0017750I0000650J0000000D01*
G01X0001665Y0018750D02*
G03X0001900Y0019250I0000415J0000500D01*
G01X0000835Y0024750D02*
G03X0000600Y0024250I0000415J0000500D01*
G03X0000835Y0023750I0000650J0000000D01*
G01X0000702Y0025600D02*
G03X0000600Y0025250I0000548J0000350D01*
G01X0001750Y0022665D02*
G03X0001665Y0022750I0000500J0000415D01*
G01X0002900Y0026250D02*
G03X0002250Y0026900I0000650J0000000D01*
G01X0002665Y0025750D02*
G03X0002900Y0026250I0000415J0000500D01*
Y0025250D02*
G03X0002665Y0025750I0000650J0000000D01*
G01X0015735Y0001985D02*
G03X0015700Y0001750I0000765J0000235D01*
G01X0062750Y0000600D02*
G03X0063033Y0000717I0000000J0000400D01*
G01X0053000Y0001950D02*
G03X0053235Y0001985I0000000J0000800D01*
G01X0052764D02*
G03X0053000Y0001949I0000236J0000765D01*
G01X0051000Y0001950D02*
G03X0051235Y0001985I0000000J0000800D01*
G01X0049000Y0001950D02*
G03X0049235Y0001985I0000000J0000800D01*
G01X0047000Y0001950D02*
G03X0047235Y0001985I0000000J0000800D01*
G01X0036318Y0009318D02*
G03X0036000Y0009450I0000318J0000318D01*
G01X0035925Y0008000D02*
G03X0035641Y0008550I0000675J0000000D01*
G01X0034000Y0012575D02*
G03X0034101Y0012583I0000000J0000675D01*
G01X0027500Y0001950D02*
G03X0027735Y0001985I0000000J0000800D01*
G01X0027264D02*
G03X0027500Y0001949I0000236J0000765D01*
G01X0021735Y0001985D02*
G03X0021700Y0001750I0000765J0000235D01*
G01X0017300D02*
G03X0017264Y0001985I0000800J0000000D01*
G01X0012550Y0001750D02*
G03X0012536Y0001899I0000800J0000000D01*
G01X0016541Y0020900D02*
G03X0016550Y0021000I0000541J0000100D01*
G01X0009229Y0019500D02*
G03X0009550Y0020000I0000229J0000500D01*
Y0017000D02*
G03X0009229Y0017500I0000550J0000000D01*
G01X0008184Y0022450D02*
G03X0007950Y0022000I0000316J0000450D01*
G01X0006850Y0021000D02*
G03X0006967Y0020717I0000400J0000000D01*
G01X0009550Y0020000D02*
G03X0009541Y0020100I0000550J0000000D01*
G01X0039250Y0027150D02*
G03X0038967Y0027033I0000000J0000400D01*
G01X0002250Y0026900D02*
G03X0001900Y0026798I0000000J0000650D01*
G01X0001835Y0022750D02*
G03X0001750Y0022665I0000415J0000500D01*
Y0021835D02*
G03X0002250Y0021600I0000500J0000415D01*
G01X0000600Y0022250D02*
G03X0000835Y0021750I0000650J0000000D01*
G01X0002250Y0020900D02*
G03X0001750Y0020665I0000000J0000650D01*
G01X0000835Y0018750D02*
G03X0000600Y0018250I0000415J0000500D01*
G01X0001750Y0016835D02*
G03X0002250Y0016600I0000500J0000415D01*
G01X0020850Y0015294D02*
G03X0020575Y0014750I0000400J0000544D01*
G01X0036967Y0012967D02*
G03X0037250Y0012850I0000283J0000283D01*
G01X0034717Y0011967D02*
G03X0035000Y0011850I0000283J0000283D01*
G01X0017422Y0008059D02*
G03X0017150Y0008544I0000672J0000059D01*
G01X0030101Y0003278D02*
G03X0029500Y0003550I0000601J0000528D01*
G01X0038800Y0016750D02*
G03X0038791Y0016850I0000550J0000000D01*
G01X0057833Y0025601D02*
G03X0057825Y0025500I0000667J0000101D01*
G01X0040200Y0016750D02*
G03X0040750Y0016200I0000550J0000000D01*
G01X0040521Y0017250D02*
G03X0040200Y0016750I0000229J0000500D01*
G01X0038250Y0016200D02*
G03X0038800Y0016750I0000000J0000550D01*
G01X0054691Y0025850D02*
G03X0054325Y0025250I0000309J0000600D01*
G01X0034615Y0008228D02*
G03X0034575Y0008000I0000635J0000228D01*
G01X0041250Y0016200D02*
G03X0041660Y0016383I0000000J0000550D01*
G01X0034667Y0013148D02*
G03X0034675Y0013250I0000667J0000102D01*
G01X0030000Y0015450D02*
G03X0030550Y0016000I0000000J0000550D01*
G01X0029271Y0016500D02*
G03X0028950Y0016000I0000229J0000500D01*
G01X0030550D02*
G03X0030229Y0016500I0000550J0000000D01*
G01X0028950Y0017000D02*
G03X0029271Y0016500I0000550J0000000D01*
G01X0028783Y0021283D02*
G03X0028500Y0021400I0000283J0000283D01*
G01X0030534Y0022133D02*
G03X0030643Y0022203I0000159J0000367D01*
G01X0028950Y0022000D02*
G03X0029271Y0021500I0000550J0000000D01*
G01X0025271Y0022500D02*
G03X0025122Y0022400I0000229J0000500D01*
G01X0023470Y0022285D02*
G03X0023316Y0022450I0000470J0000285D01*
G01X0024950Y0019000D02*
G03X0025271Y0018500I0000550J0000000D01*
Y0019500D02*
G03X0024950Y0019000I0000229J0000500D01*
Y0018000D02*
G03X0025271Y0017500I0000550J0000000D01*
Y0018500D02*
G03X0024950Y0018000I0000229J0000500D01*
G01X0023350Y0015544D02*
G03X0023075Y0015000I0000400J0000544D01*
G01X0024950Y0017000D02*
G03X0025271Y0016500I0000550J0000000D01*
G01X0024950Y0016000D02*
G03X0025500Y0015450I0000550J0000000D01*
G01X0026000D02*
G03X0026550Y0016000I0000000J0000550D01*
G01X0025271Y0016500D02*
G03X0024950Y0016000I0000229J0000500D01*
G01X0021950D02*
G03X0022500Y0015450I0000550J0000000D01*
G01X0022271Y0016500D02*
G03X0021950Y0016000I0000229J0000500D01*
G01X0023000Y0015450D02*
G03X0023350Y0015576I0000000J0000550D01*
G01X0021950Y0017000D02*
G03X0022271Y0016500I0000550J0000000D01*
Y0017500D02*
G03X0021950Y0017000I0000229J0000500D01*
G01X0024150Y0018000D02*
G03X0024033Y0018283I0000400J0000000D01*
G01X0021950Y0018000D02*
G03X0022271Y0017500I0000550J0000000D01*
G01X0026550Y0018000D02*
G03X0026229Y0018500I0000550J0000000D01*
G01X0017950Y0020000D02*
G03X0018271Y0019500I0000550J0000000D01*
G01X0017950Y0019000D02*
G03X0018271Y0018500I0000550J0000000D01*
Y0019500D02*
G03X0017950Y0019000I0000229J0000500D01*
Y0018000D02*
G03X0018271Y0017500I0000550J0000000D01*
G01X0017950Y0017000D02*
G03X0018271Y0016500I0000550J0000000D01*
Y0017500D02*
G03X0017950Y0017000I0000229J0000500D01*
G01X0021650Y0016500D02*
G03X0021533Y0016783I0000400J0000000D01*
G01X0017950Y0016000D02*
G03X0018500Y0015450I0000550J0000000D01*
G01X0019000D02*
G03X0019550Y0016000I0000000J0000550D01*
G01X0018271Y0016500D02*
G03X0017950Y0016000I0000229J0000500D01*
G01X0019550D02*
G03X0019229Y0016500I0000550J0000000D01*
G01X0014950Y0016000D02*
G03X0015500Y0015450I0000550J0000000D01*
G01X0015271Y0016500D02*
G03X0014950Y0016000I0000229J0000500D01*
G01X0016000Y0015450D02*
G03X0016273Y0015522I0000000J0000550D01*
G01X0014950Y0017000D02*
G03X0015271Y0016500I0000550J0000000D01*
Y0017500D02*
G03X0014950Y0017000I0000229J0000500D01*
Y0018000D02*
G03X0015271Y0017500I0000550J0000000D01*
Y0018500D02*
G03X0014950Y0018000I0000229J0000500D01*
G01X0026750Y0018600D02*
G03X0026839Y0018610I0000000J0000400D01*
G01X0014500Y0018825D02*
G03X0014950Y0018997I0000000J0000675D01*
G01X0014959Y0021100D02*
G03X0014950Y0021000I0000541J0000100D01*
G01X0010950Y0023000D02*
G03X0011271Y0022500I0000550J0000000D01*
G03X0010950Y0022000I0000229J0000500D01*
G01X0009541Y0020900D02*
G03X0009550Y0021000I0000541J0000100D01*
G01X0010950Y0020000D02*
G03X0011271Y0019500I0000550J0000000D01*
G01X0010950Y0019000D02*
G03X0011271Y0018500I0000550J0000000D01*
Y0019500D02*
G03X0010950Y0019000I0000229J0000500D01*
G01X0012550D02*
G03X0012229Y0019500I0000550J0000000D01*
G01X0010950Y0018000D02*
G03X0011271Y0017500I0000550J0000000D01*
G01X0012550Y0018000D02*
G03X0012229Y0018500I0000550J0000000D01*
G01X0012750Y0016425D02*
G03X0012429Y0016344I0000000J0000675D01*
G01X0010950Y0017000D02*
G03X0011271Y0016500I0000550J0000000D01*
Y0017500D02*
G03X0010950Y0017000I0000229J0000500D01*
Y0016000D02*
G03X0011500Y0015450I0000550J0000000D01*
G01X0011271Y0016500D02*
G03X0010950Y0016000I0000229J0000500D01*
G01X0012000Y0015450D02*
G03X0012137Y0015467I0000000J0000550D01*
G01X0007950Y0016000D02*
G03X0008500Y0015450I0000550J0000000D01*
G01X0009000D02*
G03X0009550Y0016000I0000000J0000550D01*
G01X0008271Y0016500D02*
G03X0007950Y0016000I0000229J0000500D01*
G01X0009229Y0018500D02*
G03X0009550Y0019000I0000229J0000500D01*
G01X0007950Y0017000D02*
G03X0008271Y0016500I0000550J0000000D01*
G01X0002665Y0017750D02*
G03X0002862Y0018030I0000415J0000500D01*
G01X0007950Y0018000D02*
G03X0008271Y0017500I0000550J0000000D01*
Y0018500D02*
G03X0007950Y0018000I0000229J0000500D01*
Y0019000D02*
G03X0008271Y0018500I0000550J0000000D01*
Y0019500D02*
G03X0007950Y0019000I0000229J0000500D01*
Y0020000D02*
G03X0008271Y0019500I0000550J0000000D01*
G01X0012229Y0016500D02*
G03X0012550Y0017000I0000229J0000500D01*
G01X0009550Y0019000D02*
G03X0009229Y0019500I0000550J0000000D01*
G01X0008271Y0021500D02*
G03X0007950Y0021000I0000229J0000500D01*
Y0022000D02*
G03X0008271Y0021500I0000550J0000000D01*
G01X0065800Y0010750D02*
G03X0065250Y0011300I0000550J0000000D01*
Y0006700D02*
G03X0065800Y0007250I0000000J0000550D01*
G01X0064750Y0007021D02*
G03X0065250Y0006700I0000500J0000229D01*
G01X0065800Y0007750D02*
G03X0065700Y0008066I0000550J0000000D01*
G01X0049550Y0010750D02*
G03X0049000Y0011300I0000550J0000000D01*
G01X0046050Y0010750D02*
G03X0045500Y0011300I0000550J0000000D01*
G01X0046025Y0010086D02*
G03X0046050Y0010250I0000525J0000164D01*
G01X0044307Y0002350D02*
G03X0045000Y0001950I0000693J0000400D01*
G01X0045500Y0011300D02*
G03X0045000Y0010979I0000000J0000550D01*
G01X0042300Y0010750D02*
G03X0041750Y0011300I0000550J0000000D01*
G01X0065450Y0025250D02*
G03X0067000Y0023700I0001550J0000000D01*
G03X0068550Y0025250I0000000J0001550D01*
G03X0067000Y0026800I0001550J0000000D01*
G03X0065450Y0025250I0000000J0001550D01*
Y0002000D02*
G03X0067000Y0000450I0001550J0000000D01*
G03X0068550Y0002000I0000000J0001550D01*
G03X0067000Y0003550I0001550J0000000D01*
G03X0065450Y0002000I0000000J0001550D01*
G01X0003950Y0025250D02*
G03X0005500Y0023700I0001550J0000000D01*
G03X0007050Y0025250I0000000J0001550D01*
G03X0005500Y0026800I0001550J0000000D01*
G03X0003950Y0025250I0000000J0001550D01*
Y0002000D02*
G03X0005500Y0000450I0001550J0000000D01*
G03X0007050Y0002000I0000000J0001550D01*
G03X0005500Y0003550I0001550J0000000D01*
G03X0003950Y0002000I0000000J0001550D01*
G01X0029700Y0001750D02*
G03X0030500Y0000950I0000800J0000000D01*
G03X0031300Y0001750I0000000J0000800D01*
G01X0029500Y0003550D02*
G03X0028700Y0002750I0000000J0000800D01*
G01X0027700Y0001750D02*
G03X0028500Y0000950I0000800J0000000D01*
G01X0016075Y0008000D02*
G03X0016691Y0007327I0000675J0000000D01*
G01X0017150Y0013306D02*
G03X0017217Y0013217I0000350J0000194D01*
G01X0016273Y0015522D02*
G03X0016350Y0015456I0000477J0000478D01*
G01X0039350Y0009500D02*
G03X0039467Y0009217I0000400J0000000D01*
G01X0020333Y0010101D02*
G03X0020325Y0010000I0000667J0000101D01*
G01X0034250Y0008050D02*
G03X0034568Y0008182I0000000J0000450D01*
G01X0030852Y0021954D02*
G03X0030967Y0021717I0000398J0000046D01*
G01X0030852Y0021954D02*
G03X0030967Y0021717I0000398J0000046D01*
G01X0035148Y0007333D02*
G03X0035250Y0007325I0000102J0000667D01*
G01X0033325Y0013250D02*
G03X0034000Y0012575I0000675J0000000D01*
G01X0034675Y0013250D02*
G03X0034000Y0013925I0000675J0000000D01*
G03X0033325Y0013250I0000000J0000675D01*
G01X0042750Y0011850D02*
G03X0043033Y0011967I0000000J0000400D01*
G01X0034717D02*
G03X0035000Y0011850I0000283J0000283D01*
G01X0023750Y0022400D02*
G03X0023470Y0022285I0000000J0000400D01*
G01X0023513Y0021198D02*
G03X0023533Y0021217I0000263J0000302D01*
G01X0023513Y0021198D02*
G03X0023533Y0021217I0000263J0000302D01*
G01X0023541Y0020900D02*
G03X0023550Y0021000I0000541J0000100D01*
G01X0035750Y0013075D02*
G03X0036392Y0013542I0000000J0000675D01*
G01X0017150Y0013306D02*
G03X0017217Y0013217I0000350J0000194D01*
G01X0035173Y0014100D02*
G03X0035075Y0013750I0000577J0000350D01*
G01X0050800Y0016750D02*
G03X0050791Y0016850I0000550J0000000D01*
G01X0026377Y0017400D02*
G03X0026229Y0017500I0000377J0000400D01*
G01X0027533Y0017283D02*
G03X0027250Y0017400I0000283J0000283D01*
G01X0029467Y0014217D02*
G03X0029750Y0014100I0000283J0000283D01*
G01X0029467Y0014217D02*
G03X0029750Y0014100I0000283J0000283D01*
G01X0036967Y0012967D02*
G03X0037250Y0012850I0000283J0000283D01*
G01X0037706D02*
G03X0037941Y0012650I0000544J0000400D01*
G01X0026377Y0021400D02*
G03X0026229Y0021500I0000377J0000400D01*
G03X0026377Y0021600I0000229J0000500D01*
G01X0026229Y0018500D02*
G03X0026377Y0018600I0000229J0000500D01*
G01X0028100Y0018000D02*
G03X0028217Y0017717I0000400J0000000D01*
G01X0028717Y0017217D02*
G03X0028959Y0017102I0000283J0000283D01*
G01X0029343Y0015473D02*
G03X0029500Y0015450I0000157J0000527D01*
G01X0028717Y0017217D02*
G03X0028959Y0017102I0000283J0000283D01*
G01X0012429Y0016344D02*
G03X0012229Y0016500I0000429J0000344D01*
G01X0044800Y0016750D02*
G03X0044791Y0016850I0000550J0000000D01*
G01X0052200Y0016750D02*
G03X0052217Y0016613I0000550J0000000D01*
G01X0049200Y0016750D02*
G03X0049750Y0016200I0000550J0000000D01*
G01X0050250D02*
G03X0050800Y0016750I0000000J0000550D01*
G01X0046200D02*
G03X0046750Y0016200I0000550J0000000D01*
G01X0047250D02*
G03X0047800Y0016750I0000000J0000550D01*
G01X0043200D02*
G03X0043750Y0016200I0000550J0000000D01*
G01X0044250D02*
G03X0044800Y0016750I0000000J0000550D01*
G01X0051000Y0016400D02*
G03X0050717Y0016283I0000000J0000400D01*
G01X0052217Y0016613D02*
G03X0051956Y0016400I0000283J0000613D01*
G01X0043500Y0016150D02*
G03X0043217Y0016033I0000000J0000400D01*
G01X0063533Y0001217D02*
G03X0063650Y0001500I0000283J0000283D01*
G01X0057217Y0000717D02*
G03X0057500Y0000600I0000283J0000283D01*
G01X0062750D02*
G03X0063033Y0000717I0000000J0000400D01*
G01X0055000Y0001950D02*
G03X0055235Y0001985I0000000J0000800D01*
G01X0064675Y0024250D02*
G03X0064000Y0024925I0000675J0000000D01*
G01X0038533Y0025033D02*
G03X0038508Y0025055I0000283J0000283D01*
G01X0064668Y0024154D02*
G03X0064675Y0024250I0000668J0000096D01*
G01X0059500Y0025150D02*
G03X0059217Y0025033I0000000J0000400D01*
G01X0061283D02*
G03X0061000Y0025150I0000283J0000283D01*
G01X0055309Y0024650D02*
G03X0055675Y0025250I0000309J0000600D01*
G01X0054033Y0025033D02*
G03X0053750Y0025150I0000283J0000283D01*
G01X0020350Y0011794D02*
G03X0020108Y0011458I0000400J0000544D01*
G01X0048675Y0025500D02*
G03X0048577Y0025850I0000675J0000000D01*
G01X0039250Y0016850D02*
G03X0039533Y0016967I0000000J0000400D01*
G01X0040210Y0017644D02*
G03X0040521Y0017250I0000540J0000106D01*
G01X0041660Y0016383D02*
G03X0041783Y0016467I0000160J0000367D01*
G01X0041660Y0016383D02*
G03X0041783Y0016467I0000160J0000367D01*
G01X0021967Y0018217D02*
G03X0021987Y0018198I0000283J0000283D01*
G01X0021033Y0017283D02*
G03X0020939Y0017352I0000283J0000283D01*
G01X0021967Y0018217D02*
G03X0021987Y0018198I0000283J0000283D01*
G01X0024150Y0018000D02*
G03X0024033Y0018283I0000400J0000000D01*
G01X0023075Y0015000D02*
G03X0023750Y0014325I0000675J0000000D01*
G03X0024425Y0015000I0000000J0000675D01*
G03X0024150Y0015544I0000675J0000000D01*
G01X0043351Y0026167D02*
G03X0043250Y0026175I0000101J0000667D01*
G01X0061583Y0026101D02*
G03X0061575Y0026000I0000667J0000101D01*
G01X0046825Y0024750D02*
G03X0046834Y0024641I0000675J0000000D01*
G01X0030217Y0003533D02*
G03X0030101Y0003278I0000283J0000283D01*
G01X0035250Y0007325D02*
G03X0035925Y0008000I0000000J0000675D01*
G01X0029500Y0001950D02*
G03X0029735Y0001985I0000000J0000800D01*
G01X0030217Y0003533D02*
G03X0030101Y0003278I0000283J0000283D01*
G01X0064750Y0010979D02*
G03X0064650Y0011127I0000500J0000229D01*
G01X0039967Y0002467D02*
G03X0040250Y0002350I0000283J0000283D01*
G01X0039350Y0003250D02*
G03X0039467Y0002967I0000400J0000000D01*
G01X0039350Y0003250D02*
G03X0039467Y0002967I0000400J0000000D01*
G01X0007467Y0020217D02*
G03X0007750Y0020100I0000283J0000283D01*
G01X0007959D02*
G03X0007950Y0020000I0000541J0000100D01*
G01X0008271Y0017500D02*
G03X0007950Y0017000I0000229J0000500D01*
G01X0006967Y0023533D02*
G03X0006850Y0023250I0000283J0000283D01*
Y0021000D02*
G03X0006967Y0020717I0000400J0000000D01*
G01X0007750Y0024150D02*
G03X0007467Y0024033I0000000J0000400D01*
G01X0007750Y0024150D02*
G03X0007467Y0024033I0000000J0000400D01*
G01X0022250Y0024900D02*
G03X0021967Y0024783I0000000J0000400D01*
G01X0022250Y0024900D02*
G03X0021967Y0024783I0000000J0000400D01*
G01X0035825Y0025250D02*
G03X0035923Y0024900I0000675J0000000D01*
G01X0064250Y0006700D02*
G03X0064750Y0007021I0000000J0000550D01*
G01X0021425Y0011250D02*
G03X0021150Y0011794I0000675J0000000D01*
G01X0030550Y0022000D02*
G03X0030534Y0022133I0000550J0000000D01*
G01X0028959Y0022100D02*
G03X0028950Y0022000I0000541J0000100D01*
G01X0027750Y0021600D02*
G03X0028033Y0021717I0000000J0000400D01*
G01X0027750Y0021600D02*
G03X0028033Y0021717I0000000J0000400D01*
G01X0031000Y0021400D02*
G03X0030717Y0021283I0000000J0000400D01*
G01X0028783D02*
G03X0028500Y0021400I0000283J0000283D01*
G01X0029271Y0021500D02*
G03X0028960Y0021105I0000229J0000500D01*
G01X0025030Y0019714D02*
G03X0025271Y0019500I0000470J0000286D01*
G01X0023750Y0018600D02*
G03X0024033Y0018717I0000000J0000400D01*
G01X0023750Y0018600D02*
G03X0024033Y0018717I0000000J0000400D01*
G01X0007950Y0021000D02*
G03X0007959Y0020900I0000550J0000000D01*
G01X0020939Y0017352D02*
G03X0021425Y0018000I0000189J0000648D01*
G03X0021059Y0018600I0000675J0000000D01*
G01X0024750Y0021400D02*
G03X0024467Y0021283I0000000J0000400D01*
G01X0038101Y0026167D02*
G03X0038000Y0026175I0000101J0000667D01*
G01X0043858Y0012792D02*
G03X0044500Y0012325I0000642J0000208D01*
G03X0045044Y0012600I0000000J0000675D01*
G01X0045467Y0012217D02*
G03X0045750Y0012100I0000283J0000283D01*
G01X0050850Y0011127D02*
G03X0050800Y0011066I0000400J0000377D01*
G01X0050717Y0011967D02*
G03X0050850Y0011879I0000283J0000283D01*
G01X0043925Y0025500D02*
G03X0043917Y0025601I0000675J0000000D01*
G01X0010217Y0021217D02*
G03X0010500Y0021100I0000283J0000283D01*
G01X0010283Y0022283D02*
G03X0010000Y0022400I0000283J0000283D01*
G01X0031325Y0012750D02*
G03X0032000Y0012075I0000675J0000000D01*
G03X0032675Y0012750I0000000J0000675D01*
G03X0032000Y0013425I0000675J0000000D01*
G03X0031325Y0012750I0000000J0000675D01*
G01X0029325D02*
G03X0030000Y0012075I0000675J0000000D01*
G03X0030675Y0012750I0000000J0000675D01*
G03X0030000Y0013425I0000675J0000000D01*
G03X0029325Y0012750I0000000J0000675D01*
G03X0030000Y0012075I0000675J0000000D01*
G03X0030675Y0012750I0000000J0000675D01*
G03X0030000Y0013425I0000675J0000000D01*
G03X0029325Y0012750I0000000J0000675D01*
G01X0001750Y0018665D02*
G03X0001665Y0018750I0000500J0000415D01*
G01X0003500Y0017575D02*
G03X0004175Y0018250I0000000J0000675D01*
G03X0003500Y0018925I0000675J0000000D01*
G01X0002862Y0018030D02*
G03X0003500Y0017575I0000638J0000220D01*
G01X0011075Y0013500D02*
G03X0011750Y0012825I0000675J0000000D01*
G03X0012425Y0013500I0000000J0000675D01*
G03X0011750Y0014175I0000675J0000000D01*
G03X0011075Y0013500I0000000J0000675D01*
G01X0024325Y0010500D02*
G03X0025000Y0009825I0000675J0000000D01*
G03X0025675Y0010500I0000000J0000675D01*
G03X0025000Y0011175I0000675J0000000D01*
G03X0024325Y0010500I0000000J0000675D01*
G01X0025325Y0012750D02*
G03X0026000Y0012075I0000675J0000000D01*
G03X0026675Y0012750I0000000J0000675D01*
G03X0026000Y0013425I0000675J0000000D01*
G03X0025325Y0012750I0000000J0000675D01*
G01X0003500Y0022575D02*
G03X0004175Y0023250I0000000J0000675D01*
G03X0003500Y0023925I0000675J0000000D01*
G01X0002862Y0023030D02*
G03X0003500Y0022575I0000638J0000220D01*
G01X0054325Y0025250D02*
G03X0054691Y0024650I0000675J0000000D01*
G01X0055675Y0025250D02*
G03X0055309Y0025850I0000675J0000000D01*
G01X0027500Y0018075D02*
G03X0028100Y0018441I0000000J0000675D01*
G01X0013825Y0019500D02*
G03X0014500Y0018825I0000675J0000000D01*
G01X0025325Y0012750D02*
G03X0026000Y0012075I0000675J0000000D01*
G03X0026675Y0012750I0000000J0000675D01*
G03X0026000Y0013425I0000675J0000000D01*
G03X0025325Y0012750I0000000J0000675D01*
G01X0035075Y0013750D02*
G03X0035750Y0013075I0000675J0000000D01*
G01X0031325Y0012750D02*
G03X0032000Y0012075I0000675J0000000D01*
G03X0032675Y0012750I0000000J0000675D01*
G03X0032000Y0013425I0000675J0000000D01*
G03X0031325Y0012750I0000000J0000675D01*
G01X0014075Y0014750D02*
G03X0014750Y0014075I0000675J0000000D01*
G03X0015425Y0014750I0000000J0000675D01*
G03X0014750Y0015425I0000675J0000000D01*
G03X0014075Y0014750I0000000J0000675D01*
G01X0012750Y0015075D02*
G03X0013425Y0015750I0000000J0000675D01*
G03X0012750Y0016425I0000675J0000000D01*
G01X0039825Y0026000D02*
G03X0040500Y0025325I0000675J0000000D01*
G03X0041175Y0026000I0000000J0000675D01*
G03X0041077Y0026350I0000675J0000000D01*
G01X0036182Y0008182D02*
G03X0036500Y0008050I0000318J0000318D01*
G01X0014950Y0018997D02*
G03X0015271Y0018500I0000550J0000003D01*
G01X0034750Y0009450D02*
G03X0034432Y0009318I0000000J0000450D01*
G01X0036318D02*
G03X0036000Y0009450I0000318J0000318D01*
G01X0018500Y0008950D02*
G03X0018182Y0008818I0000000J0000450D01*
G01X0034250Y0008050D02*
G03X0034568Y0008182I0000000J0000450D01*
G01X0046800Y0001750D02*
G03X0046764Y0001985I0000800J0000000D01*
G01X0050717Y0011967D02*
G03X0050850Y0011879I0000283J0000283D01*
G01X0011899Y0002536D02*
G03X0011750Y0002550I0000149J0000786D01*
G01X0044500Y0011300D02*
G03X0044050Y0011066I0000000J0000550D01*
G01X0049525Y0010086D02*
G03X0049550Y0010250I0000525J0000164D01*
G01X0064500Y0022825D02*
G03X0065175Y0023500I0000000J0000675D01*
G03X0064668Y0024154I0000675J0000000D01*
G01X0060000Y0023325D02*
G03X0060101Y0023333I0000000J0000675D01*
G01X0058500Y0026175D02*
G03X0058398Y0026167I0000000J0000675D01*
G01X0057825Y0025500D02*
G03X0058500Y0024825I0000675J0000000D01*
G03X0059175Y0025500I0000000J0000675D01*
G03X0058500Y0026175I0000675J0000000D01*
G01X0039923Y0026350D02*
G03X0039825Y0026000I0000577J0000350D01*
G01X0042575Y0025500D02*
G03X0043250Y0024825I0000675J0000000D01*
G03X0043925Y0025500I0000000J0000675D01*
G01X0043250Y0026175D02*
G03X0042575Y0025500I0000000J0000675D01*
G01X0047332Y0025404D02*
G03X0046825Y0024750I0000168J0000654D01*
G01X0038000Y0026175D02*
G03X0037325Y0025500I0000000J0000675D01*
G01X0061783Y0027033D02*
G03X0061500Y0027150I0000283J0000283D01*
G01X0039250D02*
G03X0038967Y0027033I0000000J0000400D01*
G01X0061575Y0026000D02*
G03X0062250Y0025325I0000675J0000000D01*
G03X0062925Y0026000I0000000J0000675D01*
G03X0062250Y0026675I0000675J0000000D01*
G01X0021033Y0017283D02*
G03X0020939Y0017352I0000283J0000283D01*
G01X0021650Y0016500D02*
G03X0021533Y0016783I0000400J0000000D01*
G01X0020575Y0014750D02*
G03X0021250Y0014075I0000675J0000000D01*
G03X0021925Y0014750I0000000J0000675D01*
G03X0021650Y0015294I0000675J0000000D01*
G01X0060217Y0023217D02*
G03X0060500Y0023100I0000283J0000283D01*
G01X0064650Y0018500D02*
G03X0064533Y0018783I0000400J0000000D01*
G01X0020075Y0013250D02*
G03X0020350Y0012706I0000675J0000000D01*
G01X0021425Y0013250D02*
G03X0020750Y0013925I0000675J0000000D01*
G03X0020075Y0013250I0000000J0000675D01*
G01X0020325Y0010000D02*
G03X0021000Y0009325I0000675J0000000D01*
G03X0021675Y0010000I0000000J0000675D01*
G01X0017900Y0019500D02*
G03X0017783Y0019783I0000400J0000000D01*
G01X0014191Y0020100D02*
G03X0013825Y0019500I0000309J0000600D01*
G01X0037325Y0025500D02*
G03X0037423Y0025150I0000675J0000000D01*
G01X0037175Y0025250D02*
G03X0036500Y0025925I0000675J0000000D01*
G03X0035825Y0025250I0000000J0000675D01*
G01X0037167Y0025150D02*
G03X0037174Y0025250I0000667J0000100D01*
G01X0038508Y0025055D02*
G03X0038675Y0025500I0000508J0000445D01*
G01X0047325D02*
G03X0047332Y0025404I0000675J0000000D01*
G01X0046834Y0024641D02*
G03X0046750Y0024650I0000084J0000391D01*
G01X0021675Y0010000D02*
G03X0021093Y0010668I0000675J0000000D01*
G01X0048577Y0025150D02*
G03X0048675Y0025500I0000577J0000350D01*
G01X0021150Y0012706D02*
G03X0021425Y0013250I0000400J0000544D01*
G01X0059990Y0023325D02*
G03X0060000Y0023325I0000010J0000675D01*
G01X0054033Y0025033D02*
G03X0053750Y0025150I0000283J0000283D01*
G01X0052209Y0016850D02*
G03X0052200Y0016750I0000541J0000100D01*
G01X0020500Y0002550D02*
G03X0020264Y0002514I0000000J0000800D01*
G01X0018735D02*
G03X0018500Y0002549I0000235J0000764D01*
G01X0021300Y0001750D02*
G03X0021264Y0001985I0000800J0000000D01*
G01X0018700Y0002750D02*
G03X0018735Y0002514I0000800J0000000D01*
G01X0018264D02*
G03X0018300Y0002750I0000764J0000236D01*
G01X0019500Y0001950D02*
G03X0019735Y0001985I0000000J0000800D01*
G01X0018500Y0002550D02*
G03X0018264Y0002514I0000000J0000800D01*
G01X0019300Y0001750D02*
G03X0019264Y0001985I0000800J0000000D01*
G01X0016735Y0002514D02*
G03X0016500Y0002549I0000235J0000764D01*
G01X0016700Y0002750D02*
G03X0016735Y0002514I0000800J0000000D01*
G01X0016264D02*
G03X0016300Y0002750I0000764J0000236D01*
G01X0017500Y0001950D02*
G03X0017735Y0001985I0000000J0000800D01*
G03X0017700Y0001750I0000765J0000235D01*
G01X0016550Y0021000D02*
G03X0016541Y0021100I0000550J0000000D01*
G01X0016500Y0002550D02*
G03X0016264Y0002514I0000000J0000800D01*
G01X0054800Y0001750D02*
G03X0054764Y0001985I0000800J0000000D01*
G03X0055000Y0001949I0000236J0000765D01*
G01X0050800Y0001750D02*
G03X0050764Y0001985I0000800J0000000D01*
G01X0048800Y0001750D02*
G03X0048764Y0001985I0000800J0000000D01*
G03X0049000Y0001949I0000236J0000765D01*
G01X0045000Y0001950D02*
G03X0045235Y0001985I0000000J0000800D01*
G01X0015500Y0001950D02*
G03X0015735Y0001985I0000000J0000800D01*
G01X0012137Y0015467D02*
G03X0012750Y0015075I0000613J0000283D01*
G01X0045235Y0001985D02*
G03X0045200Y0001750I0000765J0000235D01*
G01X0001750Y0017835D02*
G03X0001835Y0017750I0000500J0000415D01*
G01X0009229Y0017500D02*
G03X0009550Y0018000I0000229J0000500D01*
G01X0001250Y0016600D02*
G03X0001750Y0016835I0000000J0000650D01*
G01X0009229Y0016500D02*
G03X0009550Y0017000I0000229J0000500D01*
G01X0001835Y0017750D02*
G03X0001750Y0017665I0000415J0000500D01*
G01X0009550Y0018000D02*
G03X0009229Y0018500I0000550J0000000D01*
G01X0002250Y0018900D02*
G03X0001750Y0018665I0000000J0000650D01*
G01X0009550Y0016000D02*
G03X0009229Y0016500I0000550J0000000D01*
G01X0001750Y0020665D02*
G03X0001665Y0020750I0000500J0000415D01*
G03X0001900Y0021250I0000415J0000500D01*
G01X0001750Y0022835D02*
G03X0001835Y0022750I0000500J0000415D01*
G01X0009550Y0021000D02*
G03X0009229Y0021500I0000550J0000000D01*
G01X0000835Y0020750D02*
G03X0000600Y0020250I0000415J0000500D01*
G01X0012229Y0019500D02*
G03X0012550Y0020000I0000229J0000500D01*
G01X0002665Y0023750D02*
G03X0002900Y0024250I0000415J0000500D01*
G01X0002862Y0023470D02*
G03X0002665Y0023750I0000612J0000220D01*
Y0024750D02*
G03X0002900Y0025250I0000415J0000500D01*
G01X0000600D02*
G03X0000835Y0024750I0000650J0000000D01*
G01X0026839Y0018610D02*
G03X0027500Y0018074I0000661J0000140D01*
G01X0026229Y0016500D02*
G03X0026377Y0016600I0000229J0000500D01*
G01X0030643Y0022203D02*
G03X0030852Y0021954I0000607J0000297D01*
G01X0062250Y0026675D02*
G03X0062148Y0026667I0000000J0000675D01*
G01X0030229Y0021500D02*
G03X0030550Y0022000I0000229J0000500D01*
G01X0024717Y0022717D02*
G03X0025000Y0022600I0000283J0000283D01*
G01X0012550Y0017000D02*
G03X0012229Y0017500I0000550J0000000D01*
G03X0012550Y0018000I0000229J0000500D01*
G01X0012229Y0018500D02*
G03X0012550Y0019000I0000229J0000500D01*
G01X0010283Y0022283D02*
G03X0010000Y0022400I0000283J0000283D01*
G01X0012550Y0020000D02*
G03X0012541Y0020100I0000550J0000000D01*
G01X0065700Y0009934D02*
G03X0065800Y0010250I0000450J0000316D01*
G01X0065250Y0011300D02*
G03X0064750Y0010979I0000000J0000550D01*
G01X0061283Y0025033D02*
G03X0061000Y0025150I0000283J0000283D01*
G01X0063800Y0006934D02*
G03X0064250Y0006700I0000450J0000316D01*
G01X0049209Y0016850D02*
G03X0049200Y0016750I0000541J0000100D01*
G01X0009377Y0022400D02*
G03X0009316Y0022450I0000377J0000400D01*
G01X0048500Y0010979D02*
G03X0048000Y0011300I0000500J0000229D01*
G01X0049000D02*
G03X0048500Y0010979I0000000J0000550D01*
G01X0048000Y0011300D02*
G03X0047550Y0011066I0000000J0000550D01*
G01X0043209Y0016850D02*
G03X0043200Y0016750I0000541J0000100D01*
G01X0045000Y0010979D02*
G03X0044500Y0011300I0000500J0000229D01*
G01X0041250Y0010979D02*
G03X0040750Y0011300I0000500J0000229D01*
G01X0042275Y0010086D02*
G03X0042300Y0010250I0000525J0000164D01*
G01X0041750Y0011300D02*
G03X0041250Y0010979I0000000J0000550D01*
G01X0040750Y0011300D02*
G03X0040300Y0011066I0000000J0000550D01*
G01X0039350Y0009500D02*
G03X0039467Y0009217I0000400J0000000D01*
G01X0056000Y0000950D02*
G03X0056650Y0001284I0000000J0000800D01*
G01X0030534Y0022133D02*
G03X0030643Y0022203I0000159J0000367D01*
G01X0030540Y0021105D02*
G03X0030229Y0021500I0000540J0000105D01*
G01X0031300Y0001750D02*
G03X0030900Y0002443I0000800J0000000D01*
G01X0028735Y0002514D02*
G03X0028500Y0002549I0000235J0000764D01*
G01X0028700Y0002750D02*
G03X0028735Y0002514I0000800J0000000D01*
G01X0028264D02*
G03X0028300Y0002750I0000764J0000236D01*
G01X0028959Y0017102D02*
G03X0028949Y0017000I0000541J0000102D01*
G01X0029300Y0001750D02*
G03X0029264Y0001985I0000800J0000000D01*
G01X0028500Y0002550D02*
G03X0028264Y0002514I0000000J0000800D01*
G01X0026735D02*
G03X0026500Y0002549I0000235J0000764D01*
G01X0026700Y0002750D02*
G03X0026735Y0002514I0000800J0000000D01*
G01X0026264D02*
G03X0026300Y0002750I0000764J0000236D01*
G01X0027300Y0001750D02*
G03X0027264Y0001985I0000800J0000000D01*
G01X0026500Y0002550D02*
G03X0026264Y0002514I0000000J0000800D01*
G01X0024735D02*
G03X0024500Y0002549I0000235J0000764D01*
G01X0024700Y0002750D02*
G03X0024735Y0002514I0000800J0000000D01*
G01X0024264D02*
G03X0024300Y0002750I0000764J0000236D01*
G01X0025500Y0001950D02*
G03X0025735Y0001985I0000000J0000800D01*
G01X0025271Y0021500D02*
G03X0025122Y0021400I0000229J0000500D01*
G01X0023550Y0021000D02*
G03X0023513Y0021198I0000550J0000000D01*
G01X0024500Y0002550D02*
G03X0024264Y0002514I0000000J0000800D01*
G01X0022735D02*
G03X0022500Y0002549I0000235J0000764D01*
G01X0025300Y0001750D02*
G03X0025264Y0001985I0000800J0000000D01*
G01X0022264Y0002514D02*
G03X0022300Y0002750I0000764J0000236D01*
G01X0022700D02*
G03X0022735Y0002514I0000800J0000000D01*
G01X0023500Y0001950D02*
G03X0023735Y0001985I0000000J0000800D01*
G01X0022500Y0002550D02*
G03X0022264Y0002514I0000000J0000800D01*
G01X0020735D02*
G03X0020500Y0002549I0000235J0000764D01*
G01X0023300Y0001750D02*
G03X0023264Y0001985I0000800J0000000D01*
G01X0021500Y0001950D02*
G03X0021735Y0001985I0000000J0000800D01*
G01X0020700Y0002750D02*
G03X0020735Y0002514I0000800J0000000D01*
G01X0020264D02*
G03X0020300Y0002750I0000764J0000236D01*
G01X0023264Y0001985D02*
G03X0023500Y0001949I0000236J0000765D01*
G01X0064650Y0018500D02*
G03X0064533Y0018783I0000400J0000000D01*
G01X0034575Y0008000D02*
G03X0034583Y0007898I0000675J0000000D01*
G01X0028950Y0016000D02*
G03X0028973Y0015843I0000550J0000000D01*
G01X0030229Y0016500D02*
G03X0030355Y0016580I0000229J0000500D01*
G01X0045467Y0012217D02*
G03X0045750Y0012100I0000283J0000283D01*
G01X0047800Y0016750D02*
G03X0047791Y0016850I0000550J0000000D01*
G01X0046209D02*
G03X0046200Y0016750I0000541J0000100D01*
G01X0063956Y0023100D02*
G03X0064500Y0022825I0000544J0000400D01*
G01X0064000Y0024925D02*
G03X0063456Y0024650I0000000J0000675D01*
G01X0047423Y0025850D02*
G03X0047325Y0025500I0000577J0000350D01*
G01X0038675D02*
G03X0038667Y0025601I0000675J0000000D01*
G01X0025122Y0021600D02*
G03X0025271Y0021500I0000378J0000400D01*
G01X0026550Y0016000D02*
G03X0026229Y0016500I0000550J0000000D01*
G01X0025271Y0017500D02*
G03X0024950Y0017000I0000229J0000500D01*
G01X0026229Y0017500D02*
G03X0026550Y0018000I0000229J0000500D01*
G01X0021987Y0018198D02*
G03X0021950Y0018000I0000513J0000198D01*
G01X0025122Y0022600D02*
G03X0025271Y0022500I0000378J0000400D01*
G01X0018271Y0018500D02*
G03X0017950Y0018000I0000229J0000500D01*
G01X0016350Y0008544D02*
G03X0016075Y0008000I0000400J0000544D01*
G01X0019229Y0016500D02*
G03X0019377Y0016600I0000229J0000500D01*
G01X0017959Y0020100D02*
G03X0017950Y0020000I0000541J0000100D01*
G01X0021093Y0010668D02*
G03X0021426Y0011250I0000343J0000582D01*
G01X0010950Y0022000D02*
G03X0010959Y0021900I0000550J0000000D01*
G01X0011076Y0023350D02*
G03X0010950Y0023000I0000424J0000350D01*
Y0021000D02*
G03X0010959Y0020900I0000550J0000000D01*
Y0021100D02*
G03X0010950Y0021000I0000541J0000100D01*
G01X0009229Y0021500D02*
G03X0009377Y0021600I0000229J0000500D01*
G01X0010959Y0020100D02*
G03X0010950Y0020000I0000541J0000100D01*
G01X0014950Y0021000D02*
G03X0014959Y0020900I0000550J0000000D01*
G54D21*
G01X0050000Y0016750D02*
X0048125D01*
X0047500Y0016125D01*
X0046625D01*
X0046000Y0016750D01*
X0044000D01*
X0042250D01*
X0041500Y0016000D01*
X0040000D01*
X0039250Y0016750D01*
X0038000D01*
X0032000Y0012750D02*
X0030000D01*
X0026000D01*
X0008750Y0016000D02*
X0009275D01*
X0009750Y0015525D01*
Y0001750D01*
X0003500Y0018250D02*
X0005500D01*
Y0002000D01*
X0009750Y0001750D02*
Y0013500D01*
X0011750D01*
X0025000Y0010500D02*
Y0011750D01*
X0026000Y0012750D01*
X0005500Y0025250D02*
Y0023250D01*
X0003500D01*
X0055000Y0025250D02*
X0055500Y0024750D01*
X0058750D01*
X0059250Y0025250D01*
X0067000D01*
X0029750Y0016000D02*
X0029100D01*
X0027500Y0017600D01*
Y0018750D01*
X0015750Y0016000D02*
X0014500D01*
Y0019500D01*
X0026000Y0012750D02*
X0025000Y0011750D01*
X0023750Y0013000D01*
X0023500D01*
X0023000Y0013500D01*
X0022750D01*
Y0016000D01*
X0035750Y0013750D02*
X0035075D01*
X0034825Y0014000D01*
X0033250D01*
X0032000Y0012750D01*
X0015750Y0016000D02*
X0014500D01*
Y0015750D01*
X0012750D01*
Y0014750D01*
X0011750Y0013750D01*
Y0013500D01*
X0009750D01*
Y0001750D01*
X0015750Y0016000D02*
X0015000D01*
Y0015775D01*
X0014775D01*
Y0015750D01*
X0014750D01*
Y0014750D01*
X0012750Y0015750D02*
X0014500D01*
Y0016000D01*
X0015750D01*
X0048000Y0025500D02*
X0054075D01*
X0054325Y0025250D01*
X0055000D01*
X0055500Y0024750D01*
X0058750D01*
X0059250Y0025250D01*
X0067000D01*
X0048000Y0025500D02*
X0044250D01*
X0043500Y0024750D01*
X0042425D01*
X0041175Y0026000D01*
X0040500D01*
X0041750Y0007500D02*
X0041500D01*
Y0008000D01*
X0041000Y0008500D01*
X0036500D01*
X0036000Y0009000D01*
X0034750D01*
X0034250Y0008500D01*
X0018500D01*
X0011750Y0001750D01*
X0045500Y0010500D02*
Y0009975D01*
X0045025Y0009500D01*
X0042225D01*
X0041750Y0009975D01*
Y0010500D01*
X0049000D02*
Y0009975D01*
X0048525Y0009500D01*
X0045975D01*
X0045500Y0009975D01*
Y0010500D01*
X0052250D02*
Y0009975D01*
X0051775Y0009500D01*
X0049475D01*
X0049000Y0009975D01*
Y0010500D01*
X0055500Y0007500D02*
Y0009500D01*
X0052725D01*
X0052250Y0009975D01*
Y0010500D01*
X0029750Y0022000D02*
Y0021000D01*
X0005500Y0002000D02*
Y0025250D01*
X0008750Y0021000D02*
X0007909Y0021841D01*
Y0022159D01*
X0008750Y0023000D01*
X0005500Y0002000D02*
X0009750D01*
Y0001750D01*
X0067000Y0025250D02*
Y0002000D01*
X0065250Y0010500D02*
Y0007500D01*
X0058750Y0010500D02*
Y0007500D01*
X0055500Y0010500D02*
Y0007500D01*
X0062000Y0010500D02*
Y0007500D01*
X0022750Y0023000D02*
Y0022000D01*
G54D11*
X0002250Y0026250D03*
X0001250Y0025250D03*
X0002250D03*
X0001250Y0024250D03*
X0002250D03*
X0001250Y0023250D03*
X0002250D03*
X0001250Y0022250D03*
X0002250D03*
X0001250Y0021250D03*
Y0020250D03*
X0002250D03*
X0001250Y0019250D03*
Y0018250D03*
X0002250D03*
X0001250Y0017250D03*
X0002250D03*
G54D12*
X0001250Y0026250D03*
G54D13*
X0015500Y0002750D03*
X0016500Y0001750D03*
X0017500Y0002750D03*
X0018500Y0001750D03*
X0019500Y0002750D03*
X0020500Y0001750D03*
X0021500Y0002750D03*
X0022500Y0001750D03*
X0023500Y0002750D03*
X0024500Y0001750D03*
X0025500Y0002750D03*
X0026500Y0001750D03*
X0027500Y0002750D03*
X0028500Y0001750D03*
X0029500Y0002750D03*
X0030500Y0001750D03*
X0045000Y0002750D03*
X0046000Y0001750D03*
X0047000Y0002750D03*
X0048000Y0001750D03*
X0049000Y0002750D03*
X0050000Y0001750D03*
X0051000Y0002750D03*
X0052000Y0001750D03*
X0053000Y0002750D03*
X0054000Y0001750D03*
X0055000Y0002750D03*
X0056000Y0001750D03*
X0057000Y0002750D03*
X0058000Y0001750D03*
X0059000Y0002750D03*
X0060000Y0001750D03*
X0009750D03*
X0011750D03*
G54D14*
X0067000Y0025250D03*
Y0002000D03*
X0005500Y0025250D03*
Y0002000D03*
G54D15*
X0064250Y0010500D03*
X0065250D03*
X0064250Y0007500D03*
X0065250D03*
X0061000Y0010500D03*
X0062000D03*
X0061000Y0007500D03*
X0062000D03*
X0057750Y0010500D03*
X0058750D03*
X0057750Y0007500D03*
X0058750D03*
X0054500Y0010500D03*
X0055500D03*
X0054500Y0007500D03*
X0055500D03*
X0051250Y0010500D03*
X0052250D03*
X0051250Y0007500D03*
X0052250D03*
X0048000Y0010500D03*
X0049000D03*
X0048000Y0007500D03*
X0049000D03*
X0044500Y0010500D03*
X0045500D03*
X0044500Y0007500D03*
X0045500D03*
X0040750Y0010500D03*
X0041750D03*
X0040750Y0007500D03*
X0041750D03*
G54D16*
X0063250Y0010500D03*
Y0007500D03*
X0060000Y0010500D03*
Y0007500D03*
X0056750Y0010500D03*
Y0007500D03*
X0053500Y0010500D03*
Y0007500D03*
X0050250Y0010500D03*
Y0007500D03*
X0047000Y0010500D03*
Y0007500D03*
X0043500Y0010500D03*
Y0007500D03*
X0039750Y0010500D03*
Y0007500D03*
G54D18*
X0050000Y0021750D03*
Y0020750D03*
Y0019750D03*
Y0018750D03*
Y0017750D03*
Y0016750D03*
X0053000D03*
Y0017750D03*
Y0018750D03*
Y0019750D03*
Y0020750D03*
Y0021750D03*
Y0022750D03*
X0044000Y0021750D03*
Y0020750D03*
Y0019750D03*
Y0018750D03*
Y0017750D03*
Y0016750D03*
X0047000D03*
Y0017750D03*
Y0018750D03*
Y0019750D03*
Y0020750D03*
Y0021750D03*
Y0022750D03*
X0038000Y0021750D03*
Y0020750D03*
Y0019750D03*
Y0018750D03*
Y0017750D03*
Y0016750D03*
X0041000D03*
Y0017750D03*
Y0018750D03*
Y0019750D03*
Y0020750D03*
Y0021750D03*
Y0022750D03*
X0029750Y0022000D03*
Y0021000D03*
Y0020000D03*
Y0019000D03*
Y0018000D03*
Y0017000D03*
Y0016000D03*
X0032750D03*
Y0017000D03*
Y0018000D03*
Y0019000D03*
Y0020000D03*
Y0021000D03*
Y0022000D03*
Y0023000D03*
X0022750Y0022000D03*
Y0021000D03*
Y0020000D03*
Y0019000D03*
Y0018000D03*
Y0017000D03*
Y0016000D03*
X0025750D03*
Y0017000D03*
Y0018000D03*
Y0019000D03*
Y0020000D03*
Y0021000D03*
Y0022000D03*
Y0023000D03*
X0015750Y0022000D03*
Y0021000D03*
Y0020000D03*
Y0019000D03*
Y0018000D03*
Y0017000D03*
Y0016000D03*
X0018750D03*
Y0017000D03*
Y0018000D03*
Y0019000D03*
Y0020000D03*
Y0021000D03*
Y0022000D03*
Y0023000D03*
X0008750Y0022000D03*
Y0021000D03*
Y0020000D03*
Y0019000D03*
Y0018000D03*
Y0017000D03*
Y0016000D03*
X0011750D03*
Y0017000D03*
Y0018000D03*
Y0019000D03*
Y0020000D03*
Y0021000D03*
Y0022000D03*
Y0023000D03*
G54D19*
X0050000Y0022750D03*
X0044000D03*
X0038000D03*
X0029750Y0023000D03*
X0022750D03*
X0015750D03*
X0008750D03*
G54D22*
X0030000Y0012750D03*
X0003500Y0018250D03*
X0011750Y0013500D03*
X0025000Y0010500D03*
X0003500Y0023250D03*
X0055000Y0025250D03*
X0027500Y0018750D03*
X0014500Y0019500D03*
X0026000Y0012750D03*
X0035750Y0013750D03*
X0032000Y0012750D03*
X0014750Y0014750D03*
X0012750Y0015750D03*
X0048000Y0025500D03*
X0040500Y0026000D03*
X0044500Y0015000D03*
X0064500Y0023500D03*
X0060000Y0024000D03*
X0058500Y0025500D03*
X0043250D03*
X0045500Y0021000D03*
X0060500D03*
X0038000Y0025500D03*
X0062250Y0026000D03*
X0021250Y0014750D03*
X0059250Y0023500D03*
X0020750Y0013250D03*
Y0011250D03*
X0021000Y0010000D03*
X0036500Y0025250D03*
X0059000Y0022000D03*
X0055250Y0018750D03*
X0038000Y0024000D03*
X0020750Y0018000D03*
X0055250Y0020750D03*
X0044500Y0013000D03*
X0036000Y0023750D03*
X0059500Y0009250D03*
X0052000Y0015250D03*
X0034500Y0016500D03*
X0050500Y0014500D03*
X0053500Y0014250D03*
X0056250Y0015000D03*
X0045500Y0019250D03*
X0058500Y0015250D03*
X0052500Y0016000D03*
X0064000Y0024250D03*
X0047500Y0024750D03*
X0060000Y0005500D03*
X0059250Y0018000D03*
X0023750Y0015000D03*
X0035500Y0022750D03*
X0035250Y0008000D03*
X0044750Y0008750D03*
X0045250Y0022500D03*
X0016750Y0008000D03*
Y0016000D03*
X0035500Y0020750D03*
X0034750Y0020250D03*
X0039750Y0021750D03*
X0031250Y0022500D03*
X0034000Y0013250D03*
X0048000D03*
X0043000Y0013750D03*
X0038250Y0013250D03*
G54D24*
X0040750Y0013750D03*
M02*
